<?xml version="1.0" standalone="no"?>
<!DOCTYPE svg PUBLIC "-//W3C//DTD SVG 1.1//EN" "http://www.w3.org/Graphics/SVG/1.1/DTD/svg11.dtd" >
<svg xmlns="http://www.w3.org/2000/svg" xmlns:xlink="http://www.w3.org/1999/xlink" version="1.1">
<metadata>
Created by FontForge 20170731 at Thu Dec  4 18:18:14 2014
 By Aleksey,,,
Copyright 2015 Dalton Maag Ltd. Modification of this file requires prior written permission from Dalton Maag Ltd.
</metadata>
<defs>
<font id="Bookerly-Italic" horiz-adv-x="0" >
  <font-face 
    font-family="Bookerly"
    font-weight="400"
    font-style="italic"
    font-stretch="normal"
    units-per-em="1000"
    panose-1="2 2 6 2 4 3 5 9 2 4"
    ascent="802"
    descent="-198"
    x-height="519"
    cap-height="693"
    bbox="-430 -510 1851 1055"
    underline-thickness="69"
    underline-position="-186"
    slope="-11.93"
    unicode-range="U+0008-FFFD"
  />
<missing-glyph horiz-adv-x="500" 
d="M50 0v750h400v-750h-400zM400 700h-300v-650h300v650z" />
    <glyph glyph-name="f_f" unicode="ff" horiz-adv-x="738" 
d="M589 443l-94 -441q-23 -108 -88 -165.5t-165 -57.5q-42 0 -81 14t-65 37q-39 -39 -75.5 -52t-80.5 -13q-48 0 -75.5 16.5t-27.5 45.5q0 18 16 37l21 24q29 -23 58.5 -36t55.5 -13q15 0 28 10t24.5 32.5t22.5 58t22 87.5l91 416h-107l7 35q6 5 18 10t28 9.5t34 7.5t35 5
l4 20q10 50 32.5 91t54.5 70.5t72 45.5t85 16t87 -14.5t69 -38.5q58 67 146 67q45 0 73.5 -17.5t28.5 -44.5q0 -33 -50 -58q-19 26 -38.5 37.5t-45.5 11.5q-18 0 -32.5 -8.5t-26.5 -28t-21.5 -51t-18.5 -77.5l-4 -20h122q23 0 23 -12q0 -9 -9 -27t-20 -29h-133zM502 443
h-239l-88 -415q-16 -79 -37 -129q24 -24 60.5 -38t77.5 -14q28 0 48 7.5t35 25.5t26 47.5t21 73.5zM521 530q6 27 13 53t18 49q-23 25 -59.5 39t-78.5 14q-29 0 -49.5 -7.5t-35.5 -25.5t-25.5 -47.5t-19.5 -73.5l-4 -20h237z" />
    <glyph glyph-name="f_i" unicode="fi" horiz-adv-x="652" 
d="M596 134q10 -11 10 -22q0 -15 -18 -37q-31 -37 -72.5 -61t-75.5 -24q-55 0 -55 57q0 29 14 81t39 137q6 20 13 45l14 50t13.5 47t9.5 36h-226l-87 -415q-9 -43 -18.5 -76t-21 -58.5t-25 -44.5t-29.5 -34q-56 -50 -138 -50q-50 0 -78 16t-28 45q0 19 16 38l21 24
q24 -21 55 -35t53 -14q18 0 32 9t26 30.5t22.5 58t22.5 90.5l90 416h-107l7 35q6 5 18 10t28 9.5t34 7.5t35 5l2 11q10 54 35 98.5t62 76.5t83.5 49.5t98.5 17.5q69 0 110 -21t41 -56q0 -20 -15.5 -38t-41.5 -32q-16 23 -29.5 38t-27.5 24t-29.5 13t-34.5 4q-37 0 -64 -9
t-46.5 -30.5t-32.5 -57t-22 -87.5h188q28 5 45 6.5t26 1.5q41 0 41 -38q0 -17 -7 -52t-19 -80q-8 -29 -19.5 -69.5t-22.5 -79t-18.5 -70t-7.5 -42.5q0 -10 6 -10q4 0 15.5 6.5t25 16.5t28 22t25.5 24z" />
    <glyph glyph-name="f_l" unicode="fl" horiz-adv-x="675" 
d="M625 134q10 -11 10 -22q0 -18 -16 -37q-74 -85 -148 -85q-26 0 -40 16t-14 45q0 7 2 18.5t5 25.5t6.5 29t6.5 29l118 514q-20 13 -49.5 20.5t-60.5 7.5q-36 0 -62.5 -8t-45.5 -27.5t-32 -51t-22 -77.5l-4 -20h122q23 0 23 -12q0 -9 -9 -27t-20 -29h-133l-87 -415
q-18 -86 -40 -135t-54 -78q-29 -26 -62.5 -38t-78.5 -12q-48 0 -75.5 16.5t-27.5 45.5q0 18 16 37l21 24q29 -23 58.5 -36t55.5 -13q15 0 28 10t24.5 32.5t22.5 58t22 87.5l90 416h-107l7 35q6 5 18 10t28 9.5t34 7.5t35 5l4 20q10 52 35.5 94.5t63 73.5t84.5 48t100 17
t93 -20q34 30 58 30q29 0 29 -36q0 -16 -9 -55l-119 -517q-7 -30 -10.5 -48t-3.5 -26q0 -13 8 -13q4 0 14.5 6.5t24 16.5t27 22.5t24.5 23.5z" />
    <glyph glyph-name="f_f_i" unicode="ffi" horiz-adv-x="979" 
d="M923 134q10 -11 10 -22q0 -15 -18 -37q-31 -37 -72.5 -61t-75.5 -24q-55 0 -55 57q0 29 14 81t39 137q6 20 13 45l14 50t13.5 47t9.5 36h-226l-94 -441q-23 -108 -88 -165.5t-165 -57.5q-42 0 -81 14t-65 37q-34 -35 -69.5 -50t-86.5 -15q-48 0 -75.5 16.5t-27.5 45.5
q0 18 16 37l21 24q29 -23 58.5 -36t55.5 -13q15 0 28 10t24.5 32.5t22.5 58t22 87.5l91 416h-107l7 35q6 5 18 10t28 9.5t34 7.5t35 5l4 20q10 50 32.5 91t54.5 70.5t72 45.5t85 16q25 0 50.5 -5t47.5 -13.5t40 -20.5t30 -27q39 37 88 56.5t103 19.5q69 0 110 -21t41 -56
q0 -20 -15.5 -38t-41.5 -32q-16 23 -29.5 38t-27.5 24t-29.5 13t-34.5 4q-37 0 -64 -9t-46.5 -30.5t-32.5 -57t-22 -87.5h188q28 5 45 6.5t26 1.5q41 0 41 -38q0 -19 -7.5 -56t-18.5 -76q-8 -29 -19.5 -69.5t-22.5 -79t-18.5 -70t-7.5 -42.5q0 -10 6 -10q4 0 15.5 6.5
t25 16.5t28 22t25.5 24zM502 443h-239l-88 -415q-10 -47 -19 -76.5t-18 -52.5q24 -24 60.5 -38t77.5 -14q28 0 48 7.5t35 25.5t26 47.5t21 73.5zM519 521q6 30 15.5 56.5t23.5 48.5q-24 28 -62.5 43.5t-81.5 15.5q-29 0 -49.5 -7.5t-35.5 -25.5t-25.5 -47.5t-19.5 -73.5
l-4 -20h237z" />
    <glyph glyph-name="f_f_l" unicode="ffl" horiz-adv-x="1002" 
d="M952 134q10 -11 10 -22q0 -18 -16 -37q-74 -85 -148 -85q-26 0 -40 16t-14 45q0 7 2 18.5t5 25.5t6.5 29t6.5 29l118 514q-20 13 -49.5 20.5t-60.5 7.5q-36 0 -62.5 -8t-45.5 -27.5t-32 -51t-22 -77.5l-4 -20h122q23 0 23 -12q0 -9 -9 -27t-20 -29h-133l-94 -441
q-23 -108 -88 -165.5t-165 -57.5q-42 0 -81 14t-65 37q-20 -19 -38.5 -31.5t-37.5 -20t-38.5 -10.5t-41.5 -3q-48 0 -75.5 16.5t-27.5 45.5q0 18 16 37l21 24q29 -23 58.5 -36t55.5 -13q15 0 28 10t24.5 32.5t22.5 58t22 87.5l91 416h-107l7 35q6 5 18 10t28 9.5t34 7.5
t35 5l4 20q10 50 32.5 91t54.5 70.5t72 45.5t85 16q25 0 50.5 -5t47.5 -13.5t40 -20.5t30 -27q40 37 90 56.5t107 19.5q53 0 93 -20q34 30 58 30q29 0 29 -36q0 -16 -9 -55l-119 -517q-7 -30 -10.5 -48t-3.5 -26q0 -13 8 -13q4 0 14.5 6.5t24 16.5t27 22.5t24.5 23.5z
M502 443h-239l-88 -415q-10 -47 -19 -76.5t-18 -52.5q24 -24 60.5 -38t77.5 -14q28 0 48 7.5t35 25.5t26 47.5t21 73.5zM521 530q10 51 37 96q-24 28 -62.5 43.5t-81.5 15.5q-29 0 -49.5 -7.5t-35.5 -25.5t-25.5 -47.5t-19.5 -73.5l-4 -20h237z" />
    <glyph glyph-name=".notdef" horiz-adv-x="500" 
d="M50 0v750h400v-750h-400zM400 700h-300v-650h300v650z" />
    <glyph glyph-name=".null" 
 />
    <glyph glyph-name=".null" 
 />
    <glyph glyph-name=".null" 
 />
    <glyph glyph-name="nonmarkingreturn" unicode="&#x9;" horiz-adv-x="215" 
 />
    <glyph glyph-name="nonmarkingreturn" unicode="&#xd;" horiz-adv-x="215" 
 />
    <glyph glyph-name="space" unicode=" " horiz-adv-x="215" 
 />
    <glyph glyph-name="exclam" unicode="!" horiz-adv-x="303" 
d="M103 182q2 38 8.5 93.5t15.5 115.5t19.5 118t20.5 103q8 37 17.5 62t23 40t31 21t42.5 6q6 0 16.5 -1t15.5 -2q-24 -59 -48 -129t-44 -142.5t-35.5 -141.5t-23.5 -126zM105 -15q-45 0 -45 45q0 35 23 59t56 24q45 0 45 -45q0 -35 -23 -59t-56 -24z" />
    <glyph glyph-name="quotedbl" unicode="&#x22;" horiz-adv-x="376" 
d="M60 415q4 38 9 74.5t9.5 67.5t8 54.5t5.5 35.5q7 33 30.5 50.5t61.5 17.5h13l-78 -285zM232 415q4 38 9 74.5t9.5 67.5t8 54.5t5.5 35.5q7 33 30.5 50.5t61.5 17.5h13l-78 -285z" />
    <glyph glyph-name="numbersign" unicode="#" horiz-adv-x="623" 
d="M414 117l-37 -157h-68l38 157h-140l-38 -157h-67l37 157h-123l16 60h122l39 165h-128l14 60h129l38 157h68l-38 -157h140l38 157h67l-38 -157h124l-16 -60h-123l-39 -165h129l-14 -60h-130zM401 342h-140l-40 -165h140z" />
    <glyph glyph-name="dollar" unicode="$" horiz-adv-x="623" 
d="M145 -192l51 190q-161 31 -161 141q0 70 56 82l22 4q1 -66 24.5 -103t76.5 -54l63 237q-38 22 -64 42t-42.5 40t-24 41.5t-7.5 45.5q0 42 16.5 77t46 60.5t71.5 41t93 17.5l24 116l72 11l-36 -133q72 -16 109.5 -48t37.5 -79q0 -33 -18.5 -48.5t-62.5 -17.5
q0 51 -18.5 80t-62.5 46l-57 -222q84 -47 119.5 -90t35.5 -98q0 -42 -19 -77.5t-52.5 -62t-79.5 -41.5t-99 -15l-38 -173zM275 61q58 1 94 32t36 82q0 32 -16.5 53.5t-60.5 47.5zM351 603q-121 -7 -121 -109q0 -52 72 -90z" />
    <glyph glyph-name="percent" unicode="%" horiz-adv-x="969" 
d="M189 -6l272 362l259 369l60 -41l-272 -362l-259 -369zM201 272q-65 0 -98.5 40t-33.5 106q0 56 16.5 106t45.5 87.5t68 59.5t83 22q65 0 98.5 -40t33.5 -106q0 -56 -16.5 -106t-45.5 -87.5t-68 -59.5t-83 -22zM208 331q31 0 55.5 20t41 50t25 66t8.5 68q0 50 -15 74.5
t-48 24.5q-32 0 -56 -20t-40.5 -50t-25 -66t-8.5 -68q0 -50 15 -74.5t48 -24.5zM687 -15q-65 0 -98.5 40t-33.5 106q0 56 16.5 106t45.5 87.5t68 59.5t83 22q65 0 98.5 -40t33.5 -106q0 -56 -16.5 -106t-45.5 -87.5t-68 -59.5t-83 -22zM694 44q31 0 55.5 20t41 50t25 66
t8.5 68q0 50 -15 74.5t-48 24.5q-32 0 -56 -20t-40.5 -50t-25 -66t-8.5 -68q0 -50 15 -74.5t48 -24.5z" />
    <glyph glyph-name="ampersand" unicode="&#x26;" horiz-adv-x="905" 
d="M794 6q-5 -29 -23.5 -41.5t-57.5 -12.5q-53 0 -111.5 23.5t-121.5 68.5q-47 -26 -97.5 -40t-101.5 -14q-100 0 -155.5 47t-55.5 132q0 78 47 142t137 108q-1 5 -1.5 14t-0.5 23q0 57 16.5 106t45 85.5t68 57t84.5 20.5q52 0 81.5 -27t29.5 -75q0 -130 -234 -221
q14 -72 54.5 -138.5t104.5 -123.5q76 72 93 180q-56 -17 -77 -32.5t-26 -23.5q-14 4 -21.5 14t-7.5 20q0 18 8 31.5t27 25t50 21.5t78 21q52 11 85.5 21.5t54 22.5t29 27t10.5 35q21 -8 30 -20t9 -32t-9 -35t-30 -28.5t-56.5 -26t-87.5 -25.5q-3 -66 -31 -126.5t-77 -108.5
q57 -39 118 -63t123 -32zM425 92q-61 59 -103.5 130.5t-59.5 143.5q-56 -34 -85.5 -80t-29.5 -97q0 -59 40 -89.5t117 -30.5q67 0 121 23zM337 452q87 42 125 77.5t38 75.5q0 26 -14 41.5t-38 15.5t-44.5 -14.5t-35 -40.5t-23 -61t-8.5 -77v-17z" />
    <glyph glyph-name="quotesingle" unicode="'" horiz-adv-x="204" 
d="M60 415q4 38 9 74.5t9.5 67.5t8 54.5t5.5 35.5q7 33 30.5 50.5t61.5 17.5h13l-78 -285z" />
    <glyph glyph-name="parenleft" unicode="(" horiz-adv-x="394" 
d="M254 -195q-48 39 -86 86.5t-64 100.5t-40 110t-14 115q0 87 27 172t76.5 161t118.5 139t154 106q13 -5 22 -16.5t11 -26.5q-76 -45 -136 -103.5t-102 -125.5t-64 -140.5t-22 -149.5q0 -117 41.5 -215.5t120.5 -169.5q-9 -14 -22 -26.5t-21 -16.5z" />
    <glyph glyph-name="parenright" unicode=")" horiz-adv-x="394" 
d="M140 795q48 -39 86 -86.5t64 -100.5t40 -110t14 -115q0 -87 -27 -172.5t-76.5 -161t-118.5 -138.5t-154 -106q-13 5 -22 16.5t-11 26.5q76 45 136 103.5t102 125.5t64 140.5t22 149.5q0 117 -41.5 215.5t-120.5 169.5q9 14 22 26.5t21 16.5z" />
    <glyph glyph-name="asterisk" unicode="*" horiz-adv-x="380" 
d="M212 402q0 39 -1.5 70t-5.5 67q-23 -31 -43 -53.5t-46 -45.5q-9 3 -18.5 10.5t-17.5 18t-13.5 22t-6.5 23.5q35 13 62 24t62 27q-32 11 -66 25t-55 25q0 21 15.5 44.5t38.5 34.5q19 -24 40 -47t50 -52q0 32 3.5 66t10.5 64q56 0 90 -33q-22 -32 -38 -56t-33 -54
q32 9 66 15t61 8q10 -22 10 -43q0 -14 -3 -26.5t-9 -22.5q-37 13 -66.5 21t-61.5 13q5 -7 13 -21t17 -31t18 -34.5t15 -31.5q-10 -12 -30.5 -20t-42.5 -8q-11 0 -15 1z" />
    <glyph glyph-name="plus" unicode="+" horiz-adv-x="623" 
d="M273 126v180h-169v67h169v180h77v-180h169v-67h-169v-180h-77z" />
    <glyph glyph-name="comma" unicode="," horiz-adv-x="303" 
d="M-23 -138q56 37 87 81t31 86q0 14 -6 28t-20 31q21 20 38.5 28.5t36.5 8.5q26 0 40 -16.5t14 -45.5q0 -33 -19 -72.5t-47 -73t-61 -56.5t-60 -23q-11 0 -18.5 5t-15.5 19z" />
    <glyph glyph-name="hyphen" unicode="-" horiz-adv-x="374" 
d="M86 214q-26 0 -36 5.5t-10 19.5q0 10 2.5 23t8.5 34h236q27 0 37 -5.5t10 -19.5q0 -10 -2.5 -23t-8.5 -34h-237z" />
    <glyph glyph-name="period" unicode="." horiz-adv-x="303" 
d="M113 -15q-49 0 -49 48q0 38 24.5 64t60.5 26q49 0 49 -48q0 -38 -24.5 -64t-60.5 -26z" />
    <glyph glyph-name="slash" unicode="/" horiz-adv-x="499" 
d="M-19 -44l455 764h82l-455 -764h-82z" />
    <glyph glyph-name="zero" unicode="0" horiz-adv-x="623" 
d="M249 70q41 0 74.5 19t60 50t46 71t32.5 83t19 85.5t6 77.5q0 157 -114 157q-41 0 -74.5 -20t-60 -52.5t-46 -74.5t-32.5 -86t-19 -86t-6 -75q0 -70 27.5 -109.5t86.5 -39.5zM222 -10q-95 0 -143.5 53.5t-48.5 159.5q0 47 10 101.5t30.5 109t51 105t71.5 89.5t93 62
t115 23q94 0 142.5 -55.5t48.5 -164.5q0 -49 -10 -104t-30.5 -108.5t-51 -102.5t-72 -86.5t-93 -59.5t-113.5 -22z" />
    <glyph glyph-name="one" unicode="1" horiz-adv-x="623" 
d="M88 0l13 44q11 6 44.5 14.5t77.5 17.5l106 492h-88q-32 0 -42 4.5t-12 19.5l-3 25q78 21 137.5 40t97.5 37l32 -25l-17 -58l-113 -537l76 -11q28 -4 28 -21q0 -6 -5 -19t-11 -23h-321z" />
    <glyph glyph-name="two" unicode="2" horiz-adv-x="623" 
d="M58 0q-23 0 -36.5 12.5t-13.5 32.5q0 21 18 38l153 121q75 60 126.5 106t83 83.5t45.5 69t14 61.5q0 43 -24 66t-69 23q-53 0 -100 -36t-78 -99q-29 11 -40.5 22t-11.5 28q0 31 22 60.5t58 52.5t81.5 37.5t92.5 14.5q40 0 73 -11t57 -31.5t37 -49t13 -62.5
q0 -41 -17.5 -81.5t-55.5 -86.5t-98.5 -98t-147.5 -115l-88 -64h348l-6 -27q-7 -35 -26.5 -51t-55.5 -16h-354z" />
    <glyph glyph-name="three" unicode="3" horiz-adv-x="623" 
d="M58 65q71 0 131.5 12.5t105 34.5t70 52t25.5 65q0 38 -25.5 58.5t-73.5 20.5q-20 0 -49 -4t-50 -10l-7 66q9 1 23.5 4.5t31 8.5t32 10t26.5 10q66 28 103.5 67t37.5 81q0 34 -23.5 53t-65.5 19q-108 0 -173 -119l-20 16q-22 18 -22 36q0 28 20 54.5t52.5 47t74.5 33
t86 12.5q78 0 125 -37.5t47 -100.5q0 -56 -39 -105t-108 -81q50 -14 76.5 -47.5t26.5 -82.5q0 -53 -29 -98t-79 -79t-118.5 -53t-147.5 -19q-54 0 -76.5 16.5t-25.5 58.5h38z" />
    <glyph glyph-name="four" unicode="4" horiz-adv-x="623" 
d="M308 0l38 168h-289q-23 0 -36 9.5t-13 26.5q0 18 16 36l398 413q17 18 39.5 28.5t44.5 10.5q25 0 44 -13l-94 -435h116l-18 -76h-114l-36 -168h-96zM442 575l-310 -331h229z" />
    <glyph glyph-name="five" unicode="5" horiz-adv-x="623" 
d="M44 65h39q61 0 114 14.5t93 39.5t63 59t23 73q0 69 -58.5 103t-172.5 34l86 293h339l-23 -82h-250l-39 -133q222 -33 222 -198q0 -59 -28.5 -110t-78.5 -88.5t-118.5 -58.5t-147.5 -21q-33 0 -48 13.5t-15 42.5v19z" />
    <glyph glyph-name="six" unicode="6" horiz-adv-x="623" 
d="M609 635q-58 -2 -113.5 -19.5t-105 -46t-91 -67.5t-72.5 -85q50 11 95 11q96 0 148.5 -45.5t52.5 -126.5q0 -56 -20 -104.5t-55.5 -84.5t-82.5 -56.5t-101 -20.5q-95 0 -149.5 57t-54.5 157q0 61 19.5 121t53 114.5t80 101t100.5 80.5t113.5 53.5t120.5 19.5
q29 0 45.5 -16t16.5 -43zM189 347q-28 -68 -28 -136q0 -71 29 -108.5t84 -37.5q31 0 58 13t46.5 36.5t31 55t11.5 68.5q0 120 -138 120q-24 0 -47 -3t-47 -8z" />
    <glyph glyph-name="seven" unicode="7" horiz-adv-x="623" 
d="M187 -15q-53 0 -53 43q0 34 21 83t66.5 118t116.5 159.5t170 207.5h-258l-59 -119h-29q-21 0 -21 29q0 10 4 29.5t11 43t16 50t20 52.5h403q33 0 33 -29q0 -8 -9 -48q-144 -155 -247 -312.5t-157 -306.5h-28z" />
    <glyph glyph-name="eight" unicode="8" horiz-adv-x="623" 
d="M398 358q63 -40 89.5 -77.5t26.5 -85.5q0 -42 -21 -79.5t-58 -65.5t-86 -44t-104 -16q-44 0 -79.5 11t-61 31t-39.5 48t-14 63q0 124 193 214q-27 21 -45 38t-28.5 33t-15 33t-4.5 38q0 39 20.5 74t55 62t80 42.5t95.5 15.5q38 0 69 -9.5t53.5 -27t35 -41.5t12.5 -54
q0 -29 -12.5 -58.5t-35 -56t-55 -49.5t-71.5 -39zM295 318q-141 -66 -141 -156q0 -44 30.5 -70.5t81.5 -26.5q30 0 56.5 9t46 25t31 37t11.5 45q0 75 -116 137zM342 398q66 31 99.5 69.5t33.5 78.5q0 35 -23.5 56t-64.5 21q-28 0 -53 -9t-44 -24.5t-30 -36.5t-11 -44
q0 -16 3.5 -28t13.5 -24t28.5 -26t47.5 -33z" />
    <glyph glyph-name="nine" unicode="9" horiz-adv-x="623" 
d="M13 47q61 2 118 19.5t107.5 47.5t92 70.5t71.5 88.5q-54 -17 -105 -17q-91 0 -142.5 45.5t-51.5 126.5q0 45 16 92t48 86t80 63.5t111 24.5q94 0 149 -56.5t55 -157.5q0 -60 -19 -120t-53 -115t-79.5 -102t-98.5 -82t-111 -55t-116 -20q-72 0 -72 61zM436 342
q25 64 25 130q0 69 -28 108t-84 39q-35 0 -61.5 -15t-45 -39t-28 -55t-9.5 -63q0 -121 131 -121q49 0 100 16z" />
    <glyph glyph-name="colon" unicode=":" horiz-adv-x="303" 
d="M113 -15q-49 0 -49 48q0 38 24.5 64t60.5 26q49 0 49 -48q0 -38 -24.5 -64t-60.5 -26zM199 363q-49 0 -49 48q0 38 24.5 64t60.5 26q49 0 49 -48q0 -38 -24.5 -64t-60.5 -26z" />
    <glyph glyph-name="semicolon" unicode=";" horiz-adv-x="303" 
d="M-23 -138q56 37 87 81t31 86q0 14 -6 28t-20 31q21 20 38.5 28.5t36.5 8.5q26 0 40 -16.5t14 -45.5q0 -33 -19 -72.5t-47 -73t-61 -56.5t-60 -23q-11 0 -18.5 5t-15.5 19zM201 363q-49 0 -49 48q0 38 24.5 64t60.5 26q49 0 49 -48q0 -38 -24.5 -64t-60.5 -26z" />
    <glyph glyph-name="less" unicode="&#x3c;" horiz-adv-x="623" 
d="M102 323v49l380 189l34 -69l-306 -143l311 -159l-35 -72z" />
    <glyph glyph-name="equal" unicode="=" horiz-adv-x="623" 
d="M104 217v70h415v-70h-415zM104 392v70h415v-70h-415z" />
    <glyph glyph-name="greater" unicode="&#x3e;" horiz-adv-x="623" 
d="M141 118l-34 69l306 143l-311 159l35 72l384 -205v-49z" />
    <glyph glyph-name="question" unicode="?" horiz-adv-x="415" 
d="M270 240q-7 -26 -31 -41.5t-60 -15.5q-35 0 -54.5 20t-19.5 55q0 16 6 32t20 34.5t37 41t58 52.5q26 23 44 41t28.5 33.5t15 30t4.5 29.5q0 65 -79 65q-52 0 -110 -36q-5 10 -8 22.5t-3 24.5q0 39 32 63t86 24q34 0 63 -11.5t50.5 -32t33.5 -48t12 -60.5
q0 -24 -5.5 -44.5t-20.5 -43t-40 -49t-64 -61.5q-47 -43 -64.5 -61.5t-17.5 -26.5q0 -16 22 -16h70zM130 -15q-45 0 -45 45q0 35 23 59t56 24q45 0 45 -45q0 -35 -23 -59t-56 -24z" />
    <glyph glyph-name="at" unicode="@" horiz-adv-x="972" 
d="M715 469q-18 -41 -43 -126q-20 -68 -31.5 -123t-11.5 -78q0 -17 7 -24t25 -7q37 0 71.5 23.5t61.5 62.5t43 89t16 103q0 108 -65 164.5t-190 56.5q-99 0 -182 -33t-143.5 -91.5t-94.5 -139t-34 -176.5q0 -282 289 -282q70 0 132 16t111 47q12 -12 12 -30q0 -20 -24 -39
t-63 -34t-89 -24t-102 -9q-171 0 -260.5 86.5t-89.5 252.5q0 113 41.5 209.5t115 167t174 110.5t218.5 40q156 0 239.5 -73t83.5 -210q0 -71 -24 -135.5t-64 -114t-92.5 -78.5t-110.5 -29q-77 0 -77 70q0 34 7 63q-37 -64 -85 -100.5t-96 -36.5q-92 0 -92 127q0 61 18.5 117
t50 99.5t72 69.5t84.5 26q59 0 101 -47l5 16q7 24 48 24h38zM602 365q-39 47 -83 47q-25 0 -49.5 -19.5t-43.5 -52t-31 -73t-12 -82.5q0 -76 43 -76q21 0 47.5 19.5t51 50t43.5 67t25 71.5z" />
    <glyph glyph-name="A" unicode="A" horiz-adv-x="732" 
d="M395 0l10 40q29 13 89 26l-25 157h-261l-85 -158l59 -11q24 -4 24 -21q0 -14 -11 -33h-248l10 39q7 4 25 10t53 17l343 600q4 8 15.5 16t25.5 14.5t29 10.5t28 4l123 -641l53 -11q14 -3 19 -7.5t5 -13.5q0 -14 -11 -38h-270zM409 594l-164 -303h213z" />
    <glyph glyph-name="B" unicode="B" horiz-adv-x="620" 
d="M-23 0l13 41q7 3 18 7.5t23.5 9t25.5 8.5t24 7l116 554q-31 -5 -55.5 -8.5t-39.5 -7.5q-2 6 -3 14t-1 12q0 15 12.5 25.5t41.5 19.5q16 5 38 9t47 7t52 4.5t53 1.5q110 0 166 -41t56 -122q0 -53 -29 -96.5t-81 -69.5q97 -40 97 -149q0 -51 -21.5 -93t-60.5 -72t-93 -47
t-119 -17q-38 0 -67.5 0.5t-55 1t-48.5 1t-48 0.5h-61zM229 334l-55 -263q16 -1 34 -1.5t35.5 -1t33.5 -1t28 -0.5q33 0 60 11.5t46.5 32t30.5 49t11 63.5q0 111 -161 111h-63zM289 401q18 0 38.5 -1.5t46.5 -3.5q43 16 68.5 52.5t25.5 84.5q0 50 -36 77t-102 27h-24t-14 -1
l-49 -235h46z" />
    <glyph glyph-name="C" unicode="C" horiz-adv-x="644" 
d="M563 147q4 -7 4 -15q0 -13 -10 -30t-27 -33q-19 -18 -44.5 -32.5t-54.5 -25t-61 -16t-64 -5.5q-126 0 -194.5 72.5t-68.5 205.5q0 92 29.5 171.5t81.5 138.5t122.5 92.5t151.5 33.5q58 0 111.5 -12.5t88.5 -35.5q0 -15 -4.5 -43t-11.5 -52q-12 -47 -26.5 -63.5
t-42.5 -16.5h-14l9 111q-28 16 -60.5 24t-66.5 8q-57 0 -105.5 -25.5t-84.5 -70t-56.5 -104.5t-20.5 -130q0 -105 50.5 -161t145.5 -56q114 0 210 90z" />
    <glyph glyph-name="D" unicode="D" horiz-adv-x="726" 
d="M-23 0l13 41q11 6 36.5 15t54.5 17l117 553q-24 -2 -46.5 -6t-49.5 -9q-2 6 -3 14t-1 12q0 29 54 45q16 4 39.5 8t51 7t57 5t56.5 2q158 0 244 -72t86 -205q0 -98 -32 -177.5t-91 -135.5t-142.5 -86.5t-186.5 -30.5q-15 0 -39.5 0.5t-52.5 1t-55.5 1t-48.5 0.5h-61z
M294 634l-117 -563q20 -2 44 -3t62 -1q65 0 120 25.5t94.5 71t61.5 109t22 138.5q0 114 -66 168.5t-203 54.5h-18z" />
    <glyph glyph-name="E" unicode="E" horiz-adv-x="613" 
d="M-23 0l13 41q11 6 36.5 15t54.5 17l116 549l-62 12q-21 4 -21 18q0 7 4 18t11 23h472q-3 -40 -15 -95q-10 -49 -22 -67.5t-35 -18.5h-15v100q-86 6 -163 6h-59l-50 -236l204 7q18 1 24 -1.5t6 -10.5t-6.5 -26t-15.5 -35h-225l-51 -241h19q31 0 62 0.5t59.5 1.5t52.5 2
t41 3l65 116h13q29 0 29 -28q0 -12 -5 -35t-12.5 -48t-16.5 -48.5t-17 -38.5h-491z" />
    <glyph glyph-name="F" unicode="F" horiz-adv-x="554" 
d="M-23 0l13 41q11 6 36.5 15t54.5 17l116 549l-62 12q-21 4 -21 18q0 7 4 18t11 23h439q-1 -15 -5 -40.5t-10 -54.5q-10 -49 -22 -67.5t-35 -18.5h-15v100q-34 2 -57 3t-40 2t-30 1h-28h-34l-51 -240l196 7q18 1 24 -1.5t6 -10.5t-6.5 -26t-15.5 -35h-217l-51 -242l81 -11
q21 -3 21 -19q0 -12 -16 -40h-286z" />
    <glyph glyph-name="G" unicode="G" horiz-adv-x="710" 
d="M520 254l-97 14q-13 2 -17.5 6.5t-4.5 13.5q0 5 4.5 16.5t10.5 22.5h241l-6 -33q-6 -21 -40 -41l-41 -208q-65 -29 -122.5 -42t-121.5 -13q-135 0 -209 72.5t-74 204.5q0 93 29.5 172.5t81 138.5t122 92.5t152.5 33.5q65 0 125 -12.5t97 -33.5q0 -9 -1.5 -21t-3.5 -25.5
t-4.5 -26t-5.5 -22.5q-13 -46 -27.5 -63t-45.5 -17h-11l8 109q-58 32 -148 32q-57 0 -106 -25.5t-85 -70.5t-56 -107t-20 -134q0 -49 14 -88.5t39.5 -67t62 -42.5t81.5 -15q85 0 145 21z" />
    <glyph glyph-name="H" unicode="H" horiz-adv-x="801" 
d="M409 0l13 41q13 7 38.5 16t48.5 16l52 248h-331l-53 -250l59 -12q21 -4 21 -18q0 -7 -4 -18t-11 -23h-265l13 41q11 6 36.5 15t54.5 17l116 549l-62 12q-21 4 -21 18q0 7 4 18t11 23h264l-13 -41q-13 -7 -38.5 -16t-48.5 -16l-48 -228h331l49 230l-59 12q-21 4 -21 18
q0 7 4 18t11 23h265l-13 -41q-11 -6 -36.5 -15t-54.5 -17l-116 -549l62 -12q21 -4 21 -18q0 -7 -4 -18t-11 -23h-264z" />
    <glyph glyph-name="I" unicode="I" horiz-adv-x="373" 
d="M-23 0l13 41q11 6 36.5 15t54.5 17l116 549l-62 12q-21 4 -21 18q0 7 4 18t11 23h268l-13 -41q-11 -6 -36.5 -15t-54.5 -17l-116 -549l62 -12q21 -4 21 -18q0 -7 -4 -18t-11 -23h-268z" />
    <glyph glyph-name="J" unicode="J" horiz-adv-x="354" 
d="M205 622l-69 12q-21 3 -21 18q0 7 4 18t11 23h271l-13 -41q-15 -8 -38 -16t-49 -16l-106 -506q-17 -80 -40.5 -136.5t-55.5 -93.5t-74.5 -54t-96.5 -17q-42 0 -67 16.5t-25 44.5q0 19 10.5 37t29.5 31q16 -19 39.5 -31t46.5 -12q25 0 44.5 10.5t35.5 34.5t28.5 63
t24.5 97z" />
    <glyph glyph-name="K" unicode="K" horiz-adv-x="700" 
d="M-23 0l13 41q11 6 36.5 15t54.5 17l116 549l-62 12q-21 4 -21 18q0 7 4 18t11 23h261l-13 -41q-14 -8 -37.5 -16.5t-46.5 -15.5l-52 -244l294 254q-19 5 -29.5 7.5t-18.5 5.5q-11 4 -14.5 7t-3.5 8t4.5 15t9.5 20h244q-1 -9 -4 -21t-6 -17q-9 -16 -79 -32l-308 -257
l38 -55q42 -61 79 -107.5t71 -80t66 -56.5t65 -36q-12 -41 -84 -41q-22 0 -42.5 7t-43 24t-48 45t-57.5 70q-19 24 -56 82t-82 133l-59 -280l78 -12q21 -3 21 -18q0 -7 -4 -18t-11 -23h-284z" />
    <glyph glyph-name="L" unicode="L" horiz-adv-x="579" 
d="M-23 0l13 41q11 6 36.5 15t54.5 17l116 549l-62 12q-21 4 -21 18q0 7 4 18t11 23h272l-13 -41q-11 -6 -37.5 -15t-57.5 -17l-115 -545h35q25 0 53.5 0.5t56.5 1.5t53 2t43 3l72 130h28q16 0 16 -25q0 -7 -1.5 -17.5t-3.5 -18.5q-8 -34 -25 -77t-35 -74h-493z" />
    <glyph glyph-name="M" unicode="M" horiz-adv-x="907" 
d="M572 0l13 41q33 14 82 29l40 523l-281 -496l-56 -8q-9 39 -20.5 101t-23.5 131.5t-22.5 138t-17.5 119.5l-148 -512l55 -11q21 -4 21 -18q0 -12 -14 -38h-244l12 38q11 6 35.5 15t50.5 17l166 554q-42 11 -59.5 19t-17.5 15q0 4 3.5 14t8.5 21h210q2 -29 6 -61t11 -82.5
t19 -126t30 -191.5l250 461h210l-5 -25q-2 -12 -25 -24t-61 -21l-40 -553l56 -11q21 -4 21 -19q0 -6 -3.5 -16.5t-11.5 -23.5h-250z" />
    <glyph glyph-name="N" unicode="N" horiz-adv-x="764" 
d="M494 -13l-241 529l-92 -448l57 -12q21 -4 21 -18q0 -12 -13 -38h-246l12 38q11 6 35.5 14.5t50.5 16.5l115 551l-42 13q-17 5 -29 13t-12 14q0 5 3.5 15t8.5 18h154l245 -549l99 481l-57 12q-21 4 -21 18q0 12 13 38h241l-12 -38q-14 -7 -35 -14.5t-47 -15.5l-130 -625z
" />
    <glyph glyph-name="O" unicode="O" horiz-adv-x="739" 
d="M315 65q66 0 118 30.5t88 80t55 112.5t19 127q0 98 -41.5 156t-129.5 58q-66 0 -118 -30.5t-88 -80t-55 -112.5t-19 -127q0 -98 41 -156t130 -58zM295 -10q-61 0 -108.5 19.5t-80 55.5t-49.5 86.5t-17 112.5q0 81 27 160t79 141.5t127 100.5t171 38q61 0 108.5 -19.5
t80 -55.5t49.5 -86.5t17 -112.5q0 -81 -27 -160t-79 -141.5t-127 -100.5t-171 -38z" />
    <glyph glyph-name="P" unicode="P" horiz-adv-x="592" 
d="M-23 0l13 41q11 6 36.5 15t54.5 17l117 554q-23 -3 -50 -7.5t-46 -8.5q-2 6 -3 14t-1 12q0 15 12.5 25.5t41.5 19.5q34 11 79.5 16.5t93.5 5.5q249 0 249 -170q0 -57 -24 -105t-67.5 -82.5t-103 -54t-130.5 -19.5h-30l-42 -203l81 -11q21 -3 21 -18q0 -13 -16 -41h-286z
M257 339q51 0 91.5 12.5t69.5 36t44.5 57t15.5 74.5q0 62 -36.5 90t-116.5 28h-18t-12 -1l-62 -297h24z" />
    <glyph glyph-name="Q" unicode="Q" horiz-adv-x="739" 
d="M842 -156q-23 -63 -121 -63q-45 0 -101 13t-118.5 37t-129.5 58.5t-134 77.5q-45 28 -81.5 57.5t-62.5 65t-40 79t-14 99.5q0 82 27.5 160.5t79 140t126 98.5t169.5 37q57 0 104 -19.5t80.5 -55.5t52 -86.5t18.5 -112.5q0 -74 -25 -149t-73 -136.5t-117.5 -101.5
t-158.5 -44q57 -31 116.5 -55t117 -41t112 -26t102.5 -9q16 0 35.5 1.5t46.5 3.5zM313 66q62 0 113.5 30.5t88.5 80t57.5 112t20.5 126.5q0 98 -41.5 156t-129.5 58q-62 0 -113.5 -30.5t-88.5 -80t-57.5 -112.5t-20.5 -127q0 -98 41 -155.5t130 -57.5z" />
    <glyph glyph-name="R" unicode="R" horiz-adv-x="648" 
d="M-23 0l13 41q11 6 35.5 15t55.5 17l116 554q-20 -2 -48 -6.5t-48 -9.5q-2 6 -3 14t-1 12q0 15 12.5 25.5t41.5 19.5q33 11 78.5 16.5t93.5 5.5q118 0 177.5 -42t59.5 -126q0 -80 -51 -139.5t-143 -86.5q44 -103 108.5 -177t140.5 -107q-6 -17 -24.5 -26.5t-44.5 -9.5
q-69 0 -138.5 79.5t-126.5 224.5q-20 -2 -33.5 -3t-26.5 -1l-46 -220l72 -11q21 -3 21 -18q0 -13 -16 -41h-275zM234 355q53 1 95.5 13.5t72.5 34.5t46 52.5t16 68.5q0 55 -34.5 84t-100.5 29h-17.5t-18.5 -1z" />
    <glyph glyph-name="S" unicode="S" horiz-adv-x="533" 
d="M408 494l2 24q3 45 3 93q-23 10 -52 16.5t-51 6.5q-58 0 -90 -27.5t-32 -78.5q0 -19 6 -35t19.5 -31.5t36 -32.5t56.5 -37q44 -27 73.5 -49t47 -43.5t24.5 -45t7 -51.5q0 -46 -19 -85t-52.5 -67.5t-80 -44.5t-100.5 -16q-56 0 -106.5 17.5t-91.5 49.5q3 76 13 122
q6 27 16 39t27 12h27v-23q0 -41 6.5 -68.5t21.5 -44t39.5 -24t60.5 -7.5q64 0 102 31.5t38 84.5q0 20 -5 36t-18 31t-35.5 31t-58.5 37q-42 24 -71 46.5t-47.5 45t-26.5 46t-8 50.5q0 43 17.5 80t49 64t74 42.5t93.5 15.5q46 0 94.5 -11t85.5 -29q0 -13 -2.5 -34.5
t-5.5 -38.5q-11 -54 -26.5 -75.5t-43.5 -21.5h-17z" />
    <glyph glyph-name="T" unicode="T" horiz-adv-x="638" 
d="M95 0l13 41q11 6 40 15t61 17l115 545h-46q-16 0 -45 -1t-59 -3l-38 -125h-21q-17 0 -24 9t-7 30q0 13 2 32.5t6 42t8.5 46t10.5 44.5h555q-3 -26 -8 -58.5t-10 -55.5q-11 -50 -24 -70t-36 -20h-22l11 125q-27 2 -52.5 3t-39.5 1h-65l-115 -547l74 -12q21 -3 21 -18
q0 -7 -4 -18t-11 -23h-290z" />
    <glyph glyph-name="U" unicode="U" horiz-adv-x="767" 
d="M616 622l-55 12q-21 6 -21 18q0 7 4 18t11 23h243l-11 -41q-10 -6 -35 -15t-52 -17l-76 -363q-28 -131 -107.5 -199t-204.5 -68q-103 0 -158.5 49.5t-55.5 140.5q0 19 5 56t13 72l66 314l-62 12q-21 6 -21 18q0 7 4 18t11 23h261l-13 -41q-8 -5 -31.5 -13.5t-52.5 -18.5
l-67 -315q-8 -35 -11 -60t-3 -48q0 -125 135 -125q173 0 212 193z" />
    <glyph glyph-name="V" unicode="V" horiz-adv-x="708" 
d="M241 -2l-99 620q-22 7 -35 12.5t-20.5 9.5t-10 7.5t-2.5 7.5q0 11 15 38h267l-13 -42q-13 -8 -41 -18t-55 -17l61 -503l270 509l-63 13q-20 4 -20 19q0 5 4 16.5t10 22.5h255l-12 -40q-12 -8 -36.5 -18t-43.5 -15l-345 -622h-86z" />
    <glyph glyph-name="W" unicode="W" horiz-adv-x="1042" 
d="M599 -2l-48 484l-252 -484h-91l-51 620q-22 7 -35 12.5t-20.5 9.5t-10 7.5t-2.5 7.5q0 11 15 38h267l-13 -42q-13 -8 -41 -18t-55 -17l20 -508l277 574h66l49 -573l229 513l-63 13q-20 4 -20 19q0 5 4 16.5t10 22.5h254l-12 -40q-12 -8 -36.5 -18t-43.5 -15l-306 -622
h-91z" />
    <glyph glyph-name="X" unicode="X" horiz-adv-x="672" 
d="M333 0l12 40q11 7 33 15t50 16l-114 233l-193 -236l59 -12q21 -4 21 -19q0 -6 -4 -16t-9 -21h-265l13 41q13 5 35.5 13t52.5 17l257 288l-130 257q-42 14 -57 22.5t-15 16.5q0 14 15 38h262l-13 -42q-13 -8 -37.5 -17t-49.5 -16l92 -202l175 211l-51 11q-22 4 -22 18
q0 6 3.5 16t8.5 21h246l-12 -40q-8 -6 -32 -15.5t-46 -16.5l-234 -259l147 -292l59 -11q30 -6 30 -21q0 -12 -14 -38h-273z" />
    <glyph glyph-name="Y" unicode="Y" horiz-adv-x="646" 
d="M105 0l13 41q16 6 45 15t56 17l42 202l-137 344q-40 14 -51.5 21t-11.5 15q0 14 15 38h267l-13 -42q-14 -9 -40 -18.5t-58 -17.5l94 -269l200 276l-56 13q-20 4 -20 19q0 5 4 16.5t10 22.5h246l-12 -40q-12 -8 -36.5 -18t-43.5 -15l-260 -347l-44 -202l76 -12
q21 -3 21 -18q0 -7 -4 -18t-11 -23h-291z" />
    <glyph glyph-name="Z" unicode="Z" horiz-adv-x="584" 
d="M391 0h-367q-20 0 -28 9.5t-8 32.5q0 5 0.5 13t1.5 15l460 548h-112q-39 0 -78.5 -1.5t-76.5 -3.5l-52 -117h-27q-21 0 -21 31q0 13 3 32.5t8 42t12 46.5t15 45h411q21 0 29.5 -14t8.5 -47l-465 -555h77q30 0 62.5 0.5t63 1.5t56.5 2t43 2q15 22 31 54t34 75h24
q26 0 26 -27q0 -18 -5 -44t-13.5 -53t-19 -52t-21.5 -42z" />
    <glyph glyph-name="bracketleft" unicode="[" horiz-adv-x="315" 
d="M-34 -157l217 942h161q1 -2 1.5 -5.5t0.5 -10.5q0 -9 -2.5 -20.5t-8.5 -23.5h-86l-190 -822h81q1 -2 1.5 -5.5t0.5 -9.5q0 -9 -2.5 -21t-8.5 -24h-165z" />
    <glyph glyph-name="backslash" unicode="\" horiz-adv-x="498" 
d="M353 -44l-285 764h78l284 -764h-77z" />
    <glyph glyph-name="bracketright" unicode="]" horiz-adv-x="315" 
d="M349 785l-217 -942h-161q-1 2 -1.5 5.5t-0.5 10.5q0 9 2.5 20.5t8.5 23.5h86l190 822h-81q-1 2 -1.5 5.5t-0.5 9.5q0 9 2.5 21t8.5 24h165z" />
    <glyph glyph-name="asciicircum" unicode="^" horiz-adv-x="623" 
d="M450 188l-139 356l-138 -356h-86l182 446h86l181 -446h-86z" />
    <glyph glyph-name="underscore" unicode="_" horiz-adv-x="500" 
d="M0 -119v69h500v-69h-500z" />
    <glyph glyph-name="grave" unicode="`" horiz-adv-x="616" 
d="M370 584q-32 25 -53.5 42t-36 29.5t-24 20.5t-15.5 15q-24 25 -24 49q0 26 43 57l14 10l113 -165q8 -11 8 -21q0 -17 -19 -32z" />
    <glyph glyph-name="a" unicode="a" horiz-adv-x="584" 
d="M546 134q10 -11 10 -22q0 -18 -16 -37q-34 -42 -67.5 -63.5t-63.5 -21.5q-50 0 -50 75q0 16 2.5 42.5t6.5 53.5q-49 -84 -106 -127.5t-117 -43.5q-50 0 -77 35.5t-27 100.5q0 78 23 150t62 126.5t90.5 87t107.5 32.5q57 0 109 -58l7 16q8 17 21.5 24t37.5 7h41
q-16 -35 -27.5 -65.5t-22.5 -72.5q-12 -41 -38 -149q-9 -38 -14 -71t-5 -51q0 -28 11 -28q10 0 34.5 20t55.5 53zM406 390q-21 26 -44.5 42t-42.5 16q-34 0 -67 -24t-59 -63t-42 -89t-16 -101q0 -95 56 -95q26 0 57.5 23.5t61 60t52.5 81.5t32 88z" />
    <glyph glyph-name="b" unicode="b" horiz-adv-x="554" 
d="M24 10l50 162q27 115 45.5 198t32 143.5t22.5 104t16 81.5q-9 1 -21 1h-42h-44l3 16q4 20 10.5 27.5t29.5 12.5q11 3 27.5 6t34 5.5t33.5 4t26 1.5q20 0 28.5 -8t8.5 -28q0 -26 -23.5 -121.5t-73.5 -271.5q50 85 107 131.5t111 46.5q51 0 79.5 -41.5t28.5 -116.5
q0 -72 -22.5 -139t-61 -119.5t-89.5 -84t-108 -31.5q-66 0 -117 34q-20 -33 -49 -33q-14 0 -30 11zM140 92q25 -14 51.5 -21.5t48.5 -7.5q36 0 68 23t56 61.5t38.5 89.5t14.5 108q0 93 -49 93q-31 0 -65.5 -29t-66.5 -77t-57.5 -110.5t-38.5 -129.5z" />
    <glyph glyph-name="c" unicode="c" horiz-adv-x="443" 
d="M387 133q8 -13 8 -21q0 -15 -22 -37q-37 -38 -88 -61.5t-99 -23.5q-68 0 -106.5 47t-38.5 129q0 70 22.5 134.5t60.5 114t89.5 78.5t110.5 29q44 0 69.5 -14.5t25.5 -39.5q0 -11 -5 -24t-13 -27l-7 -11q-29 16 -59.5 25.5t-53.5 9.5q-30 0 -56 -19t-45.5 -52.5t-30.5 -79
t-11 -97.5q0 -62 20.5 -91t64.5 -29q32 0 67 16.5t88 57.5z" />
    <glyph glyph-name="d" unicode="d" horiz-adv-x="587" 
d="M546 134q10 -11 10 -22q0 -18 -16 -37q-34 -42 -67.5 -63.5t-63.5 -21.5q-50 0 -50 75q0 16 2.5 42.5t6.5 53.5q-49 -84 -106 -127.5t-117 -43.5q-50 0 -77 35.5t-27 100.5q0 75 24 146.5t64 127t90.5 89t104.5 33.5q27 0 51.5 -12.5t49.5 -37.5l46 227q-21 1 -31.5 1
h-31.5h-44l3 16q4 21 11 28t29 12q13 3 29.5 6t34 5.5t32.5 4t25 1.5q20 0 28.5 -8t8.5 -28q0 -9 -1 -18t-3 -20.5t-5 -27t-8 -36.5l-101 -432q-6 -27 -10 -55t-4 -46q0 -28 11 -28q10 0 35.5 20.5t54.5 52.5zM406 390q-21 26 -44.5 42t-42.5 16q-34 0 -67 -24t-59 -63
t-42 -89t-16 -101q0 -95 56 -95q26 0 57.5 23.5t61 60t52.5 81.5t32 88z" />
    <glyph glyph-name="e" unicode="e" horiz-adv-x="471" 
d="M400 132q8 -12 8 -20q0 -16 -22 -38q-19 -19 -43 -34.5t-50.5 -26.5t-54 -17t-52.5 -6q-71 0 -108 44.5t-37 129.5q0 73 23.5 138t63 114t92.5 77.5t113 28.5q50 0 79 -27t29 -73q0 -77 -80 -137.5t-231 -97.5q0 -60 19.5 -87t64.5 -27q39 0 80.5 17.5t96.5 55.5z
M138 250q49 14 88.5 32.5t67.5 39.5t43 44t15 46t-13 36t-36 13q-26 0 -45.5 -9t-44.5 -33q-26 -24 -46.5 -70.5t-28.5 -98.5z" />
    <glyph glyph-name="f" unicode="f" horiz-adv-x="411" 
d="M175 443h-107l7 35q6 5 18 10t28 9.5t34 7.5t35 5l4 20q23 116 79 176.5t141 60.5q45 0 73.5 -17.5t28.5 -44.5q0 -33 -50 -58q-19 26 -38.5 37.5t-45.5 11.5q-18 0 -32.5 -8.5t-26.5 -28t-21.5 -51t-18.5 -77.5l-4 -20h122q23 0 23 -12q0 -9 -9 -27t-20 -29h-133
l-87 -415q-18 -86 -40 -135t-54 -78q-29 -26 -62.5 -38t-78.5 -12q-48 0 -75.5 16.5t-27.5 45.5q0 18 16 37l21 24q29 -23 58.5 -36t55.5 -13q15 0 28 10t24.5 32.5t22.5 58t22 87.5z" />
    <glyph glyph-name="g" unicode="g" horiz-adv-x="494" 
d="M301 522q35 0 72 -6.5t67 -6.5q11 0 21.5 0.5t22.5 1t27 2l35 3.5l-4 -21q-12 -58 -65 -58q-12 0 -27.5 5t-30.5 13q14 -29 14 -63q0 -67 -41.5 -119.5t-121.5 -86.5q-29 -12 -46.5 -20.5t-27.5 -14.5t-13.5 -11t-3.5 -11q0 -7 4 -13.5t16 -14.5t34 -19t58 -27
q35 -16 59 -30t39 -28.5t21.5 -29.5t6.5 -33q0 -37 -21 -68t-58 -53.5t-88 -35t-111 -12.5q-50 0 -91 10t-70 28.5t-45 44t-16 57.5q0 51 45 88t145 66q-19 19 -19 40q0 50 80 82q-46 10 -71 42t-25 82q0 43 18.5 82.5t50 69.5t73 47.5t87.5 17.5zM163 21
q-82 -23 -117.5 -47t-35.5 -56q0 -37 39 -59t104 -22q36 0 66.5 6t53.5 16.5t36 24.5t13 30q0 9 -3.5 17.5t-13.5 17.5t-27.5 19t-44.5 22zM224 240q25 0 48 12t40 32t27.5 47t10.5 56q0 72 -66 72q-26 0 -49 -11.5t-40 -31t-27.5 -45.5t-10.5 -55q0 -76 67 -76z" />
    <glyph glyph-name="h" unicode="h" horiz-adv-x="597" 
d="M551 134q10 -11 10 -22q0 -18 -16 -37q-74 -85 -148 -85q-26 0 -40 16t-14 45q0 8 2.5 23.5t9.5 45.5t19 78t31 121q8 29 11.5 51t3.5 33q0 35 -26 35q-32 0 -71.5 -32t-76 -82.5t-65.5 -112.5t-41 -123l-13 -67q-5 -21 -34 -21h-61l158 699q-9 1 -21 1h-42h-44l3 16
q4 20 10.5 27.5t29.5 12.5q11 3 27.5 6t34 5.5t33.5 4t26 1.5q20 0 28.5 -8t8.5 -28q0 -14 -4 -35t-10 -44l-87 -337q26 45 56.5 82.5t63 63.5t64.5 40.5t61 14.5q85 0 85 -84q0 -21 -5.5 -52.5t-14.5 -65.5q-31 -111 -44 -164t-13 -65q0 -13 8 -13q4 0 16 7t26.5 17.5
t29 22.5t23.5 22z" />
    <glyph glyph-name="i" unicode="i" horiz-adv-x="325" 
d="M269 134q10 -11 10 -22q0 -15 -18 -37q-32 -38 -73.5 -61.5t-75.5 -23.5q-54 0 -54 59q0 10 3 26t9 41.5t16 61.5t25 87l51 180q-13 1 -27.5 1h-38.5h-41l4 19q4 19 11.5 25.5t30.5 12.5q11 3 26.5 6t31 5t29.5 3.5t23 1.5q41 0 41 -38q0 -17 -7 -52t-19 -80
q-18 -65 -30.5 -111t-21 -76.5t-12.5 -47.5t-4 -24q0 -12 6 -12q4 0 15.5 6.5t25 16.5t28 22t25.5 24zM232 629q-48 0 -48 50q0 37 24.5 63t59.5 26q48 0 48 -50q0 -37 -24.5 -63t-59.5 -26z" />
    <glyph glyph-name="j" unicode="j" horiz-adv-x="286" 
d="M51 446l3 19q2 10 4 16t6 9.5t11.5 6.5t19.5 6q10 3 25.5 6t31 5t30.5 3.5t25 1.5q38 0 38 -44q0 -12 -6 -48t-16.5 -87.5t-25.5 -116t-32 -134.5q-41 -166 -105 -245t-158 -79q-34 0 -56.5 17.5t-22.5 43.5q0 17 12.5 35.5t33.5 33.5q18 -22 34 -31.5t34 -9.5
q22 0 38 8.5t30.5 31.5t29 63.5t32.5 104.5q14 49 27.5 102.5t25 104.5t20.5 96.5t14 79.5q-11 1 -25 1h-37h-41zM226 629q-48 0 -48 50q0 37 24.5 63t59.5 26q48 0 48 -50q0 -37 -24.5 -63t-59.5 -26z" />
    <glyph glyph-name="k" unicode="k" horiz-adv-x="530" 
d="M184 264q48 1 94.5 17t80.5 43q29 23 42.5 46t13.5 51q0 35 -34 35q-25 0 -56 -17.5t-59.5 -45.5t-50.5 -62t-31 -67zM510 48q-6 -31 -25.5 -44.5t-57.5 -13.5q-56 0 -110 50.5t-97 142.5l-12 25q-6 -1 -12 -1h-17l-39 -188q-3 -11 -10 -15t-24 -4h-59l157 699
q-11 1 -25.5 1h-37.5h-44l3 16q4 21 11 28t29 12q11 3 28 6t34.5 5.5t33.5 4t25 1.5q20 0 28.5 -8t8.5 -28q0 -14 -4 -35.5t-10 -43.5l-66 -245q41 51 92 80t99 29q43 0 67.5 -23t24.5 -64q0 -46 -23 -84t-72 -74q-52 -38 -119 -56q46 -75 98 -116.5t100 -41.5h28z" />
    <glyph glyph-name="l" unicode="l" horiz-adv-x="307" 
d="M257 134q10 -11 10 -22q0 -18 -16 -37q-74 -85 -148 -85q-26 0 -40 16t-14 45q0 11 4.5 34.5t15.5 67.5l126 546q-11 1 -25.5 1h-37.5h-44l3 16q4 20 10.5 27.5t29.5 12.5q11 3 27.5 6t34.5 5.5t34 4t25 1.5q20 0 28.5 -8t8.5 -28q0 -16 -9 -55l-119 -517
q-7 -30 -10.5 -48t-3.5 -26q0 -13 8 -13q4 0 14.5 6.5t24 16.5t27 22.5t24.5 23.5z" />
    <glyph glyph-name="m" unicode="m" horiz-adv-x="891" 
d="M845 134q10 -11 10 -22q0 -18 -16 -37q-74 -85 -148 -85q-26 0 -40 16t-14 45q0 9 3 25t10 46.5t19 78t30 118.5q7 26 11 50.5t4 35.5q0 32 -24 32q-18 0 -41 -14.5t-48 -40t-49.5 -59.5t-46 -72.5t-38 -79.5t-23.5 -80l-13 -70q-5 -21 -34 -21h-61l77 314q9 36 12.5 59
t3.5 34q0 30 -24 30q-28 0 -65.5 -32.5t-74 -82.5t-65.5 -111t-40 -118l-14 -72q-5 -21 -34 -21h-61l59 256q8 36 14.5 64t11 50.5t8 40.5t5.5 34q-13 1 -27 1h-37h-41l3 21q2 18 9 24t31 12q26 7 57.5 11.5t50.5 4.5q41 0 41 -41q0 -18 -9 -59.5t-24 -96.5q26 45 56.5 82
t62 63t63 40.5t59.5 14.5q33 0 51 -22t18 -62q0 -19 -4 -44.5t-11 -53.5q26 41 55.5 74.5t60 57.5t60.5 37t57 13q36 0 56 -22t20 -63q0 -18 -4 -45.5t-15 -68.5q-29 -106 -43.5 -161t-14.5 -71q0 -13 8 -13q4 0 16 7t26.5 17.5t29 22.5t23.5 22z" />
    <glyph glyph-name="n" unicode="n" horiz-adv-x="616" 
d="M570 134q10 -11 10 -22q0 -18 -16 -37q-74 -85 -148 -85q-26 0 -40 16t-14 45q0 8 2.5 23.5t9.5 45.5t19 78t31 121q8 29 11.5 51t3.5 33q0 35 -26 35q-32 0 -71.5 -32t-76 -82.5t-65.5 -113t-41 -122.5l-13 -67q-5 -21 -34 -21h-61l59 256q8 36 14.5 64t11 50.5t8 40.5
t5.5 34q-13 1 -27 1h-37h-41l3 21q2 18 9 24t31 12q26 7 57.5 11.5t50.5 4.5q41 0 41 -41q0 -18 -9 -59.5t-24 -96.5q26 45 56.5 82t62.5 63.5t64 40.5t61 14q85 0 85 -84q0 -21 -5.5 -52.5t-14.5 -65.5q-30 -112 -43.5 -164.5t-13.5 -64.5q0 -13 8 -13q4 0 16 7t26.5 17.5
t29 22.5t23.5 22z" />
    <glyph glyph-name="o" unicode="o" horiz-adv-x="544" 
d="M224 62q37 0 70.5 21.5t58.5 57.5t39.5 84.5t14.5 102.5q0 122 -87 122q-37 0 -70.5 -21.5t-58.5 -57.5t-39.5 -84.5t-14.5 -102.5q0 -122 87 -122zM210 -10q-81 0 -125 47.5t-44 135.5q0 72 23 135.5t63 111t93.5 75t114.5 27.5q80 0 124 -48t44 -136q0 -71 -23 -134.5
t-63 -111t-93 -75t-114 -27.5z" />
    <glyph glyph-name="p" unicode="p" horiz-adv-x="573" 
d="M-55 -226l13 44q16 8 32.5 14.5t28.5 10.5q57 245 88.5 391.5t41.5 210.5q-13 1 -27 1h-37h-41l3 21q2 18 9 24t31 12q26 7 57.5 11.5t50.5 4.5q37 0 37 -41q0 -29 -28 -138q51 87 108 134.5t111 47.5q53 0 81 -41t28 -117q0 -69 -21.5 -136t-59.5 -120t-89.5 -85.5
t-111.5 -32.5q-61 0 -105 37l-41 -186l97 -13q22 -3 22 -20q0 -7 -2 -12t-11 -22h-265zM160 99q25 -17 53 -26.5t52 -9.5q33 0 64 23.5t55 63t38 90.5t14 105q0 93 -49 93q-29 0 -64 -29.5t-67 -77t-58 -108.5t-38 -124z" />
    <glyph glyph-name="q" unicode="q" horiz-adv-x="554" 
d="M187 -226l12 42q30 11 101 28q3 23 9 59t14 77.5t18 85.5t21 85q-47 -78 -102 -119.5t-115 -41.5q-48 0 -76 39.5t-28 106.5q0 76 22 146t59.5 123t86.5 85t103 32q68 0 121 -58l7 16q8 17 21 24t38 7h41q-13 -28 -26.5 -65t-27.5 -87q-12 -43 -24.5 -91.5t-20.5 -89.5
q-10 -47 -19 -94t-15.5 -90.5t-11.5 -82t-7 -68.5l43 -11q14 -4 18.5 -8.5t4.5 -12.5q0 -16 -13 -37h-254zM406 390q-20 26 -48 42t-51 16q-34 0 -65 -24t-55 -63t-38 -88.5t-14 -101.5q0 -98 56 -98q25 0 57 24t61.5 61t52.5 82.5t32 88.5z" />
    <glyph glyph-name="r" unicode="r" horiz-adv-x="428" 
d="M56 0l74 319q3 13 6.5 29t6.5 33t6 33.5t5 30.5q-12 1 -27 1h-40h-41l3 21q2 18 9 24t31 12q13 3 28 6t30.5 5.5t29.5 3.5t24 1q36 0 36 -44q0 -9 -3 -28.5t-9 -45.5t-13.5 -57t-16.5 -63q13 31 32.5 72.5t44.5 79t55.5 63.5t65.5 26q23 0 36 -12t13 -34q0 -9 -3.5 -23.5
t-9.5 -32.5l-5 -15q-17 5 -32.5 7.5t-26.5 2.5q-19 0 -36.5 -14t-40.5 -46q-65 -94 -97 -175q-11 -28 -18.5 -56.5t-15.5 -71.5l-6 -31q-5 -21 -34 -21h-61z" />
    <glyph glyph-name="s" unicode="s" horiz-adv-x="413" 
d="M361 401q-36 26 -63 36.5t-54 10.5q-33 0 -53 -14.5t-20 -38.5q0 -11 4 -20.5t13.5 -21t26.5 -25.5t44 -33q55 -39 75 -68t20 -63q0 -35 -16.5 -66.5t-43.5 -55.5t-63 -38t-75 -14q-31 0 -58 7.5t-47.5 20t-32 30t-11.5 37.5q0 14 6 25.5t21 24.5l23 20q35 -51 66 -70.5
t69 -19.5q72 0 72 61q0 29 -17.5 53t-66.5 59q-53 38 -74 67t-21 63q0 52 52 97q32 27 72.5 42t83.5 15q45 0 70 -15t25 -43q0 -24 -20 -53z" />
    <glyph glyph-name="t" unicode="t" horiz-adv-x="391" 
d="M347 146q10 -10 10 -23q0 -18 -18 -41t-46.5 -43.5t-64 -34.5t-69.5 -14q-44 0 -67 24t-23 69q0 13 3.5 37t13.5 69l54 254h-108l7 35q7 5 20 10.5t29 10t33.5 7.5t34.5 4l18 66q20 73 84 73h14l-29 -138h128q23 0 23 -12q0 -9 -9 -27t-20 -29h-137l-49 -231
q-5 -23 -8 -39t-5 -27t-2.5 -18.5t-0.5 -14.5q0 -37 31 -37q22 0 61 23.5t79 60.5z" />
    <glyph glyph-name="u" unicode="u" horiz-adv-x="611" 
d="M573 134q10 -11 10 -22q0 -16 -16 -37q-30 -38 -65.5 -61.5t-64.5 -23.5q-51 0 -51 75q0 15 2.5 42t6.5 54q-48 -82 -105.5 -126.5t-116.5 -44.5q-48 0 -72.5 27t-24.5 78q0 14 2 29.5t6 36t11 46t18 60.5q17 60 27.5 100t16.5 78q-13 1 -28 1h-41h-41l3 21
q2 16 9.5 22.5t31.5 13.5t56 11.5t51 4.5q51 0 51 -45q0 -24 -15.5 -89t-47.5 -170q-8 -26 -12.5 -51t-4.5 -42q0 -24 12 -37.5t32 -13.5q27 0 59 23.5t61.5 60.5t52.5 83t32 91l26 132q5 28 18 39t41 11h51q-22 -81 -35.5 -132.5t-22 -84t-13.5 -52.5t-9 -39
q-14 -67 -14 -101q0 -28 11 -28q10 0 35.5 20.5t54.5 52.5z" />
    <glyph glyph-name="v" unicode="v" horiz-adv-x="516" 
d="M167 17q1 9 1 16.5v15.5q0 47 -4.5 98t-13 102t-20 99.5t-26.5 90.5l-91 7l3 19q3 16 12 23.5t35 15.5q27 8 45.5 11.5t32.5 3.5q35 0 55 -54q9 -26 17 -63.5t14 -84.5t10 -101.5t4 -114.5q31 33 59 72.5t49 79.5t33 77t12 65q0 26 -10 55t-27 50q28 22 66 22
q67 0 67 -77q0 -34 -12 -75t-32.5 -85t-48.5 -88t-60 -83t-67 -71.5t-70 -52.5z" />
    <glyph glyph-name="w" unicode="w" horiz-adv-x="773" 
d="M444 17q0 39 -1 70t-3.5 59.5t-6 57.5t-9.5 66q-19 -46 -43.5 -89t-52.5 -79.5t-57.5 -65t-58.5 -46.5l-37 27q0 118 -16.5 219t-51.5 202q-20 2 -40.5 4t-53.5 4l3 19q3 16 12 23.5t35 15.5q52 15 78 15q20 0 33 -14t22 -39q12 -33 22 -77t17 -93.5t11 -102.5t4 -103
q27 34 51 75t42 82t28 79.5t10 67.5q0 9 -4 23.5t-10 30t-13 29.5t-14 23q11 11 28 16.5t35 5.5q15 0 25 -3.5t18 -13t14 -25.5t12 -40q8 -35 16 -80.5t14.5 -94t11 -95t5.5 -81.5q28 33 52 73.5t42 82.5t28 82.5t10 73.5q0 23 -11 52.5t-26 48.5q16 12 31 17t35 5
q67 0 67 -77q0 -55 -23 -122t-60.5 -131.5t-85.5 -119t-97 -84.5z" />
    <glyph glyph-name="x" unicode="x" horiz-adv-x="559" 
d="M526 78q0 -10 -1.5 -17t-5.5 -12t-11.5 -10t-19.5 -11q-31 -16 -62.5 -26t-50.5 -10q-22 0 -35 12t-24 41l-55 151q-32 -54 -61 -94.5t-54 -65.5t-48 -35.5t-52 -10.5q-24 0 -38 13t-14 36q0 34 17 65q12 -12 29 -20.5t31 -8.5q29 0 83 69q25 32 45 58.5t37 52.5l-74 181
l-105 -9q-6 15 -6 23q0 28 52 47q27 11 49 16.5t36 5.5q12 0 21 -3t16.5 -11t14.5 -22.5t16 -37.5l45 -119q23 40 47 74.5t45 57.5q31 35 57.5 49.5t59.5 14.5q24 0 38 -13t14 -36q0 -14 -5 -25t-20 -30q-19 19 -48 19q-17 0 -38 -16.5t-49 -52.5q-23 -30 -39.5 -52.5
t-35.5 -49.5l75 -190q21 2 42 5t39 6l43 7v-16z" />
    <glyph glyph-name="y" unicode="y" horiz-adv-x="535" 
d="M23 465q2 15 11.5 23t35.5 16q48 15 77 15q22 0 37 -14t27 -47q13 -34 23 -73t17.5 -79.5t11.5 -81.5t4 -78q0 -17 -2 -45t-6 -63q76 112 116 204.5t40 152.5q0 24 -11 53t-30 52q27 22 66 22q67 0 67 -77q0 -44 -17 -99.5t-47 -117.5t-72.5 -127t-93.5 -126
q-38 -45 -78.5 -83t-89.5 -74q-35 -26 -71 -39.5t-68 -13.5q-56 0 -56 51q0 35 29 67q19 -17 31 -23t29 -6q32 0 71.5 18.5t68.5 47.5q13 13 22.5 29.5t15 38.5t8 51.5t2.5 70.5q0 39 -6 83t-16 88t-24.5 84.5t-30.5 72.5q-20 2 -46 4t-48 4z" />
    <glyph glyph-name="z" unicode="z" horiz-adv-x="472" 
d="M398 139q34 -11 34 -54q0 -44 -32 -69.5t-89 -25.5q-23 0 -50 4.5t-55.5 13t-57.5 20.5t-54 27l-23 -57q-8 -2 -12 -2h-8q-49 0 -49 49v16l307 331q-49 20 -84 29t-62 9q-6 0 -14.5 -0.5t-14.5 -1.5l-35 -76l-24 1q-19 0 -19 36q0 63 26.5 96.5t77.5 33.5q19 0 43 -5.5
t49.5 -15.5t52 -24t50.5 -31l37 74q4 1 13 1q54 0 54 -44v-18l-321 -349q45 -12 92.5 -18.5t89.5 -6.5q46 0 62 62z" />
    <glyph glyph-name="braceleft" unicode="{" horiz-adv-x="393" 
d="M235 -133q-5 -18 -19 -26t-42 -8q-114 0 -114 116q0 35 10.5 77t36.5 106q17 44 24.5 69t7.5 40q0 28 -14 46.5t-39 24.5l11 48q29 7 48 17.5t29.5 30.5t14.5 51t4 79q0 60 13.5 107.5t38.5 81t60.5 51.5t80.5 18q35 0 35 -16q0 -12 -11 -37l-6 -14h-35q-48 0 -73 -55
t-25 -158q0 -77 -22.5 -119.5t-73.5 -62.5q44 -32 44 -78q0 -26 -7 -55t-23 -69q-15 -38 -24.5 -63t-14.5 -43.5t-7 -33t-2 -30.5q0 -33 12 -47.5t40 -14.5h50z" />
    <glyph glyph-name="bar" unicode="|" horiz-adv-x="288" 
d="M15 -120l183 883h75l-183 -883h-75z" />
    <glyph glyph-name="braceright" unicode="}" horiz-adv-x="394" 
d="M-11 -100h35q54 0 78.5 46.5t24.5 151.5q0 51 3.5 84.5t13.5 57t29 40.5t50 37q-44 29 -44 80q0 31 12 64.5t26 68.5t26 70t12 70q0 59 -58 59h-47l8 33q8 34 61 34q115 0 115 -113q0 -36 -11.5 -76t-25.5 -78t-25.5 -70t-11.5 -50q0 -46 57 -68l-11 -48q-33 -14 -53 -28
t-31 -36t-14.5 -54.5t-3.5 -83.5q0 -128 -50 -193t-147 -65q-35 0 -35 16q0 10 11 37z" />
    <glyph glyph-name="asciitilde" unicode="~" horiz-adv-x="623" 
d="M514 406q23 -10 23 -32q0 -20 -10 -40t-27 -36.5t-40 -27t-49 -10.5q-28 0 -52.5 9.5t-61.5 32.5q-59 37 -83 37q-22 0 -40 -18.5t-37 -60.5l-28 12q-23 10 -23 32q0 20 10 40t27 36.5t40 27t49 10.5q28 0 52.5 -9.5t61.5 -32.5q59 -37 83 -37q22 0 40 18.5t37 60.5z" />
    <glyph glyph-name="uni00A0" unicode="&#xa0;" horiz-adv-x="215" 
 />
    <glyph glyph-name="exclamdown" unicode="&#xa1;" horiz-adv-x="303" 
d="M200 331q-2 -38 -8.5 -93.5t-15.5 -115.5t-19.5 -118t-20.5 -103q-8 -38 -17.5 -62.5t-23 -39.5t-31 -21t-42.5 -6q-6 0 -16.5 1t-15.5 2q24 58 48 128.5t44 143t35.5 141.5t23.5 126zM198 528q45 0 45 -45q0 -35 -23 -59t-56 -24q-45 0 -45 45q0 35 23 59t56 24z" />
    <glyph glyph-name="cent" unicode="&#xa2;" horiz-adv-x="623" 
d="M181 -187l55 222q-34 7 -62 25t-48.5 45t-31.5 61t-11 72q0 64 20 120.5t56.5 100.5t87 73.5t111.5 38.5l40 187l76 9l-48 -191q54 -2 87.5 -20.5t33.5 -45.5q0 -29 -19 -54l-8 -10q-57 35 -114 46l-49 -197l-41 -184q22 0 42.5 4.5t41.5 14.5t43 26t49 39l16 -17
q8 -8 8 -18q0 -18 -23 -39q-82 -79 -194 -88l-46 -211zM300 295l42 198q-37 -6 -68 -26t-53 -51t-34 -71t-12 -86q0 -52 21.5 -88t60.5 -51z" />
    <glyph glyph-name="sterling" unicode="&#xa3;" horiz-adv-x="623" 
d="M267 304q-17 -70 -39 -125.5t-48 -96.5q43 0 87 0.5t86 0.5q27 0 48.5 1t41.5 3.5t39.5 7t42.5 10.5q2 -5 2.5 -11t0.5 -16q0 -86 -113 -86q-36 0 -72 4.5t-70.5 10.5t-69 11.5t-67.5 8.5q-49 -49 -104 -49q-39 0 -39 45q0 20 7 41t20 36q13 -7 35.5 -11t42.5 -4
q9 11 25.5 63t44.5 156h-92l23 67l86 -4q23 88 51 150t62.5 101t77 57t93.5 18q66 0 99.5 -28.5t33.5 -82.5q0 -34 -16.5 -56t-42.5 -22h-31q2 14 2.5 22t0.5 23q0 70 -68 70q-31 0 -54.5 -9.5t-42.5 -37.5t-35.5 -77.5t-34.5 -130.5l203 8l-26 -68h-190z" />
    <glyph glyph-name="currency" unicode="&#xa4;" horiz-adv-x="623" 
d="M481 113l-72 82q-64 -47 -139 -47q-79 0 -121 47l-109 -83l-33 48l117 78q-7 20 -7 51q0 41 13.5 79.5t38.5 70.5l-87 82l47 44l78 -89q61 50 141 50q77 0 119 -42l109 85l33 -48l-115 -77q11 -28 11 -58q0 -42 -14.5 -81.5t-42.5 -72.5l80 -75zM283 215q30 0 55.5 12.5
t45 34t30.5 51t11 62.5q0 41 -24 63t-68 22q-30 0 -56 -12t-44.5 -32.5t-29.5 -49t-11 -61.5q0 -42 24.5 -66t66.5 -24z" />
    <glyph glyph-name="yen" unicode="&#xa5;" horiz-adv-x="623" 
d="M88 0l13 40q16 6 44.5 15t54.5 17l30 141h-134l-4 64l149 -5l-25 63h-125l-4 64l105 -4l-85 213q-40 14 -51 21t-11 15q0 5 4 15t11 22h262l-13 -41q-14 -9 -39 -18.5t-57 -17.5l92 -264l197 271l-55 13q-20 4 -20 19q0 5 4 16t10 22h242l-12 -39q-6 -4 -15.5 -9
t-21 -9.5t-22.5 -8.5t-20 -6l-161 -215l118 5l-26 -64h-136l-47 -63l170 6l-26 -65h-159l-31 -143l74 -12q21 -3 21 -18q0 -6 -3.5 -16.5t-11.5 -23.5h-286z" />
    <glyph glyph-name="brokenbar" unicode="&#xa6;" horiz-adv-x="288" 
d="M125 413l73 350h75l-73 -350h-75zM15 -120l72 350h75l-72 -350h-75z" />
    <glyph glyph-name="section" unicode="&#xa7;" horiz-adv-x="496" 
d="M82 92q0 -111 99 -111q45 0 74 23t29 58q0 64 -120 148q-68 49 -97 92.5t-29 98.5t24 106.5t63.5 91t90 63t103.5 23.5q56 0 89 -27t33 -72q0 -32 -17 -53.5t-42 -21.5h-9q0 49 -27.5 80t-71.5 31q-39 0 -66 -18.5t-27 -50.5t31.5 -69t100.5 -88q34 -25 56.5 -46.5
t36 -43t19 -45t5.5 -52.5q0 -62 -21 -115.5t-57.5 -93t-85.5 -62.5t-105 -23q-35 0 -64.5 7.5t-51 21.5t-33.5 33t-12 42q0 30 18 51.5t44 21.5h20zM341 88q12 15 18.5 42.5t6.5 63.5q0 46 -25 84.5t-84 84.5q-37 28 -61.5 50t-39 41t-21 35.5t-6.5 34.5q-28 -42 -28 -111
q0 -21 4 -36.5t16.5 -32t35.5 -36t60 -47.5q28 -21 50.5 -44t39 -46t25.5 -44t9 -39z" />
    <glyph glyph-name="dieresis" unicode="&#xa8;" horiz-adv-x="616" 
d="M269 700q0 -32 -22.5 -54t-54.5 -22q-21 0 -33.5 11.5t-12.5 31.5q0 32 22.5 54t55.5 22q21 0 33 -11.5t12 -31.5zM469 700q0 -32 -22.5 -54t-54.5 -22q-21 0 -33.5 11.5t-12.5 31.5q0 32 22.5 54t55.5 22q21 0 33 -11.5t12 -31.5z" />
    <glyph glyph-name="copyright" unicode="&#xa9;" horiz-adv-x="782" 
d="M521 205q0 -25 -34.5 -41.5t-87.5 -16.5q-94 0 -141.5 47.5t-47.5 140.5q0 48 14 87t39.5 67t62 43t80.5 15q59 0 99 -19q1 -8 1 -20v-31q0 -37 -7.5 -50t-27.5 -13h-13l-13 70q-11 5 -21 6.5t-26 1.5q-56 0 -86.5 -37.5t-30.5 -106.5q0 -72 32.5 -105t101.5 -33
q29 0 57 6.5t49 17.5v-29zM391 -17q-79 0 -145 27t-114 75t-75 114t-27 145t27 145t75 114t114 75t145 27t145 -27t114 -75t75 -114t27 -145t-27 -145t-75 -114t-114 -75t-145 -27zM391 38q66 0 121 22.5t94.5 63t61.5 96.5t22 124t-22 124t-61.5 96.5t-94.5 63t-121 22.5
t-121 -22.5t-94.5 -63t-61.5 -96.5t-22 -124t22 -124t61.5 -96.5t94.5 -63t121 -22.5z" />
    <glyph glyph-name="ordfeminine" unicode="&#xaa;" horiz-adv-x="431" 
d="M392 463q9 -11 9 -19q0 -6 -2.5 -12t-10.5 -17q-38 -53 -81 -53q-40 0 -40 49q0 10 1 20t4 22q-33 -44 -67 -67.5t-64 -23.5q-33 0 -53 26t-20 71q0 48 14.5 92.5t39.5 78t57 54t67 20.5q21 0 39 -8.5t29 -23.5q7 14 16 19.5t27 5.5h38q-20 -42 -36.5 -88t-27.5 -97
q-5 -24 -8 -47.5t-3 -33.5q0 -8 7 -8t24.5 17t30.5 35zM294 623q-9 11 -23.5 16t-27.5 5q-19 0 -37.5 -14t-33 -37t-23.5 -52.5t-9 -59.5q0 -26 6.5 -37.5t22.5 -11.5q17 0 34.5 12t33.5 32.5t29 47.5t20 58q2 8 4 18t4 23zM40 243q7 34 20 48t39 14h122q56 0 88.5 2.5
t55.5 9.5q1 -3 2 -8.5t1 -10.5q0 -29 -27 -42t-68 -13h-233z" />
    <glyph glyph-name="guillemotleft" unicode="&#xab;" horiz-adv-x="515" 
d="M217 85q-9 -7 -12.5 -8.5t-9.5 -1.5q-11 0 -24 12q-17 15 -35.5 34t-37 38.5t-35 38t-28.5 33.5l11 48q57 51 105 90.5t79 59.5q14 10 27 10q15 0 29 -15l9 -9q-27 -26 -52 -51t-45.5 -46.5t-36 -39t-23.5 -28.5q11 -23 36 -66t55 -90zM417 85q-9 -7 -12.5 -8.5
t-9.5 -1.5q-11 0 -24 12q-17 15 -35.5 34t-37 38.5t-35 38t-28.5 33.5l11 48q57 51 105 90.5t79 59.5q14 10 27 10q15 0 29 -15l9 -9q-27 -26 -52 -51t-45.5 -46.5t-36 -39t-23.5 -28.5q11 -23 36 -66t55 -90z" />
    <glyph glyph-name="logicalnot" unicode="&#xac;" horiz-adv-x="623" 
d="M442 238v146h-338v70h415v-216h-77z" />
    <glyph glyph-name="uni00AD" unicode="&#xad;" horiz-adv-x="374" 
d="M86 214q-26 0 -36 5.5t-10 19.5q0 10 2.5 23t8.5 34h236q27 0 37 -5.5t10 -19.5q0 -10 -2.5 -23t-8.5 -34h-237z" />
    <glyph glyph-name="registered" unicode="&#xae;" horiz-adv-x="582" 
d="M264 527q65 6 65 51q0 39 -52 39q-9 0 -13 -2v-88zM291 251q-56 0 -104 19.5t-83 54.5t-54.5 83t-19.5 104t19.5 104t54.5 83t83 54.5t104 19.5t104 -19.5t83 -54.5t54.5 -83t19.5 -104t-19.5 -104t-54.5 -83t-83 -54.5t-104 -19.5zM291 296q46 0 84 16t66 44.5t43.5 68
t15.5 87.5t-15.5 87.5t-43.5 68t-66 44.5t-84 16t-84.5 -16t-66 -44.5t-43 -68t-15.5 -87.5t15.5 -87.5t43 -68t66 -44.5t84.5 -16zM428 394q-14 -15 -31 -15q-39 0 -112 116h-22v-73l18 -3q13 -2 17 -5t4 -10q0 -3 -0.5 -8t-1.5 -11h-129l4 24q16 9 32 13v192l-21 4
q-13 3 -13 14q0 4 1.5 9t3.5 7q23 4 53 6.5t49 2.5q106 0 106 -72q0 -52 -54 -78q21 -29 50 -57.5t54 -45.5z" />
    <glyph glyph-name="macron" unicode="&#xaf;" horiz-adv-x="616" 
d="M191 633q-34 0 -34 25q0 12 14 50h253q34 0 34 -25q0 -12 -14 -50h-253z" />
    <glyph glyph-name="degree" unicode="&#xb0;" horiz-adv-x="528" 
d="M266 440q42 0 64.5 24.5t22.5 70.5q0 45 -24 70t-67 25q-42 0 -64.5 -24.5t-22.5 -70.5q0 -45 24 -70t67 -25zM426 540q0 -36 -12 -66t-34 -51.5t-53 -33.5t-68 -12q-72 0 -114.5 41.5t-42.5 111.5q0 36 12 66t34 51.5t53 33.5t68 12q72 0 114.5 -41.5t42.5 -111.5z" />
    <glyph glyph-name="plusminus" unicode="&#xb1;" horiz-adv-x="623" 
d="M273 156v180h-169v67h169v180h77v-180h169v-67h-169v-180h-77zM104 1v70h415v-70h-415z" />
    <glyph glyph-name="uni00B2" unicode="&#xb2;" horiz-adv-x="447" 
d="M360 420q-5 -25 -20 -36t-44 -11h-215q-20 0 -32.5 10.5t-12.5 27.5q0 16 16 31l89 71q52 42 86 71t53.5 51t27 38.5t7.5 32.5q0 22 -15 35.5t-40 13.5q-35 0 -67 -24t-50 -63q-24 9 -33.5 17.5t-9.5 21.5q0 23 27 54q26 29 64.5 45.5t82.5 16.5q54 -1 87.5 -30t33.5 -75
q0 -27 -11.5 -53t-40 -57.5t-78 -71.5t-124.5 -95h224z" />
    <glyph glyph-name="uni00B3" unicode="&#xb3;" horiz-adv-x="447" 
d="M45 422h33q88 0 137 26.5t49 73.5q0 22 -13.5 34t-37.5 12q-12 0 -29 -3.5t-37 -9.5l-7 54q75 16 115.5 43t40.5 62q0 21 -12.5 32.5t-35.5 11.5q-58 0 -103 -67q-30 19 -30 36q0 18 13 35t33.5 30.5t47 22t53.5 8.5q51 0 80.5 -25t29.5 -67q0 -67 -81 -120
q54 -25 54 -86q0 -35 -18 -65t-49.5 -52t-74 -35t-91.5 -13q-38 0 -52.5 9.5t-14.5 35.5v17z" />
    <glyph glyph-name="acute" unicode="&#xb4;" horiz-adv-x="616" 
d="M229 604q-15 10 -15 24q0 13 18 37l115 152l27 -15q28 -15 28 -40q0 -18 -42.5 -62t-118.5 -105z" />
    <glyph glyph-name="mu" unicode="&#xb5;" horiz-adv-x="597" 
d="M57 81l71 385q4 23 10.5 31.5t22.5 13.5q11 3 32 6t39 5l-24 -95l-38 -190q-6 -32 -6 -57q0 -51 20.5 -81t53.5 -30q55 0 94.5 58.5t61.5 173.5l32 165q5 24 11 32t22 13q11 3 32.5 6t41.5 5l-25 -95l-36 -161q-9 -42 -13 -69.5t-4 -47.5q0 -71 40 -71q17 0 36.5 9.5
t45.5 29.5q10 -15 10 -32q0 -14 -12.5 -30.5t-31.5 -31t-41 -24t-40 -9.5q-35 0 -51.5 25t-16.5 79v20.5t1 14.5q-35 -67 -80.5 -103.5t-93.5 -36.5q-78 0 -107 61l-6 -100q-1 -15 -2.5 -34t-4 -38.5t-4.5 -36.5t-4 -27q-5 -23 -11 -31.5t-22 -13.5q-10 -3 -31 -6t-39 -5z
" />
    <glyph glyph-name="paragraph" unicode="&#xb6;" horiz-adv-x="589" 
d="M250 272q-21 -16 -41 -26q-30 0 -55 12t-43 33.5t-28 52t-10 67.5q0 63 23 115t65 89t101 57.5t130 20.5h197l-4 -25q-3 -23 -23 -32.5t-68 -11.5l-101 -507q-19 -96 -64.5 -150t-106.5 -54q-16 0 -23 7q-54 -61 -146 -61q-35 0 -56.5 14.5t-21.5 37.5q0 14 7.5 25
t24.5 24q32 -41 74 -41q51 0 84.5 47t53.5 150zM432 623h-49l-102 -507q-19 -97 -54 -157q76 23 103 153z" />
    <glyph glyph-name="periodcentered" unicode="&#xb7;" horiz-adv-x="303" 
d="M133 206q-49 0 -49 48q0 38 24.5 64t60.5 26q49 0 49 -48q0 -38 -24.5 -64t-60.5 -26z" />
    <glyph glyph-name="cedilla" unicode="&#xb8;" horiz-adv-x="616" 
d="M210 -236q24 10 45 23t36 27t24 28.5t9 26.5q0 22 -38 22h-27v11q0 48 71 48q34 0 54.5 -16.5t20.5 -44.5q0 -26 -14.5 -52.5t-37.5 -48t-51.5 -35t-56.5 -13.5q-20 0 -29 15z" />
    <glyph glyph-name="uni00B9" unicode="&#xb9;" horiz-adv-x="447" 
d="M86 373l12 42q12 6 30.5 11t45.5 11l61 293h-40q-33 0 -42.5 4t-10.5 20l-2 17q32 9 56 16.5t43 14t34 13t28 12.5l34 -25l-13 -42l-70 -323l38 -6q17 -2 23.5 -7.5t6.5 -14.5q0 -11 -15 -36h-219z" />
    <glyph glyph-name="ordmasculine" unicode="&#xba;" horiz-adv-x="442" 
d="M221 421q21 0 40 13t33 35.5t22.5 52.5t8.5 63q0 28 -12 43.5t-34 15.5q-47 0 -75.5 -45.5t-28.5 -119.5q0 -58 46 -58zM206 361q-48 0 -78 33t-30 87q0 47 15 88t41.5 71t62 47t77.5 17q48 0 78 -33.5t30 -87.5q0 -47 -15 -87.5t-41.5 -70.5t-62 -47t-77.5 -17zM55 243
q7 34 20 48t39 14h112q56 0 88.5 2.5t55.5 9.5q1 -3 2 -8t1 -10q0 -29 -27 -42.5t-68 -13.5h-223z" />
    <glyph glyph-name="guillemotright" unicode="&#xbb;" horiz-adv-x="515" 
d="M98 429q9 7 12.5 8.5t9.5 1.5q11 0 24 -12q16 -15 35 -34t37.5 -38.5t35 -38t28.5 -33.5l-11 -48q-57 -51 -105 -90.5t-79 -59.5q-14 -10 -27 -10q-16 0 -29 15l-9 9q27 26 52 51t45.5 46.5t36 39t23.5 28.5q-11 23 -36 66t-55 90zM298 429q9 7 12.5 8.5t9.5 1.5
q11 0 24 -12q16 -15 35 -34t37.5 -38.5t35 -38t28.5 -33.5l-11 -48q-57 -51 -105 -90.5t-79 -59.5q-14 -10 -27 -10q-16 0 -29 15l-9 9q27 26 52 51t45.5 46.5t36 39t23.5 28.5q-11 23 -36 66t-55 90z" />
    <glyph glyph-name="onequarter" unicode="&#xbc;" horiz-adv-x="1076" 
d="M284 -6l272 362l259 369l60 -41l-272 -362l-259 -369zM852 0l23 104h-176q-43 0 -43 33q0 16 13 29l251 256q27 27 55 27q20 0 41 -15l-57 -270h71l-15 -60h-69l-22 -104h-72zM929 356l-182 -192h139zM86 243l12 42q12 6 30.5 11t45.5 11l61 293h-40q-33 0 -42.5 4
t-10.5 20l-2 17q32 9 56 16.5t43 14t34 13t28 12.5l34 -25l-13 -42l-70 -323l38 -6q17 -2 23.5 -7.5t6.5 -14.5q0 -11 -15 -36h-219z" />
    <glyph glyph-name="onehalf" unicode="&#xbd;" horiz-adv-x="1076" 
d="M245 -6l272 362l259 369l60 -41l-272 -362l-259 -369zM989 47q-5 -25 -20 -36t-44 -11h-215q-20 0 -32.5 10.5t-12.5 27.5q0 16 16 31l89 71q52 42 86 71t53.5 51t27 38.5t7.5 32.5q0 22 -15 35.5t-40 13.5q-35 0 -67 -24t-50 -63q-24 9 -33.5 17.5t-9.5 21.5q0 23 27 54
q26 29 64.5 45.5t82.5 16.5q54 -1 87.5 -30t33.5 -75q0 -27 -11.5 -53t-40 -57.5t-78 -71.5t-124.5 -95h224zM86 243l12 42q12 6 30.5 11t45.5 11l61 293h-40q-33 0 -42.5 4t-10.5 20l-2 17q32 9 56 16.5t43 14t34 13t28 12.5l34 -25l-13 -42l-70 -323l38 -6
q17 -2 23.5 -7.5t6.5 -14.5q0 -11 -15 -36h-219z" />
    <glyph glyph-name="threequarters" unicode="&#xbe;" horiz-adv-x="1076" 
d="M269 -6l272 362l259 369l60 -41l-272 -362l-259 -369zM852 0l23 104h-176q-43 0 -43 33q0 16 13 29l251 256q27 27 55 27q20 0 41 -15l-57 -270h71l-15 -60h-69l-22 -104h-72zM929 356l-182 -192h139zM45 292h33q88 0 137 26.5t49 73.5q0 22 -13.5 34t-37.5 12
q-12 0 -29 -3.5t-37 -9.5l-7 54q75 16 115.5 43t40.5 62q0 21 -12.5 32.5t-35.5 11.5q-58 0 -103 -67q-30 19 -30 36q0 18 13 35t33.5 30.5t47 22t53.5 8.5q51 0 80.5 -25t29.5 -67q0 -67 -81 -120q54 -25 54 -86q0 -35 -18 -65t-49.5 -52t-74 -35t-91.5 -13
q-38 0 -52.5 9.5t-14.5 35.5v17z" />
    <glyph glyph-name="questiondown" unicode="&#xbf;" horiz-adv-x="415" 
d="M145 273q7 26 31 41.5t60 15.5q35 0 54.5 -20t19.5 -55q0 -16 -6 -32t-20 -34.5t-37 -41t-58 -52.5q-26 -23 -44 -41t-28.5 -33.5t-15 -30t-4.5 -29.5q0 -65 79 -65q52 0 110 36q5 -10 8 -22.5t3 -24.5q0 -39 -32 -63t-86 -24q-34 0 -63 11.5t-50.5 32t-33.5 48t-12 60.5
q0 24 5.5 44.5t20.5 43t40 49t64 61.5q47 43 64.5 61.5t17.5 26.5q0 16 -22 16h-70zM285 528q45 0 45 -45q0 -35 -23 -59t-56 -24q-45 0 -45 45q0 35 23 59t56 24z" />
    <glyph glyph-name="Agrave" unicode="&#xc0;" horiz-adv-x="732" 
d="M395 0l10 40q29 13 89 26l-25 157h-261l-85 -158l59 -11q24 -4 24 -21q0 -14 -11 -33h-248l10 39q7 4 25 10t53 17l343 600q4 8 15.5 16t25.5 14.5t29 10.5t28 4l123 -641l53 -11q14 -3 19 -7.5t5 -13.5q0 -14 -11 -38h-270zM409 594l-164 -303h213zM493 770
q-44 14 -80 27.5t-56 24.5q-24 12 -34.5 25t-10.5 31q0 28 29 59l12 13l140 -121q18 -17 18 -28t-12 -24z" />
    <glyph glyph-name="Aacute" unicode="&#xc1;" horiz-adv-x="732" 
d="M395 0l10 40q29 13 89 26l-25 157h-261l-85 -158l59 -11q24 -4 24 -21q0 -14 -11 -33h-248l10 39q7 4 25 10t53 17l343 600q4 8 15.5 16t25.5 14.5t29 10.5t28 4l123 -641l53 -11q14 -3 19 -7.5t5 -13.5q0 -14 -11 -38h-270zM409 594l-164 -303h213zM581 938
q12 -24 12 -46q0 -19 -11 -34.5t-38 -29.5t-72 -28t-112 -30l-4 9q-4 9 -4 18q0 22 30 40l191 118z" />
    <glyph glyph-name="Acircumflex" unicode="&#xc2;" horiz-adv-x="732" 
d="M395 0l10 40q29 13 89 26l-25 157h-261l-85 -158l59 -11q24 -4 24 -21q0 -14 -11 -33h-248l10 39q7 4 25 10t53 17l343 600q4 8 15.5 16t25.5 14.5t29 10.5t28 4l123 -641l53 -11q14 -3 19 -7.5t5 -13.5q0 -14 -11 -38h-270zM409 594l-164 -303h213zM559 760
q-31 41 -56.5 64t-43.5 40q-54 -55 -87.5 -79.5t-56.5 -24.5q-17 0 -32 11l-15 11q24 20 44.5 38.5t40 37.5t39 39t42.5 43l60 8q49 -48 80 -87.5t31 -64.5q0 -8 -6 -16t-15 -11z" />
    <glyph glyph-name="Atilde" unicode="&#xc3;" horiz-adv-x="732" 
d="M395 0l10 40q29 13 89 26l-25 157h-261l-85 -158l59 -11q24 -4 24 -21q0 -14 -11 -33h-248l10 39q7 4 25 10t53 17l343 600q4 8 15.5 16t25.5 14.5t29 10.5t28 4l123 -641l53 -11q14 -3 19 -7.5t5 -13.5q0 -14 -11 -38h-270zM409 594l-164 -303h213zM580 930
q22 -9 22 -33q0 -21 -9 -41t-24 -35t-34.5 -24t-40.5 -9q-45 0 -72 45q-8 14 -14.5 19t-15.5 5q-33 0 -57 -69l-23 9q-22 9 -22 34q0 21 9 40.5t24 34.5t34.5 24t40.5 9q43 0 72 -45q17 -24 33 -24q30 0 54 69z" />
    <glyph glyph-name="Adieresis" unicode="&#xc4;" horiz-adv-x="732" 
d="M395 0l10 40q29 13 89 26l-25 157h-261l-85 -158l59 -11q24 -4 24 -21q0 -14 -11 -33h-248l10 39q7 4 25 10t53 17l343 600q4 8 15.5 16t25.5 14.5t29 10.5t28 4l123 -641l53 -11q14 -3 19 -7.5t5 -13.5q0 -14 -11 -38h-270zM409 594l-164 -303h213zM407 868
q0 -34 -23 -56.5t-58 -22.5q-22 0 -35 12t-13 33q0 35 23.5 57.5t58.5 22.5q22 0 34.5 -12t12.5 -34zM614 868q0 -34 -23 -56.5t-58 -22.5q-22 0 -35 12t-13 33q0 35 23.5 57.5t58.5 22.5q22 0 34.5 -12t12.5 -34z" />
    <glyph glyph-name="Aring" unicode="&#xc5;" horiz-adv-x="732" 
d="M395 0l10 40q29 13 89 26l-25 157h-261l-85 -158l59 -11q24 -4 24 -21q0 -14 -11 -33h-248l10 39q7 4 25 10t53 17l343 600q4 8 15.5 16t25.5 14.5t29 10.5t28 4l123 -641l53 -11q14 -3 19 -7.5t5 -13.5q0 -14 -11 -38h-270zM409 594l-164 -303h213zM442 801
q27 0 43.5 18.5t16.5 49.5q0 25 -14.5 40.5t-37.5 15.5q-27 0 -43.5 -18.5t-16.5 -49.5q0 -25 14.5 -40.5t37.5 -15.5zM567 877q0 -29 -10 -53.5t-28 -42.5t-43 -28t-55 -10q-23 0 -42 8.5t-33.5 22.5t-22.5 33.5t-8 41.5q0 29 10 53.5t28 42.5t43 28t55 10q21 0 40.5 -8.5
t34 -23t23 -34t8.5 -40.5z" />
    <glyph glyph-name="AE" unicode="&#xc6;" horiz-adv-x="898" 
d="M279 0l13 41q11 6 36.5 15t54.5 17l32 154h-198l-120 -157l39 -8q19 -4 26.5 -9t7.5 -14q0 -5 -3 -13t-13 -26h-224l13 39q18 12 68 31l436 558l-56 12q-21 4 -21 15q0 14 12 38h504q-3 -40 -15 -95q-5 -25 -10.5 -41.5t-12 -26.5t-15 -14t-19.5 -4h-15v102q-86 6 -163 6
h-44l-49 -235l189 7q18 1 24 -1.5t6 -10.5q0 -9 -8 -29t-19 -34h-206l-51 -244h19q57 0 110.5 2t89.5 5l65 118h13q29 0 29 -28q0 -12 -5 -35t-12.5 -48t-16.5 -48.5t-17 -38.5h-474zM490 582l-224 -292h163z" />
    <glyph glyph-name="Ccedilla" unicode="&#xc7;" horiz-adv-x="644" 
d="M563 147q4 -7 4 -15q0 -13 -10 -30t-27 -33q-19 -18 -44.5 -32.5t-54.5 -25t-61 -16t-64 -5.5q-126 0 -194.5 72.5t-68.5 205.5q0 92 29.5 171.5t81.5 138.5t122.5 92.5t151.5 33.5q58 0 111.5 -12.5t88.5 -35.5q0 -15 -4.5 -43t-11.5 -52q-12 -47 -26.5 -63.5
t-42.5 -16.5h-14l9 111q-28 16 -60.5 24t-66.5 8q-57 0 -105.5 -25.5t-84.5 -70t-56.5 -104.5t-20.5 -130q0 -105 50.5 -161t145.5 -56q114 0 210 90zM187 -234q50 20 80.5 48t30.5 52q0 22 -38 22h-24v14q0 48 71 48q35 0 56 -17t21 -45q0 -27 -14.5 -53.5t-37.5 -47.5
t-52 -34t-58 -13q-20 0 -29 15z" />
    <glyph glyph-name="Egrave" unicode="&#xc8;" horiz-adv-x="613" 
d="M-23 0l13 41q11 6 36.5 15t54.5 17l116 549l-62 12q-21 4 -21 18q0 7 4 18t11 23h472q-3 -40 -15 -95q-10 -49 -22 -67.5t-35 -18.5h-15v100q-86 6 -163 6h-59l-50 -236l204 7q18 1 24 -1.5t6 -10.5t-6.5 -26t-15.5 -35h-225l-51 -241h19q31 0 62 0.5t59.5 1.5t52.5 2
t41 3l65 116h13q29 0 29 -28q0 -12 -5 -35t-12.5 -48t-16.5 -48.5t-17 -38.5h-491zM467 770q-44 14 -80 27.5t-56 24.5q-24 12 -34.5 25t-10.5 31q0 28 29 59l12 13l140 -121q18 -17 18 -28t-12 -24z" />
    <glyph glyph-name="Eacute" unicode="&#xc9;" horiz-adv-x="613" 
d="M-23 0l13 41q11 6 36.5 15t54.5 17l116 549l-62 12q-21 4 -21 18q0 7 4 18t11 23h472q-3 -40 -15 -95q-10 -49 -22 -67.5t-35 -18.5h-15v100q-86 6 -163 6h-59l-50 -236l204 7q18 1 24 -1.5t6 -10.5t-6.5 -26t-15.5 -35h-225l-51 -241h19q31 0 62 0.5t59.5 1.5t52.5 2
t41 3l65 116h13q29 0 29 -28q0 -12 -5 -35t-12.5 -48t-16.5 -48.5t-17 -38.5h-491zM555 938q12 -24 12 -46q0 -19 -11 -34.5t-38 -29.5t-72 -28t-112 -30l-4 9q-4 9 -4 18q0 22 30 40l191 118z" />
    <glyph glyph-name="Ecircumflex" unicode="&#xca;" horiz-adv-x="613" 
d="M-23 0l13 41q11 6 36.5 15t54.5 17l116 549l-62 12q-21 4 -21 18q0 7 4 18t11 23h472q-3 -40 -15 -95q-10 -49 -22 -67.5t-35 -18.5h-15v100q-86 6 -163 6h-59l-50 -236l204 7q18 1 24 -1.5t6 -10.5t-6.5 -26t-15.5 -35h-225l-51 -241h19q31 0 62 0.5t59.5 1.5t52.5 2
t41 3l65 116h13q29 0 29 -28q0 -12 -5 -35t-12.5 -48t-16.5 -48.5t-17 -38.5h-491zM533 760q-31 41 -56.5 64t-43.5 40q-54 -55 -87.5 -79.5t-56.5 -24.5q-17 0 -32 11l-15 11q24 20 44.5 38.5t40 37.5t39 39t42.5 43l60 8q49 -48 80 -87.5t31 -64.5q0 -8 -6 -16t-15 -11z
" />
    <glyph glyph-name="Edieresis" unicode="&#xcb;" horiz-adv-x="613" 
d="M-23 0l13 41q11 6 36.5 15t54.5 17l116 549l-62 12q-21 4 -21 18q0 7 4 18t11 23h472q-3 -40 -15 -95q-10 -49 -22 -67.5t-35 -18.5h-15v100q-86 6 -163 6h-59l-50 -236l204 7q18 1 24 -1.5t6 -10.5t-6.5 -26t-15.5 -35h-225l-51 -241h19q31 0 62 0.5t59.5 1.5t52.5 2
t41 3l65 116h13q29 0 29 -28q0 -12 -5 -35t-12.5 -48t-16.5 -48.5t-17 -38.5h-491zM381 868q0 -34 -23 -56.5t-58 -22.5q-22 0 -35 12t-13 33q0 35 23.5 57.5t58.5 22.5q22 0 34.5 -12t12.5 -34zM588 868q0 -34 -23 -56.5t-58 -22.5q-22 0 -35 12t-13 33q0 35 23.5 57.5
t58.5 22.5q22 0 34.5 -12t12.5 -34z" />
    <glyph glyph-name="Igrave" unicode="&#xcc;" horiz-adv-x="373" 
d="M-23 0l13 41q11 6 36.5 15t54.5 17l116 549l-62 12q-21 4 -21 18q0 7 4 18t11 23h268l-13 -41q-11 -6 -36.5 -15t-54.5 -17l-116 -549l62 -12q21 -4 21 -18q0 -7 -4 -18t-11 -23h-268zM338 770q-44 14 -80 27.5t-56 24.5q-24 12 -34.5 25t-10.5 31q0 28 29 59l12 13
l140 -121q18 -17 18 -28t-12 -24z" />
    <glyph glyph-name="Iacute" unicode="&#xcd;" horiz-adv-x="373" 
d="M-23 0l13 41q11 6 36.5 15t54.5 17l116 549l-62 12q-21 4 -21 18q0 7 4 18t11 23h268l-13 -41q-11 -6 -36.5 -15t-54.5 -17l-116 -549l62 -12q21 -4 21 -18q0 -7 -4 -18t-11 -23h-268zM426 938q12 -24 12 -46q0 -19 -11 -34.5t-38 -29.5t-72 -28t-112 -30l-4 9
q-4 9 -4 18q0 22 30 40l191 118z" />
    <glyph glyph-name="Icircumflex" unicode="&#xce;" horiz-adv-x="373" 
d="M-23 0l13 41q11 6 36.5 15t54.5 17l116 549l-62 12q-21 4 -21 18q0 7 4 18t11 23h268l-13 -41q-11 -6 -36.5 -15t-54.5 -17l-116 -549l62 -12q21 -4 21 -18q0 -7 -4 -18t-11 -23h-268zM404 760q-31 41 -56.5 64t-43.5 40q-54 -55 -87.5 -79.5t-56.5 -24.5q-17 0 -32 11
l-15 11q24 20 44.5 38.5t40 37.5t39 39t42.5 43l60 8q49 -48 80 -87.5t31 -64.5q0 -8 -6 -16t-15 -11z" />
    <glyph glyph-name="Idieresis" unicode="&#xcf;" horiz-adv-x="373" 
d="M-23 0l13 41q11 6 36.5 15t54.5 17l116 549l-62 12q-21 4 -21 18q0 7 4 18t11 23h268l-13 -41q-11 -6 -36.5 -15t-54.5 -17l-116 -549l62 -12q21 -4 21 -18q0 -7 -4 -18t-11 -23h-268zM252 868q0 -34 -23 -56.5t-58 -22.5q-22 0 -35 12t-13 33q0 35 23.5 57.5t58.5 22.5
q22 0 34.5 -12t12.5 -34zM459 868q0 -34 -23 -56.5t-58 -22.5q-22 0 -35 12t-13 33q0 35 23.5 57.5t58.5 22.5q22 0 34.5 -12t12.5 -34z" />
    <glyph glyph-name="Eth" unicode="&#xd0;" horiz-adv-x="726" 
d="M-23 0l13 41q11 6 36.5 15t54.5 17l51 243h-106l13 61h106l53 249q-24 -2 -46.5 -6t-49.5 -9q-2 6 -3 14t-1 12q0 29 54 45q16 4 39.5 8t51 7t57 5t56.5 2q158 0 244 -72t86 -205q0 -98 -32 -177.5t-91 -135.5t-142.5 -86.5t-186.5 -30.5q-15 0 -39.5 0.5t-52.5 1
t-55.5 1t-48.5 0.5h-61zM228 316l-51 -245q20 -2 44 -3t62 -1q65 0 120 25.5t94.5 71t61.5 109t22 138.5q0 114 -66 168.5t-203 54.5h-18l-54 -257h167l-13 -61h-166z" />
    <glyph glyph-name="Ntilde" unicode="&#xd1;" horiz-adv-x="764" 
d="M494 -13l-241 529l-92 -448l57 -12q21 -4 21 -18q0 -12 -13 -38h-246l12 38q11 6 35.5 14.5t50.5 16.5l115 551l-42 13q-17 5 -29 13t-12 14q0 5 3.5 15t8.5 18h154l245 -549l99 481l-57 12q-21 4 -21 18q0 12 13 38h241l-12 -38q-14 -7 -35 -14.5t-47 -15.5l-130 -625z
M601 930q22 -9 22 -33q0 -21 -9 -41t-24 -35t-34.5 -24t-40.5 -9q-45 0 -72 45q-8 14 -14.5 19t-15.5 5q-33 0 -57 -69l-23 9q-22 9 -22 34q0 21 9 40.5t24 34.5t34.5 24t40.5 9q43 0 72 -45q17 -24 33 -24q30 0 54 69z" />
    <glyph glyph-name="Ograve" unicode="&#xd2;" horiz-adv-x="739" 
d="M315 65q66 0 118 30.5t88 80t55 112.5t19 127q0 98 -41.5 156t-129.5 58q-66 0 -118 -30.5t-88 -80t-55 -112.5t-19 -127q0 -98 41 -156t130 -58zM295 -10q-61 0 -108.5 19.5t-80 55.5t-49.5 86.5t-17 112.5q0 81 27 160t79 141.5t127 100.5t171 38q61 0 108.5 -19.5
t80 -55.5t49.5 -86.5t17 -112.5q0 -81 -27 -160t-79 -141.5t-127 -100.5t-171 -38zM498 770q-44 14 -80 27.5t-56 24.5q-24 12 -34.5 25t-10.5 31q0 28 29 59l12 13l140 -121q18 -17 18 -28t-12 -24z" />
    <glyph glyph-name="Oacute" unicode="&#xd3;" horiz-adv-x="739" 
d="M315 65q66 0 118 30.5t88 80t55 112.5t19 127q0 98 -41.5 156t-129.5 58q-66 0 -118 -30.5t-88 -80t-55 -112.5t-19 -127q0 -98 41 -156t130 -58zM295 -10q-61 0 -108.5 19.5t-80 55.5t-49.5 86.5t-17 112.5q0 81 27 160t79 141.5t127 100.5t171 38q61 0 108.5 -19.5
t80 -55.5t49.5 -86.5t17 -112.5q0 -81 -27 -160t-79 -141.5t-127 -100.5t-171 -38zM586 938q12 -24 12 -46q0 -19 -11 -34.5t-38 -29.5t-72 -28t-112 -30l-4 9q-4 9 -4 18q0 22 30 40l191 118z" />
    <glyph glyph-name="Ocircumflex" unicode="&#xd4;" horiz-adv-x="739" 
d="M315 65q66 0 118 30.5t88 80t55 112.5t19 127q0 98 -41.5 156t-129.5 58q-66 0 -118 -30.5t-88 -80t-55 -112.5t-19 -127q0 -98 41 -156t130 -58zM295 -10q-61 0 -108.5 19.5t-80 55.5t-49.5 86.5t-17 112.5q0 81 27 160t79 141.5t127 100.5t171 38q61 0 108.5 -19.5
t80 -55.5t49.5 -86.5t17 -112.5q0 -81 -27 -160t-79 -141.5t-127 -100.5t-171 -38zM564 760q-31 41 -56.5 64t-43.5 40q-54 -55 -87.5 -79.5t-56.5 -24.5q-17 0 -32 11l-15 11q24 20 44.5 38.5t40 37.5t39 39t42.5 43l60 8q49 -48 80 -87.5t31 -64.5q0 -8 -6 -16t-15 -11z
" />
    <glyph glyph-name="Otilde" unicode="&#xd5;" horiz-adv-x="739" 
d="M315 65q66 0 118 30.5t88 80t55 112.5t19 127q0 98 -41.5 156t-129.5 58q-66 0 -118 -30.5t-88 -80t-55 -112.5t-19 -127q0 -98 41 -156t130 -58zM295 -10q-61 0 -108.5 19.5t-80 55.5t-49.5 86.5t-17 112.5q0 81 27 160t79 141.5t127 100.5t171 38q61 0 108.5 -19.5
t80 -55.5t49.5 -86.5t17 -112.5q0 -81 -27 -160t-79 -141.5t-127 -100.5t-171 -38zM585 930q22 -9 22 -33q0 -21 -9 -41t-24 -35t-34.5 -24t-40.5 -9q-45 0 -72 45q-8 14 -14.5 19t-15.5 5q-33 0 -57 -69l-23 9q-22 9 -22 34q0 21 9 40.5t24 34.5t34.5 24t40.5 9
q43 0 72 -45q17 -24 33 -24q30 0 54 69z" />
    <glyph glyph-name="Odieresis" unicode="&#xd6;" horiz-adv-x="739" 
d="M315 65q66 0 118 30.5t88 80t55 112.5t19 127q0 98 -41.5 156t-129.5 58q-66 0 -118 -30.5t-88 -80t-55 -112.5t-19 -127q0 -98 41 -156t130 -58zM295 -10q-61 0 -108.5 19.5t-80 55.5t-49.5 86.5t-17 112.5q0 81 27 160t79 141.5t127 100.5t171 38q61 0 108.5 -19.5
t80 -55.5t49.5 -86.5t17 -112.5q0 -81 -27 -160t-79 -141.5t-127 -100.5t-171 -38zM412 868q0 -34 -23 -56.5t-58 -22.5q-22 0 -35 12t-13 33q0 35 23.5 57.5t58.5 22.5q22 0 34.5 -12t12.5 -34zM619 868q0 -34 -23 -56.5t-58 -22.5q-22 0 -35 12t-13 33q0 35 23.5 57.5
t58.5 22.5q22 0 34.5 -12t12.5 -34z" />
    <glyph glyph-name="multiply" unicode="&#xd7;" horiz-adv-x="623" 
d="M454 145l-143 146l-142 -146l-49 47l144 147l-144 148l49 47l142 -146l143 146l49 -47l-144 -148l144 -147z" />
    <glyph glyph-name="Oslash" unicode="&#xd8;" horiz-adv-x="739" 
d="M662 586q37 -65 37 -156q0 -93 -31 -173.5t-85.5 -139.5t-128.5 -93t-159 -34q-117 0 -185 71l-83 -79l-41 42l89 85q-35 64 -35 155q0 93 31 173.5t85.5 139.5t128 93t159.5 34q58 0 104 -18t79 -52l78 74l41 -42zM181 128q43 -63 134 -63q58 0 109.5 27.5t89 74.5
t59.5 111t22 137q0 54 -12 96zM556 567q-45 62 -132 62q-59 0 -110 -27t-88.5 -74.5t-59.5 -111.5t-22 -137q0 -52 11 -94z" />
    <glyph glyph-name="Ugrave" unicode="&#xd9;" horiz-adv-x="767" 
d="M616 622l-55 12q-21 6 -21 18q0 7 4 18t11 23h243l-11 -41q-10 -6 -35 -15t-52 -17l-76 -363q-28 -131 -107.5 -199t-204.5 -68q-103 0 -158.5 49.5t-55.5 140.5q0 19 5 56t13 72l66 314l-62 12q-21 6 -21 18q0 7 4 18t11 23h261l-13 -41q-8 -5 -31.5 -13.5t-52.5 -18.5
l-67 -315q-8 -35 -11 -60t-3 -48q0 -125 135 -125q173 0 212 193zM533 770q-44 14 -80 27.5t-56 24.5q-24 12 -34.5 25t-10.5 31q0 28 29 59l12 13l140 -121q18 -17 18 -28t-12 -24z" />
    <glyph glyph-name="Uacute" unicode="&#xda;" horiz-adv-x="767" 
d="M616 622l-55 12q-21 6 -21 18q0 7 4 18t11 23h243l-11 -41q-10 -6 -35 -15t-52 -17l-76 -363q-28 -131 -107.5 -199t-204.5 -68q-103 0 -158.5 49.5t-55.5 140.5q0 19 5 56t13 72l66 314l-62 12q-21 6 -21 18q0 7 4 18t11 23h261l-13 -41q-8 -5 -31.5 -13.5t-52.5 -18.5
l-67 -315q-8 -35 -11 -60t-3 -48q0 -125 135 -125q173 0 212 193zM621 938q12 -24 12 -46q0 -19 -11 -34.5t-38 -29.5t-72 -28t-112 -30l-4 9q-4 9 -4 18q0 22 30 40l191 118z" />
    <glyph glyph-name="Ucircumflex" unicode="&#xdb;" horiz-adv-x="767" 
d="M616 622l-55 12q-21 6 -21 18q0 7 4 18t11 23h243l-11 -41q-10 -6 -35 -15t-52 -17l-76 -363q-28 -131 -107.5 -199t-204.5 -68q-103 0 -158.5 49.5t-55.5 140.5q0 19 5 56t13 72l66 314l-62 12q-21 6 -21 18q0 7 4 18t11 23h261l-13 -41q-8 -5 -31.5 -13.5t-52.5 -18.5
l-67 -315q-8 -35 -11 -60t-3 -48q0 -125 135 -125q173 0 212 193zM599 760q-31 41 -56.5 64t-43.5 40q-54 -55 -87.5 -79.5t-56.5 -24.5q-17 0 -32 11l-15 11q24 20 44.5 38.5t40 37.5t39 39t42.5 43l60 8q49 -48 80 -87.5t31 -64.5q0 -8 -6 -16t-15 -11z" />
    <glyph glyph-name="Udieresis" unicode="&#xdc;" horiz-adv-x="767" 
d="M616 622l-55 12q-21 6 -21 18q0 7 4 18t11 23h243l-11 -41q-10 -6 -35 -15t-52 -17l-76 -363q-28 -131 -107.5 -199t-204.5 -68q-103 0 -158.5 49.5t-55.5 140.5q0 19 5 56t13 72l66 314l-62 12q-21 6 -21 18q0 7 4 18t11 23h261l-13 -41q-8 -5 -31.5 -13.5t-52.5 -18.5
l-67 -315q-8 -35 -11 -60t-3 -48q0 -125 135 -125q173 0 212 193zM447 868q0 -34 -23 -56.5t-58 -22.5q-22 0 -35 12t-13 33q0 35 23.5 57.5t58.5 22.5q22 0 34.5 -12t12.5 -34zM654 868q0 -34 -23 -56.5t-58 -22.5q-22 0 -35 12t-13 33q0 35 23.5 57.5t58.5 22.5
q22 0 34.5 -12t12.5 -34z" />
    <glyph glyph-name="Yacute" unicode="&#xdd;" horiz-adv-x="646" 
d="M105 0l13 41q16 6 45 15t56 17l42 202l-137 344q-40 14 -51.5 21t-11.5 15q0 14 15 38h267l-13 -42q-14 -9 -40 -18.5t-58 -17.5l94 -269l200 276l-56 13q-20 4 -20 19q0 5 4 16.5t10 22.5h246l-12 -40q-12 -8 -36.5 -18t-43.5 -15l-260 -347l-44 -202l76 -12
q21 -3 21 -18q0 -7 -4 -18t-11 -23h-291zM565 938q12 -24 12 -46q0 -19 -11 -34.5t-38 -29.5t-72 -28t-112 -30l-4 9q-4 9 -4 18q0 22 30 40l191 118z" />
    <glyph glyph-name="Thorn" unicode="&#xde;" horiz-adv-x="592" 
d="M-23 0l13 41q11 6 36.5 15t54.5 17l116 549l-62 12q-11 3 -16 6.5t-5 11.5q0 7 4 18t11 23h263l-13 -36q-11 -6 -36.5 -15t-54.5 -17l-14 -65q8 1 18 1h24q123 0 181.5 -42t58.5 -130q0 -54 -24.5 -100t-68.5 -79t-104.5 -52t-131.5 -19h-40l-15 -72l62 -12
q11 -3 16 -6.5t5 -11.5q0 -6 -3.5 -14t-11.5 -23h-263zM235 203q51 0 92.5 12.5t71 35t45 55t15.5 73.5q0 60 -39 88.5t-121 28.5q-8 0 -18 -0.5t-20 -0.5l-61 -292h35z" />
    <glyph glyph-name="germandbls" unicode="&#xdf;" horiz-adv-x="642" 
d="M290 135q30 -40 61.5 -58t70.5 -18q38 0 63.5 22.5t25.5 54.5q0 31 -16 61t-51 67q-21 22 -34 36.5t-20 26t-9.5 21.5t-2.5 22q0 20 16.5 49t56.5 77q18 21 30 38t19 33t10 32t3 35q0 33 -23 55t-58 22q-59 0 -93 -41.5t-55 -138.5l-110 -510q-15 -69 -34.5 -117.5
t-46 -79.5t-61 -45t-78.5 -14q-46 0 -72.5 16.5t-26.5 45.5q0 18 16 37l21 24q18 -16 30.5 -25.5t22.5 -15t20 -7t22 -1.5q16 0 29 9.5t24.5 31t22 56t21.5 84.5l111 510q26 122 95 187t172 65q30 0 55.5 -9.5t44 -26.5t29 -40.5t10.5 -51.5q0 -66 -81 -159
q-18 -21 -29.5 -35t-18 -24.5t-9 -18t-2.5 -15.5q0 -9 2 -16.5t9 -17.5t18.5 -23t31.5 -32q78 -78 78 -139q0 -33 -19 -66t-49 -59t-67.5 -42.5t-75.5 -16.5q-66 0 -105.5 22t-39.5 58q0 14 5.5 24t19.5 22z" />
    <glyph glyph-name="agrave" unicode="&#xe0;" horiz-adv-x="584" 
d="M546 134q10 -11 10 -22q0 -18 -16 -37q-34 -42 -67.5 -63.5t-63.5 -21.5q-50 0 -50 75q0 16 2.5 42.5t6.5 53.5q-49 -84 -106 -127.5t-117 -43.5q-50 0 -77 35.5t-27 100.5q0 78 23 150t62 126.5t90.5 87t107.5 32.5q57 0 109 -58l7 16q8 17 21.5 24t37.5 7h41
q-16 -35 -27.5 -65.5t-22.5 -72.5q-12 -41 -38 -149q-9 -38 -14 -71t-5 -51q0 -28 11 -28q10 0 34.5 20t55.5 53zM406 390q-21 26 -44.5 42t-42.5 16q-34 0 -67 -24t-59 -63t-42 -89t-16 -101q0 -95 56 -95q26 0 57.5 23.5t61 60t52.5 81.5t32 88zM389 584q-32 25 -53.5 42
t-36 29.5t-24 20.5t-15.5 15q-24 25 -24 49q0 26 43 57l14 10l113 -165q8 -11 8 -21q0 -17 -19 -32z" />
    <glyph glyph-name="aacute" unicode="&#xe1;" horiz-adv-x="584" 
d="M546 134q10 -11 10 -22q0 -18 -16 -37q-34 -42 -67.5 -63.5t-63.5 -21.5q-50 0 -50 75q0 16 2.5 42.5t6.5 53.5q-49 -84 -106 -127.5t-117 -43.5q-50 0 -77 35.5t-27 100.5q0 78 23 150t62 126.5t90.5 87t107.5 32.5q57 0 109 -58l7 16q8 17 21.5 24t37.5 7h41
q-16 -35 -27.5 -65.5t-22.5 -72.5q-12 -41 -38 -149q-9 -38 -14 -71t-5 -51q0 -28 11 -28q10 0 34.5 20t55.5 53zM406 390q-21 26 -44.5 42t-42.5 16q-34 0 -67 -24t-59 -63t-42 -89t-16 -101q0 -95 56 -95q26 0 57.5 23.5t61 60t52.5 81.5t32 88zM328 604q-15 10 -15 24
q0 13 18 37l115 152l27 -15q28 -15 28 -40q0 -18 -42.5 -62t-118.5 -105z" />
    <glyph glyph-name="acircumflex" unicode="&#xe2;" horiz-adv-x="584" 
d="M546 134q10 -11 10 -22q0 -18 -16 -37q-34 -42 -67.5 -63.5t-63.5 -21.5q-50 0 -50 75q0 16 2.5 42.5t6.5 53.5q-49 -84 -106 -127.5t-117 -43.5q-50 0 -77 35.5t-27 100.5q0 78 23 150t62 126.5t90.5 87t107.5 32.5q57 0 109 -58l7 16q8 17 21.5 24t37.5 7h41
q-16 -35 -27.5 -65.5t-22.5 -72.5q-12 -41 -38 -149q-9 -38 -14 -71t-5 -51q0 -28 11 -28q10 0 34.5 20t55.5 53zM406 390q-21 26 -44.5 42t-42.5 16q-34 0 -67 -24t-59 -63t-42 -89t-16 -101q0 -95 56 -95q26 0 57.5 23.5t61 60t52.5 81.5t32 88zM455 588q-13 25 -23 43.5
t-19 33.5t-17 28t-17 26q-32 -38 -54 -63t-37.5 -40t-26 -21.5t-18.5 -6.5q-6 0 -10.5 1.5t-11.5 4.5l-27 12q18 19 38 41.5t40.5 46.5t40.5 49t37 48l78 12q16 -24 30 -49.5t24.5 -49t16.5 -43.5t6 -33q0 -23 -26 -32z" />
    <glyph glyph-name="atilde" unicode="&#xe3;" horiz-adv-x="584" 
d="M546 134q10 -11 10 -22q0 -18 -16 -37q-34 -42 -67.5 -63.5t-63.5 -21.5q-50 0 -50 75q0 16 2.5 42.5t6.5 53.5q-49 -84 -106 -127.5t-117 -43.5q-50 0 -77 35.5t-27 100.5q0 78 23 150t62 126.5t90.5 87t107.5 32.5q57 0 109 -58l7 16q8 17 21.5 24t37.5 7h41
q-16 -35 -27.5 -65.5t-22.5 -72.5q-12 -41 -38 -149q-9 -38 -14 -71t-5 -51q0 -28 11 -28q10 0 34.5 20t55.5 53zM406 390q-21 26 -44.5 42t-42.5 16q-34 0 -67 -24t-59 -63t-42 -89t-16 -101q0 -95 56 -95q26 0 57.5 23.5t61 60t52.5 81.5t32 88zM503 761q22 -9 22 -34
q0 -21 -9 -40.5t-24 -34.5t-34 -24t-40 -9q-23 0 -40.5 11t-31.5 37q-7 12 -13.5 18.5t-15.5 6.5q-31 0 -58 -73l-22 9q-22 9 -22 34q0 21 9 40.5t24 34.5t34 24t40 9q23 0 39 -10.5t32 -35.5q17 -27 32 -27q30 0 56 73z" />
    <glyph glyph-name="adieresis" unicode="&#xe4;" horiz-adv-x="584" 
d="M546 134q10 -11 10 -22q0 -18 -16 -37q-34 -42 -67.5 -63.5t-63.5 -21.5q-50 0 -50 75q0 16 2.5 42.5t6.5 53.5q-49 -84 -106 -127.5t-117 -43.5q-50 0 -77 35.5t-27 100.5q0 78 23 150t62 126.5t90.5 87t107.5 32.5q57 0 109 -58l7 16q8 17 21.5 24t37.5 7h41
q-16 -35 -27.5 -65.5t-22.5 -72.5q-12 -41 -38 -149q-9 -38 -14 -71t-5 -51q0 -28 11 -28q10 0 34.5 20t55.5 53zM406 390q-21 26 -44.5 42t-42.5 16q-34 0 -67 -24t-59 -63t-42 -89t-16 -101q0 -95 56 -95q26 0 57.5 23.5t61 60t52.5 81.5t32 88zM332 700q0 -32 -22.5 -54
t-54.5 -22q-21 0 -33.5 11.5t-12.5 31.5q0 32 22.5 54t55.5 22q21 0 33 -11.5t12 -31.5zM532 700q0 -32 -22.5 -54t-54.5 -22q-21 0 -33.5 11.5t-12.5 31.5q0 32 22.5 54t55.5 22q21 0 33 -11.5t12 -31.5z" />
    <glyph glyph-name="aring" unicode="&#xe5;" horiz-adv-x="584" 
d="M546 134q10 -11 10 -22q0 -18 -16 -37q-34 -42 -67.5 -63.5t-63.5 -21.5q-50 0 -50 75q0 16 2.5 42.5t6.5 53.5q-49 -84 -106 -127.5t-117 -43.5q-50 0 -77 35.5t-27 100.5q0 78 23 150t62 126.5t90.5 87t107.5 32.5q57 0 109 -58l7 16q8 17 21.5 24t37.5 7h41
q-16 -35 -27.5 -65.5t-22.5 -72.5q-12 -41 -38 -149q-9 -38 -14 -71t-5 -51q0 -28 11 -28q10 0 34.5 20t55.5 53zM406 390q-21 26 -44.5 42t-42.5 16q-34 0 -67 -24t-59 -63t-42 -89t-16 -101q0 -95 56 -95q26 0 57.5 23.5t61 60t52.5 81.5t32 88zM366 631q26 0 41.5 21.5
t15.5 57.5q0 55 -49 55q-26 0 -41.5 -21.5t-15.5 -57.5q0 -55 49 -55zM355 572q-48 0 -77 29t-29 77q0 31 10.5 58t28.5 46.5t43 30.5t54 11q45 0 75.5 -30.5t30.5 -75.5q0 -32 -10.5 -58.5t-28.5 -46t-43 -30.5t-54 -11z" />
    <glyph glyph-name="ae" unicode="&#xe6;" horiz-adv-x="772" 
d="M701 132q8 -12 8 -20q0 -16 -22 -38q-19 -19 -43.5 -34.5t-50.5 -26.5t-53.5 -17t-52.5 -6q-67 0 -104 40t-41 118q-46 -81 -94.5 -119.5t-105.5 -38.5q-48 0 -74.5 36t-26.5 100q0 80 24 152t65 126t95.5 86t114.5 32q26 0 62 -14.5t78 -40.5q35 27 74 41t80 14
q50 0 79 -27t29 -73q0 -77 -80 -137.5t-231 -97.5q0 -60 19.5 -87t64.5 -27q38 0 79.5 17t97.5 56zM422 418q-50 30 -90 30q-38 0 -73.5 -23.5t-63 -62t-44 -88.5t-16.5 -103q0 -95 50 -95q18 0 39.5 15.5t44.5 43.5t45.5 66.5t42.5 84.5q12 29 21.5 50t17 36t14 26t12.5 20
zM439 250q49 14 88.5 32.5t67.5 39.5t43 44t15 46t-13 36t-36 13q-26 0 -45.5 -9t-44.5 -33q-26 -24 -46.5 -70.5t-28.5 -98.5z" />
    <glyph glyph-name="ccedilla" unicode="&#xe7;" horiz-adv-x="443" 
d="M387 133q8 -13 8 -21q0 -15 -22 -37q-37 -38 -88 -61.5t-99 -23.5q-68 0 -106.5 47t-38.5 129q0 70 22.5 134.5t60.5 114t89.5 78.5t110.5 29q44 0 69.5 -14.5t25.5 -39.5q0 -11 -5 -24t-13 -27l-7 -11q-29 16 -59.5 25.5t-53.5 9.5q-30 0 -56 -19t-45.5 -52.5t-30.5 -79
t-11 -97.5q0 -62 20.5 -91t64.5 -29q32 0 67 16.5t88 57.5zM72 -236q24 10 45 23t36 27t24 28.5t9 26.5q0 22 -38 22h-27v11q0 48 71 48q34 0 54.5 -16.5t20.5 -44.5q0 -26 -14.5 -52.5t-37.5 -48t-51.5 -35t-56.5 -13.5q-20 0 -29 15z" />
    <glyph glyph-name="egrave" unicode="&#xe8;" horiz-adv-x="471" 
d="M400 132q8 -12 8 -20q0 -16 -22 -38q-19 -19 -43 -34.5t-50.5 -26.5t-54 -17t-52.5 -6q-71 0 -108 44.5t-37 129.5q0 73 23.5 138t63 114t92.5 77.5t113 28.5q50 0 79 -27t29 -73q0 -77 -80 -137.5t-231 -97.5q0 -60 19.5 -87t64.5 -27q39 0 80.5 17.5t96.5 55.5z
M138 250q49 14 88.5 32.5t67.5 39.5t43 44t15 46t-13 36t-36 13q-26 0 -45.5 -9t-44.5 -33q-26 -24 -46.5 -70.5t-28.5 -98.5zM349 584q-32 25 -53.5 42t-36 29.5t-24 20.5t-15.5 15q-24 25 -24 49q0 26 43 57l14 10l113 -165q8 -11 8 -21q0 -17 -19 -32z" />
    <glyph glyph-name="eacute" unicode="&#xe9;" horiz-adv-x="471" 
d="M400 132q8 -12 8 -20q0 -16 -22 -38q-19 -19 -43 -34.5t-50.5 -26.5t-54 -17t-52.5 -6q-71 0 -108 44.5t-37 129.5q0 73 23.5 138t63 114t92.5 77.5t113 28.5q50 0 79 -27t29 -73q0 -77 -80 -137.5t-231 -97.5q0 -60 19.5 -87t64.5 -27q39 0 80.5 17.5t96.5 55.5z
M138 250q49 14 88.5 32.5t67.5 39.5t43 44t15 46t-13 36t-36 13q-26 0 -45.5 -9t-44.5 -33q-26 -24 -46.5 -70.5t-28.5 -98.5zM288 604q-15 10 -15 24q0 13 18 37l115 152l27 -15q28 -15 28 -40q0 -18 -42.5 -62t-118.5 -105z" />
    <glyph glyph-name="ecircumflex" unicode="&#xea;" horiz-adv-x="471" 
d="M400 132q8 -12 8 -20q0 -16 -22 -38q-19 -19 -43 -34.5t-50.5 -26.5t-54 -17t-52.5 -6q-71 0 -108 44.5t-37 129.5q0 73 23.5 138t63 114t92.5 77.5t113 28.5q50 0 79 -27t29 -73q0 -77 -80 -137.5t-231 -97.5q0 -60 19.5 -87t64.5 -27q39 0 80.5 17.5t96.5 55.5z
M138 250q49 14 88.5 32.5t67.5 39.5t43 44t15 46t-13 36t-36 13q-26 0 -45.5 -9t-44.5 -33q-26 -24 -46.5 -70.5t-28.5 -98.5zM415 588q-13 25 -23 43.5t-19 33.5t-17 28t-17 26q-32 -38 -54 -63t-37.5 -40t-26 -21.5t-18.5 -6.5q-6 0 -10.5 1.5t-11.5 4.5l-27 12
q18 19 38 41.5t40.5 46.5t40.5 49t37 48l78 12q16 -24 30 -49.5t24.5 -49t16.5 -43.5t6 -33q0 -23 -26 -32z" />
    <glyph glyph-name="edieresis" unicode="&#xeb;" horiz-adv-x="471" 
d="M400 132q8 -12 8 -20q0 -16 -22 -38q-19 -19 -43 -34.5t-50.5 -26.5t-54 -17t-52.5 -6q-71 0 -108 44.5t-37 129.5q0 73 23.5 138t63 114t92.5 77.5t113 28.5q50 0 79 -27t29 -73q0 -77 -80 -137.5t-231 -97.5q0 -60 19.5 -87t64.5 -27q39 0 80.5 17.5t96.5 55.5z
M138 250q49 14 88.5 32.5t67.5 39.5t43 44t15 46t-13 36t-36 13q-26 0 -45.5 -9t-44.5 -33q-26 -24 -46.5 -70.5t-28.5 -98.5zM292 700q0 -32 -22.5 -54t-54.5 -22q-21 0 -33.5 11.5t-12.5 31.5q0 32 22.5 54t55.5 22q21 0 33 -11.5t12 -31.5zM492 700q0 -32 -22.5 -54
t-54.5 -22q-21 0 -33.5 11.5t-12.5 31.5q0 32 22.5 54t55.5 22q21 0 33 -11.5t12 -31.5z" />
    <glyph glyph-name="igrave" unicode="&#xec;" horiz-adv-x="331" 
d="M269 134q10 -11 10 -22q0 -15 -18 -37q-32 -38 -73.5 -61.5t-75.5 -23.5q-54 0 -54 59q0 10 3 26t9 41.5t16 61.5t25 87l51 180q-13 1 -27.5 1h-38.5h-41l4 19q4 19 11.5 25.5t30.5 12.5q11 3 26.5 6t31 5t29.5 3.5t23 1.5q41 0 41 -38q0 -17 -7 -52t-19 -80
q-18 -65 -30.5 -111t-21 -76.5t-12.5 -47.5t-4 -24q0 -12 6 -12q4 0 15.5 6.5t25 16.5t28 22t25.5 24zM269 584q-32 25 -53.5 42t-36 29.5t-24 20.5t-15.5 15q-24 25 -24 49q0 26 43 57l14 10l113 -165q8 -11 8 -21q0 -17 -19 -32z" />
    <glyph glyph-name="iacute" unicode="&#xed;" horiz-adv-x="331" 
d="M269 134q10 -11 10 -22q0 -15 -18 -37q-32 -38 -73.5 -61.5t-75.5 -23.5q-54 0 -54 59q0 10 3 26t9 41.5t16 61.5t25 87l51 180q-13 1 -27.5 1h-38.5h-41l4 19q4 19 11.5 25.5t30.5 12.5q11 3 26.5 6t31 5t29.5 3.5t23 1.5q41 0 41 -38q0 -17 -7 -52t-19 -80
q-18 -65 -30.5 -111t-21 -76.5t-12.5 -47.5t-4 -24q0 -12 6 -12q4 0 15.5 6.5t25 16.5t28 22t25.5 24zM208 604q-15 10 -15 24q0 13 18 37l115 152l27 -15q28 -15 28 -40q0 -18 -42.5 -62t-118.5 -105z" />
    <glyph glyph-name="icircumflex" unicode="&#xee;" horiz-adv-x="331" 
d="M269 134q10 -11 10 -22q0 -15 -18 -37q-32 -38 -73.5 -61.5t-75.5 -23.5q-54 0 -54 59q0 10 3 26t9 41.5t16 61.5t25 87l51 180q-13 1 -27.5 1h-38.5h-41l4 19q4 19 11.5 25.5t30.5 12.5q11 3 26.5 6t31 5t29.5 3.5t23 1.5q41 0 41 -38q0 -17 -7 -52t-19 -80
q-18 -65 -30.5 -111t-21 -76.5t-12.5 -47.5t-4 -24q0 -12 6 -12q4 0 15.5 6.5t25 16.5t28 22t25.5 24zM335 588q-13 25 -23 43.5t-19 33.5t-17 28t-17 26q-32 -38 -54 -63t-37.5 -40t-26 -21.5t-18.5 -6.5q-6 0 -10.5 1.5t-11.5 4.5l-27 12q18 19 38 41.5t40.5 46.5t40.5 49
t37 48l78 12q16 -24 30 -49.5t24.5 -49t16.5 -43.5t6 -33q0 -23 -26 -32z" />
    <glyph glyph-name="idieresis" unicode="&#xef;" horiz-adv-x="331" 
d="M269 134q10 -11 10 -22q0 -15 -18 -37q-32 -38 -73.5 -61.5t-75.5 -23.5q-54 0 -54 59q0 10 3 26t9 41.5t16 61.5t25 87l51 180q-13 1 -27.5 1h-38.5h-41l4 19q4 19 11.5 25.5t30.5 12.5q11 3 26.5 6t31 5t29.5 3.5t23 1.5q41 0 41 -38q0 -17 -7 -52t-19 -80
q-18 -65 -30.5 -111t-21 -76.5t-12.5 -47.5t-4 -24q0 -12 6 -12q4 0 15.5 6.5t25 16.5t28 22t25.5 24zM212 700q0 -32 -22.5 -54t-54.5 -22q-21 0 -33.5 11.5t-12.5 31.5q0 32 22.5 54t55.5 22q21 0 33 -11.5t12 -31.5zM412 700q0 -32 -22.5 -54t-54.5 -22q-21 0 -33.5 11.5
t-12.5 31.5q0 32 22.5 54t55.5 22q21 0 33 -11.5t12 -31.5z" />
    <glyph glyph-name="eth" unicode="&#xf0;" horiz-adv-x="543" 
d="M408 676q95 -133 95 -291q0 -86 -22 -158.5t-61 -125t-92.5 -82t-117.5 -29.5q-82 0 -129 49t-47 134q0 75 21 138.5t58 110.5t87.5 73.5t109.5 26.5q36 0 66.5 -16.5t49.5 -46.5q-11 45 -31 89t-49 86l-100 -69l-30 41l99 68q-35 41 -77 74q11 15 26 29.5t26 20.5
q22 -17 43.5 -38t42.5 -44l99 68l30 -41zM224 62q38 0 71.5 20.5t59 55.5t40 82.5t14.5 100.5q0 60 -29 95.5t-78 35.5q-37 0 -68.5 -20.5t-54.5 -56.5t-36 -85t-13 -106q0 -59 24.5 -90.5t69.5 -31.5z" />
    <glyph glyph-name="ntilde" unicode="&#xf1;" horiz-adv-x="616" 
d="M570 134q10 -11 10 -22q0 -18 -16 -37q-74 -85 -148 -85q-26 0 -40 16t-14 45q0 8 2.5 23.5t9.5 45.5t19 78t31 121q8 29 11.5 51t3.5 33q0 35 -26 35q-32 0 -71.5 -32t-76 -82.5t-65.5 -113t-41 -122.5l-13 -67q-5 -21 -34 -21h-61l59 256q8 36 14.5 64t11 50.5t8 40.5
t5.5 34q-13 1 -27 1h-37h-41l3 21q2 18 9 24t31 12q26 7 57.5 11.5t50.5 4.5q41 0 41 -41q0 -18 -9 -59.5t-24 -96.5q26 45 56.5 82t62.5 63.5t64 40.5t61 14q85 0 85 -84q0 -21 -5.5 -52.5t-14.5 -65.5q-30 -112 -43.5 -164.5t-13.5 -64.5q0 -13 8 -13q4 0 16 7t26.5 17.5
t29 22.5t23.5 22zM502 761q22 -9 22 -34q0 -21 -9 -40.5t-24 -34.5t-34 -24t-40 -9q-23 0 -40.5 11t-31.5 37q-7 12 -13.5 18.5t-15.5 6.5q-31 0 -58 -73l-22 9q-22 9 -22 34q0 21 9 40.5t24 34.5t34 24t40 9q23 0 39 -10.5t32 -35.5q17 -27 32 -27q30 0 56 73z" />
    <glyph glyph-name="ograve" unicode="&#xf2;" horiz-adv-x="544" 
d="M224 62q37 0 70.5 21.5t58.5 57.5t39.5 84.5t14.5 102.5q0 122 -87 122q-37 0 -70.5 -21.5t-58.5 -57.5t-39.5 -84.5t-14.5 -102.5q0 -122 87 -122zM210 -10q-81 0 -125 47.5t-44 135.5q0 72 23 135.5t63 111t93.5 75t114.5 27.5q80 0 124 -48t44 -136q0 -71 -23 -134.5
t-63 -111t-93 -75t-114 -27.5zM390 584q-32 25 -53.5 42t-36 29.5t-24 20.5t-15.5 15q-24 25 -24 49q0 26 43 57l14 10l113 -165q8 -11 8 -21q0 -17 -19 -32z" />
    <glyph glyph-name="oacute" unicode="&#xf3;" horiz-adv-x="544" 
d="M224 62q37 0 70.5 21.5t58.5 57.5t39.5 84.5t14.5 102.5q0 122 -87 122q-37 0 -70.5 -21.5t-58.5 -57.5t-39.5 -84.5t-14.5 -102.5q0 -122 87 -122zM210 -10q-81 0 -125 47.5t-44 135.5q0 72 23 135.5t63 111t93.5 75t114.5 27.5q80 0 124 -48t44 -136q0 -71 -23 -134.5
t-63 -111t-93 -75t-114 -27.5zM329 604q-15 10 -15 24q0 13 18 37l115 152l27 -15q28 -15 28 -40q0 -18 -42.5 -62t-118.5 -105z" />
    <glyph glyph-name="ocircumflex" unicode="&#xf4;" horiz-adv-x="544" 
d="M224 62q37 0 70.5 21.5t58.5 57.5t39.5 84.5t14.5 102.5q0 122 -87 122q-37 0 -70.5 -21.5t-58.5 -57.5t-39.5 -84.5t-14.5 -102.5q0 -122 87 -122zM210 -10q-81 0 -125 47.5t-44 135.5q0 72 23 135.5t63 111t93.5 75t114.5 27.5q80 0 124 -48t44 -136q0 -71 -23 -134.5
t-63 -111t-93 -75t-114 -27.5zM456 588q-13 25 -23 43.5t-19 33.5t-17 28t-17 26q-32 -38 -54 -63t-37.5 -40t-26 -21.5t-18.5 -6.5q-6 0 -10.5 1.5t-11.5 4.5l-27 12q18 19 38 41.5t40.5 46.5t40.5 49t37 48l78 12q16 -24 30 -49.5t24.5 -49t16.5 -43.5t6 -33
q0 -23 -26 -32z" />
    <glyph glyph-name="otilde" unicode="&#xf5;" horiz-adv-x="544" 
d="M224 62q37 0 70.5 21.5t58.5 57.5t39.5 84.5t14.5 102.5q0 122 -87 122q-37 0 -70.5 -21.5t-58.5 -57.5t-39.5 -84.5t-14.5 -102.5q0 -122 87 -122zM210 -10q-81 0 -125 47.5t-44 135.5q0 72 23 135.5t63 111t93.5 75t114.5 27.5q80 0 124 -48t44 -136q0 -71 -23 -134.5
t-63 -111t-93 -75t-114 -27.5zM504 761q22 -9 22 -34q0 -21 -9 -40.5t-24 -34.5t-34 -24t-40 -9q-23 0 -40.5 11t-31.5 37q-7 12 -13.5 18.5t-15.5 6.5q-31 0 -58 -73l-22 9q-22 9 -22 34q0 21 9 40.5t24 34.5t34 24t40 9q23 0 39 -10.5t32 -35.5q17 -27 32 -27q30 0 56 73z
" />
    <glyph glyph-name="odieresis" unicode="&#xf6;" horiz-adv-x="544" 
d="M224 62q37 0 70.5 21.5t58.5 57.5t39.5 84.5t14.5 102.5q0 122 -87 122q-37 0 -70.5 -21.5t-58.5 -57.5t-39.5 -84.5t-14.5 -102.5q0 -122 87 -122zM210 -10q-81 0 -125 47.5t-44 135.5q0 72 23 135.5t63 111t93.5 75t114.5 27.5q80 0 124 -48t44 -136q0 -71 -23 -134.5
t-63 -111t-93 -75t-114 -27.5zM333 700q0 -32 -22.5 -54t-54.5 -22q-21 0 -33.5 11.5t-12.5 31.5q0 32 22.5 54t55.5 22q21 0 33 -11.5t12 -31.5zM533 700q0 -32 -22.5 -54t-54.5 -22q-21 0 -33.5 11.5t-12.5 31.5q0 32 22.5 54t55.5 22q21 0 33 -11.5t12 -31.5z" />
    <glyph glyph-name="divide" unicode="&#xf7;" horiz-adv-x="623" 
d="M373 505q0 -26 -18 -43t-47 -17q-59 0 -59 58q0 26 18 43t47 17q59 0 59 -58zM104 304v70h415v-70h-415zM373 175q0 -26 -18 -43t-47 -17q-59 0 -59 58q0 26 18 43t47 17q59 0 59 -58z" />
    <glyph glyph-name="oslash" unicode="&#xf8;" horiz-adv-x="544" 
d="M492 415q11 -36 11 -78q0 -72 -23 -135t-63 -110t-93 -74.5t-114 -27.5q-92 0 -137 63l-81 -71l-30 45l88 76q-9 31 -9 70q0 72 23 135.5t63 111t93.5 75t114.5 27.5q44 0 77 -15t54 -43l75 65l30 -45zM407 341l-261 -225q19 -54 78 -54q37 0 70.5 21.5t58.5 57.5
t39.5 84.5t14.5 102.5v13zM395 402q-21 48 -75 48q-37 0 -70.5 -21.5t-58.5 -57.5t-39.5 -84.5t-14.5 -102.5v-6z" />
    <glyph glyph-name="ugrave" unicode="&#xf9;" horiz-adv-x="611" 
d="M573 134q10 -11 10 -22q0 -16 -16 -37q-30 -38 -65.5 -61.5t-64.5 -23.5q-51 0 -51 75q0 15 2.5 42t6.5 54q-48 -82 -105.5 -126.5t-116.5 -44.5q-48 0 -72.5 27t-24.5 78q0 14 2 29.5t6 36t11 46t18 60.5q17 60 27.5 100t16.5 78q-13 1 -28 1h-41h-41l3 21
q2 16 9.5 22.5t31.5 13.5t56 11.5t51 4.5q51 0 51 -45q0 -24 -15.5 -89t-47.5 -170q-8 -26 -12.5 -51t-4.5 -42q0 -24 12 -37.5t32 -13.5q27 0 59 23.5t61.5 60.5t52.5 83t32 91l26 132q5 28 18 39t41 11h51q-22 -81 -35.5 -132.5t-22 -84t-13.5 -52.5t-9 -39
q-14 -67 -14 -101q0 -28 11 -28q10 0 35.5 20.5t54.5 52.5zM396 584q-32 25 -53.5 42t-36 29.5t-24 20.5t-15.5 15q-24 25 -24 49q0 26 43 57l14 10l113 -165q8 -11 8 -21q0 -17 -19 -32z" />
    <glyph glyph-name="uacute" unicode="&#xfa;" horiz-adv-x="611" 
d="M573 134q10 -11 10 -22q0 -16 -16 -37q-30 -38 -65.5 -61.5t-64.5 -23.5q-51 0 -51 75q0 15 2.5 42t6.5 54q-48 -82 -105.5 -126.5t-116.5 -44.5q-48 0 -72.5 27t-24.5 78q0 14 2 29.5t6 36t11 46t18 60.5q17 60 27.5 100t16.5 78q-13 1 -28 1h-41h-41l3 21
q2 16 9.5 22.5t31.5 13.5t56 11.5t51 4.5q51 0 51 -45q0 -24 -15.5 -89t-47.5 -170q-8 -26 -12.5 -51t-4.5 -42q0 -24 12 -37.5t32 -13.5q27 0 59 23.5t61.5 60.5t52.5 83t32 91l26 132q5 28 18 39t41 11h51q-22 -81 -35.5 -132.5t-22 -84t-13.5 -52.5t-9 -39
q-14 -67 -14 -101q0 -28 11 -28q10 0 35.5 20.5t54.5 52.5zM335 604q-15 10 -15 24q0 13 18 37l115 152l27 -15q28 -15 28 -40q0 -18 -42.5 -62t-118.5 -105z" />
    <glyph glyph-name="ucircumflex" unicode="&#xfb;" horiz-adv-x="611" 
d="M573 134q10 -11 10 -22q0 -16 -16 -37q-30 -38 -65.5 -61.5t-64.5 -23.5q-51 0 -51 75q0 15 2.5 42t6.5 54q-48 -82 -105.5 -126.5t-116.5 -44.5q-48 0 -72.5 27t-24.5 78q0 14 2 29.5t6 36t11 46t18 60.5q17 60 27.5 100t16.5 78q-13 1 -28 1h-41h-41l3 21
q2 16 9.5 22.5t31.5 13.5t56 11.5t51 4.5q51 0 51 -45q0 -24 -15.5 -89t-47.5 -170q-8 -26 -12.5 -51t-4.5 -42q0 -24 12 -37.5t32 -13.5q27 0 59 23.5t61.5 60.5t52.5 83t32 91l26 132q5 28 18 39t41 11h51q-22 -81 -35.5 -132.5t-22 -84t-13.5 -52.5t-9 -39
q-14 -67 -14 -101q0 -28 11 -28q10 0 35.5 20.5t54.5 52.5zM462 588q-13 25 -23 43.5t-19 33.5t-17 28t-17 26q-32 -38 -54 -63t-37.5 -40t-26 -21.5t-18.5 -6.5q-6 0 -10.5 1.5t-11.5 4.5l-27 12q18 19 38 41.5t40.5 46.5t40.5 49t37 48l78 12q16 -24 30 -49.5t24.5 -49
t16.5 -43.5t6 -33q0 -23 -26 -32z" />
    <glyph glyph-name="udieresis" unicode="&#xfc;" horiz-adv-x="611" 
d="M573 134q10 -11 10 -22q0 -16 -16 -37q-30 -38 -65.5 -61.5t-64.5 -23.5q-51 0 -51 75q0 15 2.5 42t6.5 54q-48 -82 -105.5 -126.5t-116.5 -44.5q-48 0 -72.5 27t-24.5 78q0 14 2 29.5t6 36t11 46t18 60.5q17 60 27.5 100t16.5 78q-13 1 -28 1h-41h-41l3 21
q2 16 9.5 22.5t31.5 13.5t56 11.5t51 4.5q51 0 51 -45q0 -24 -15.5 -89t-47.5 -170q-8 -26 -12.5 -51t-4.5 -42q0 -24 12 -37.5t32 -13.5q27 0 59 23.5t61.5 60.5t52.5 83t32 91l26 132q5 28 18 39t41 11h51q-22 -81 -35.5 -132.5t-22 -84t-13.5 -52.5t-9 -39
q-14 -67 -14 -101q0 -28 11 -28q10 0 35.5 20.5t54.5 52.5zM339 700q0 -32 -22.5 -54t-54.5 -22q-21 0 -33.5 11.5t-12.5 31.5q0 32 22.5 54t55.5 22q21 0 33 -11.5t12 -31.5zM539 700q0 -32 -22.5 -54t-54.5 -22q-21 0 -33.5 11.5t-12.5 31.5q0 32 22.5 54t55.5 22
q21 0 33 -11.5t12 -31.5z" />
    <glyph glyph-name="yacute" unicode="&#xfd;" horiz-adv-x="535" 
d="M23 465q2 15 11.5 23t35.5 16q48 15 77 15q22 0 37 -14t27 -47q13 -34 23 -73t17.5 -79.5t11.5 -81.5t4 -78q0 -17 -2 -45t-6 -63q76 112 116 204.5t40 152.5q0 24 -11 53t-30 52q27 22 66 22q67 0 67 -77q0 -44 -17 -99.5t-47 -117.5t-72.5 -127t-93.5 -126
q-38 -45 -78.5 -83t-89.5 -74q-35 -26 -71 -39.5t-68 -13.5q-56 0 -56 51q0 35 29 67q19 -17 31 -23t29 -6q32 0 71.5 18.5t68.5 47.5q13 13 22.5 29.5t15 38.5t8 51.5t2.5 70.5q0 39 -6 83t-16 88t-24.5 84.5t-30.5 72.5q-20 2 -46 4t-48 4zM266 604q-15 10 -15 24
q0 13 18 37l115 152l27 -15q28 -15 28 -40q0 -18 -42.5 -62t-118.5 -105z" />
    <glyph glyph-name="thorn" unicode="&#xfe;" horiz-adv-x="553" 
d="M-75 -226l13 44q16 8 32.5 14.5t28.5 10.5q12 54 28.5 128.5t35.5 157.5t38.5 169t37 163t30.5 139t20 99q-16 1 -32.5 1h-30.5h-44l3 16q4 21 11 28t29 12q11 3 28 6t34.5 5.5t33.5 4t25 1.5q20 0 28.5 -8t8.5 -28q0 -14 -4.5 -40t-15.5 -71q-4 -16 -9.5 -36t-14 -51.5
t-22 -79t-32.5 -117.5q53 88 108.5 134t109.5 46q53 0 81 -41t28 -117q0 -74 -23.5 -141.5t-62.5 -119t-90 -82.5t-106 -31q-61 0 -105 37l-41 -186l97 -13q22 -3 22 -20q0 -7 -2.5 -14t-10.5 -20h-265zM140 99q25 -17 53 -26.5t52 -9.5q33 0 64 23.5t54.5 63t38 90.5
t14.5 105q0 93 -49 93q-30 0 -64.5 -29.5t-66.5 -77.5t-58 -109t-38 -123z" />
    <glyph glyph-name="ydieresis" unicode="&#xff;" horiz-adv-x="535" 
d="M23 465q2 15 11.5 23t35.5 16q48 15 77 15q22 0 37 -14t27 -47q13 -34 23 -73t17.5 -79.5t11.5 -81.5t4 -78q0 -17 -2 -45t-6 -63q76 112 116 204.5t40 152.5q0 24 -11 53t-30 52q27 22 66 22q67 0 67 -77q0 -44 -17 -99.5t-47 -117.5t-72.5 -127t-93.5 -126
q-38 -45 -78.5 -83t-89.5 -74q-35 -26 -71 -39.5t-68 -13.5q-56 0 -56 51q0 35 29 67q19 -17 31 -23t29 -6q32 0 71.5 18.5t68.5 47.5q13 13 22.5 29.5t15 38.5t8 51.5t2.5 70.5q0 39 -6 83t-16 88t-24.5 84.5t-30.5 72.5q-20 2 -46 4t-48 4zM270 700q0 -32 -22.5 -54
t-54.5 -22q-21 0 -33.5 11.5t-12.5 31.5q0 32 22.5 54t55.5 22q21 0 33 -11.5t12 -31.5zM470 700q0 -32 -22.5 -54t-54.5 -22q-21 0 -33.5 11.5t-12.5 31.5q0 32 22.5 54t55.5 22q21 0 33 -11.5t12 -31.5z" />
    <glyph glyph-name="Amacron" unicode="&#x100;" horiz-adv-x="732" 
d="M395 0l10 40q29 13 89 26l-25 157h-261l-85 -158l59 -11q24 -4 24 -21q0 -14 -11 -33h-248l10 39q7 4 25 10t53 17l343 600q4 8 15.5 16t25.5 14.5t29 10.5t28 4l123 -641l53 -11q14 -3 19 -7.5t5 -13.5q0 -14 -11 -38h-270zM409 594l-164 -303h213zM330 807
q-34 0 -34 25q0 13 14 54h253q19 0 26.5 -5.5t7.5 -18.5q0 -11 -14 -55h-253z" />
    <glyph glyph-name="amacron" unicode="&#x101;" horiz-adv-x="584" 
d="M546 134q10 -11 10 -22q0 -18 -16 -37q-34 -42 -67.5 -63.5t-63.5 -21.5q-50 0 -50 75q0 16 2.5 42.5t6.5 53.5q-49 -84 -106 -127.5t-117 -43.5q-50 0 -77 35.5t-27 100.5q0 78 23 150t62 126.5t90.5 87t107.5 32.5q57 0 109 -58l7 16q8 17 21.5 24t37.5 7h41
q-16 -35 -27.5 -65.5t-22.5 -72.5q-12 -41 -38 -149q-9 -38 -14 -71t-5 -51q0 -28 11 -28q10 0 34.5 20t55.5 53zM406 390q-21 26 -44.5 42t-42.5 16q-34 0 -67 -24t-59 -63t-42 -89t-16 -101q0 -95 56 -95q26 0 57.5 23.5t61 60t52.5 81.5t32 88zM254 633q-34 0 -34 25
q0 12 14 50h253q34 0 34 -25q0 -12 -14 -50h-253z" />
    <glyph glyph-name="Abreve" unicode="&#x102;" horiz-adv-x="732" 
d="M395 0l10 40q29 13 89 26l-25 157h-261l-85 -158l59 -11q24 -4 24 -21q0 -14 -11 -33h-248l10 39q7 4 25 10t53 17l343 600q4 8 15.5 16t25.5 14.5t29 10.5t28 4l123 -641l53 -11q14 -3 19 -7.5t5 -13.5q0 -14 -11 -38h-270zM409 594l-164 -303h213zM605 935
q1 -5 1.5 -9.5t0.5 -8.5q-1 -29 -22 -57q-63 -81 -157 -81q-27 0 -50 8.5t-40.5 22.5t-27.5 33.5t-10 41.5q0 36 39 51l22 8q17 -48 36.5 -67t54.5 -19q73 0 150 89z" />
    <glyph glyph-name="abreve" unicode="&#x103;" horiz-adv-x="584" 
d="M546 134q10 -11 10 -22q0 -18 -16 -37q-34 -42 -67.5 -63.5t-63.5 -21.5q-50 0 -50 75q0 16 2.5 42.5t6.5 53.5q-49 -84 -106 -127.5t-117 -43.5q-50 0 -77 35.5t-27 100.5q0 78 23 150t62 126.5t90.5 87t107.5 32.5q57 0 109 -58l7 16q8 17 21.5 24t37.5 7h41
q-16 -35 -27.5 -65.5t-22.5 -72.5q-12 -41 -38 -149q-9 -38 -14 -71t-5 -51q0 -28 11 -28q10 0 34.5 20t55.5 53zM406 390q-21 26 -44.5 42t-42.5 16q-34 0 -67 -24t-59 -63t-42 -89t-16 -101q0 -95 56 -95q26 0 57.5 23.5t61 60t52.5 81.5t32 88zM528 758q2 -8 2 -15
q0 -28 -21 -56q-29 -38 -68 -59t-84 -21q-56 0 -93.5 29t-37.5 77q0 34 39 49l20 8q13 -46 34.5 -65.5t59.5 -19.5q36 0 73 22.5t72 65.5z" />
    <glyph glyph-name="Aogonek" unicode="&#x104;" horiz-adv-x="732" 
d="M643 -158q-6 -24 -32.5 -38t-66.5 -14q-42 0 -69.5 24.5t-27.5 61.5q0 39 25 71t72 53h-149l10 40q29 13 89 26l-25 157h-261l-85 -158l59 -11q24 -4 24 -21q0 -14 -11 -33h-248l10 39q7 4 25 10t53 17l343 600q4 8 15.5 16t25.5 14.5t29 10.5t28 4l123 -641l53 -11
q14 -3 19 -7.5t5 -13.5q0 -14 -11 -38h-21q-20 0 -40.5 -9t-37.5 -23t-27.5 -32.5t-10.5 -36.5q0 -19 18 -29.5t51 -10.5q17 0 30 0.5t21 1.5zM409 594l-164 -303h213z" />
    <glyph glyph-name="aogonek" unicode="&#x105;" horiz-adv-x="584" 
d="M516 -160q-6 -23 -31.5 -36.5t-63.5 -13.5q-41 0 -65 19.5t-24 51.5q0 72 68 130q-41 6 -41 74q0 16 2.5 42.5t6.5 53.5q-49 -84 -106 -127.5t-117 -43.5q-50 0 -77 35.5t-27 100.5q0 78 23 150t62 126.5t90.5 87t107.5 32.5q57 0 109 -58l7 16q8 17 21.5 24t37.5 7h41
q-16 -35 -27.5 -65.5t-22.5 -72.5q-12 -41 -38 -149q-9 -38 -14 -71t-5 -51q0 -28 11 -28q10 0 34.5 20t55.5 53l12 -13q10 -11 10 -22q0 -18 -16 -37q-14 -16 -32.5 -33.5t-35.5 -34.5q-26 -26 -46 -53t-20 -60q0 -41 66 -41q14 0 27.5 0.5t20.5 1.5zM406 390
q-21 26 -44.5 42t-42.5 16q-34 0 -67 -24t-59 -63t-42 -89t-16 -101q0 -95 56 -95q26 0 57.5 23.5t61 60t52.5 81.5t32 88z" />
    <glyph glyph-name="Cacute" unicode="&#x106;" horiz-adv-x="644" 
d="M563 147q4 -7 4 -15q0 -13 -10 -30t-27 -33q-19 -18 -44.5 -32.5t-54.5 -25t-61 -16t-64 -5.5q-126 0 -194.5 72.5t-68.5 205.5q0 92 29.5 171.5t81.5 138.5t122.5 92.5t151.5 33.5q58 0 111.5 -12.5t88.5 -35.5q0 -15 -4.5 -43t-11.5 -52q-12 -47 -26.5 -63.5
t-42.5 -16.5h-14l9 111q-28 16 -60.5 24t-66.5 8q-57 0 -105.5 -25.5t-84.5 -70t-56.5 -104.5t-20.5 -130q0 -105 50.5 -161t145.5 -56q114 0 210 90zM592 938q12 -24 12 -46q0 -19 -11 -34.5t-38 -29.5t-72 -28t-112 -30l-4 9q-4 9 -4 18q0 22 30 40l191 118z" />
    <glyph glyph-name="cacute" unicode="&#x107;" horiz-adv-x="443" 
d="M387 133q8 -13 8 -21q0 -15 -22 -37q-37 -38 -88 -61.5t-99 -23.5q-68 0 -106.5 47t-38.5 129q0 70 22.5 134.5t60.5 114t89.5 78.5t110.5 29q44 0 69.5 -14.5t25.5 -39.5q0 -11 -5 -24t-13 -27l-7 -11q-29 16 -59.5 25.5t-53.5 9.5q-30 0 -56 -19t-45.5 -52.5t-30.5 -79
t-11 -97.5q0 -62 20.5 -91t64.5 -29q32 0 67 16.5t88 57.5zM288 604q-15 10 -15 24q0 13 18 37l115 152l27 -15q28 -15 28 -40q0 -18 -42.5 -62t-118.5 -105z" />
    <glyph glyph-name="Ccircumflex" unicode="&#x108;" horiz-adv-x="644" 
d="M563 147q4 -7 4 -15q0 -13 -10 -30t-27 -33q-19 -18 -44.5 -32.5t-54.5 -25t-61 -16t-64 -5.5q-126 0 -194.5 72.5t-68.5 205.5q0 92 29.5 171.5t81.5 138.5t122.5 92.5t151.5 33.5q58 0 111.5 -12.5t88.5 -35.5q0 -15 -4.5 -43t-11.5 -52q-12 -47 -26.5 -63.5
t-42.5 -16.5h-14l9 111q-28 16 -60.5 24t-66.5 8q-57 0 -105.5 -25.5t-84.5 -70t-56.5 -104.5t-20.5 -130q0 -105 50.5 -161t145.5 -56q114 0 210 90zM570 760q-31 41 -56.5 64t-43.5 40q-54 -55 -87.5 -79.5t-56.5 -24.5q-17 0 -32 11l-15 11q24 20 44.5 38.5t40 37.5
t39 39t42.5 43l60 8q49 -48 80 -87.5t31 -64.5q0 -8 -6 -16t-15 -11z" />
    <glyph glyph-name="ccircumflex" unicode="&#x109;" horiz-adv-x="443" 
d="M387 133q8 -13 8 -21q0 -15 -22 -37q-37 -38 -88 -61.5t-99 -23.5q-68 0 -106.5 47t-38.5 129q0 70 22.5 134.5t60.5 114t89.5 78.5t110.5 29q44 0 69.5 -14.5t25.5 -39.5q0 -11 -5 -24t-13 -27l-7 -11q-29 16 -59.5 25.5t-53.5 9.5q-30 0 -56 -19t-45.5 -52.5t-30.5 -79
t-11 -97.5q0 -62 20.5 -91t64.5 -29q32 0 67 16.5t88 57.5zM415 588q-13 25 -23 43.5t-19 33.5t-17 28t-17 26q-32 -38 -54 -63t-37.5 -40t-26 -21.5t-18.5 -6.5q-6 0 -10.5 1.5t-11.5 4.5l-27 12q18 19 38 41.5t40.5 46.5t40.5 49t37 48l78 12q16 -24 30 -49.5t24.5 -49
t16.5 -43.5t6 -33q0 -23 -26 -32z" />
    <glyph glyph-name="Cdotaccent" unicode="&#x10a;" horiz-adv-x="644" 
d="M563 147q4 -7 4 -15q0 -13 -10 -30t-27 -33q-19 -18 -44.5 -32.5t-54.5 -25t-61 -16t-64 -5.5q-126 0 -194.5 72.5t-68.5 205.5q0 92 29.5 171.5t81.5 138.5t122.5 92.5t151.5 33.5q58 0 111.5 -12.5t88.5 -35.5q0 -15 -4.5 -43t-11.5 -52q-12 -47 -26.5 -63.5
t-42.5 -16.5h-14l9 111q-28 16 -60.5 24t-66.5 8q-57 0 -105.5 -25.5t-84.5 -70t-56.5 -104.5t-20.5 -130q0 -105 50.5 -161t145.5 -56q114 0 210 90zM526 881q0 -18 -7 -33.5t-19 -27t-28 -18t-34 -6.5q-23 0 -36.5 12.5t-13.5 35.5q0 18 7 34t19 28.5t28 19.5t34 7
q23 0 36.5 -14.5t13.5 -37.5z" />
    <glyph glyph-name="cdotaccent" unicode="&#x10b;" horiz-adv-x="443" 
d="M387 133q8 -13 8 -21q0 -15 -22 -37q-37 -38 -88 -61.5t-99 -23.5q-68 0 -106.5 47t-38.5 129q0 70 22.5 134.5t60.5 114t89.5 78.5t110.5 29q44 0 69.5 -14.5t25.5 -39.5q0 -11 -5 -24t-13 -27l-7 -11q-29 16 -59.5 25.5t-53.5 9.5q-30 0 -56 -19t-45.5 -52.5t-30.5 -79
t-11 -97.5q0 -62 20.5 -91t64.5 -29q32 0 67 16.5t88 57.5zM396 704q0 -34 -24.5 -57.5t-59.5 -23.5q-23 0 -35.5 12t-12.5 34q0 35 25 60t59 25q22 0 35 -13.5t13 -36.5z" />
    <glyph glyph-name="Ccaron" unicode="&#x10c;" horiz-adv-x="644" 
d="M563 147q4 -7 4 -15q0 -13 -10 -30t-27 -33q-19 -18 -44.5 -32.5t-54.5 -25t-61 -16t-64 -5.5q-126 0 -194.5 72.5t-68.5 205.5q0 92 29.5 171.5t81.5 138.5t122.5 92.5t151.5 33.5q58 0 111.5 -12.5t88.5 -35.5q0 -15 -4.5 -43t-11.5 -52q-12 -47 -26.5 -63.5
t-42.5 -16.5h-14l9 111q-28 16 -60.5 24t-66.5 8q-57 0 -105.5 -25.5t-84.5 -70t-56.5 -104.5t-20.5 -130q0 -105 50.5 -161t145.5 -56q114 0 210 90zM407 762q-53 55 -82 98.5t-29 66.5q0 8 5 14.5t19 11.5l30 12q33 -45 55 -74t41 -48q41 38 67 61.5t42 36t25.5 17
t18.5 4.5q15 0 27 -8l24 -16q-54 -47 -100.5 -90t-88.5 -86h-54z" />
    <glyph glyph-name="ccaron" unicode="&#x10d;" horiz-adv-x="443" 
d="M387 133q8 -13 8 -21q0 -15 -22 -37q-37 -38 -88 -61.5t-99 -23.5q-68 0 -106.5 47t-38.5 129q0 70 22.5 134.5t60.5 114t89.5 78.5t110.5 29q44 0 69.5 -14.5t25.5 -39.5q0 -11 -5 -24t-13 -27l-7 -11q-29 16 -59.5 25.5t-53.5 9.5q-30 0 -56 -19t-45.5 -52.5t-30.5 -79
t-11 -97.5q0 -62 20.5 -91t64.5 -29q32 0 67 16.5t88 57.5zM273 602q-35 52 -57.5 95.5t-22.5 69.5q0 23 26 32l29 9q10 -25 18.5 -42.5t16 -32.5t15.5 -28t18 -29q59 71 92.5 102t50.5 31q7 0 11.5 -1.5t10.5 -4.5l25 -13q-31 -33 -76.5 -82t-90.5 -106h-66z" />
    <glyph glyph-name="Dcaron" unicode="&#x10e;" horiz-adv-x="726" 
d="M-23 0l13 41q11 6 36.5 15t54.5 17l117 553q-24 -2 -46.5 -6t-49.5 -9q-2 6 -3 14t-1 12q0 29 54 45q16 4 39.5 8t51 7t57 5t56.5 2q158 0 244 -72t86 -205q0 -98 -32 -177.5t-91 -135.5t-142.5 -86.5t-186.5 -30.5q-15 0 -39.5 0.5t-52.5 1t-55.5 1t-48.5 0.5h-61z
M294 634l-117 -563q20 -2 44 -3t62 -1q65 0 120 25.5t94.5 71t61.5 109t22 138.5q0 114 -66 168.5t-203 54.5h-18zM391 762q-53 55 -82 98.5t-29 66.5q0 8 5 14.5t19 11.5l30 12q33 -45 55 -74t41 -48q41 38 67 61.5t42 36t25.5 17t18.5 4.5q15 0 27 -8l24 -16
q-54 -47 -100.5 -90t-88.5 -86h-54z" />
    <glyph glyph-name="dcaron" unicode="&#x10f;" horiz-adv-x="612" 
d="M546 134q10 -11 10 -22q0 -18 -16 -37q-34 -42 -67.5 -63.5t-63.5 -21.5q-50 0 -50 75q0 16 2.5 42.5t6.5 53.5q-49 -84 -106 -127.5t-117 -43.5q-50 0 -77 35.5t-27 100.5q0 75 24 146.5t64 127t90.5 89t104.5 33.5q27 0 51.5 -12.5t49.5 -37.5l46 227q-21 1 -31.5 1
h-31.5h-44l3 16q4 21 11 28t29 12q13 3 29.5 6t34 5.5t32.5 4t25 1.5q20 0 28.5 -8t8.5 -28q0 -9 -1 -18t-3 -20.5t-5 -27t-8 -36.5l-101 -432q-6 -27 -10 -55t-4 -46q0 -28 11 -28q10 0 35.5 20.5t54.5 52.5zM406 390q-21 26 -44.5 42t-42.5 16q-34 0 -67 -24t-59 -63
t-42 -89t-16 -101q0 -95 56 -95q26 0 57.5 23.5t61 60t52.5 81.5t32 88zM650 621q-27 2 -27 27q0 7 12.5 64.5t32.5 146.5q74 0 74 -43q0 -41 -82 -196z" />
    <glyph glyph-name="Dcroat" unicode="&#x110;" horiz-adv-x="726" 
d="M-23 0l13 41q11 6 36.5 15t54.5 17l51 243h-106l13 61h106l53 249q-24 -2 -46.5 -6t-49.5 -9q-2 6 -3 14t-1 12q0 29 54 45q16 4 39.5 8t51 7t57 5t56.5 2q158 0 244 -72t86 -205q0 -98 -32 -177.5t-91 -135.5t-142.5 -86.5t-186.5 -30.5q-15 0 -39.5 0.5t-52.5 1
t-55.5 1t-48.5 0.5h-61zM228 316l-51 -245q20 -2 44 -3t62 -1q65 0 120 25.5t94.5 71t61.5 109t22 138.5q0 114 -66 168.5t-203 54.5h-18l-54 -257h167l-13 -61h-166z" />
    <glyph glyph-name="dcroat" unicode="&#x111;" horiz-adv-x="587" 
d="M546 134q10 -11 10 -22q0 -18 -16 -37q-34 -42 -67.5 -63.5t-63.5 -21.5q-50 0 -50 75q0 15 2.5 42t6.5 54q-48 -83 -105.5 -127t-117.5 -44q-50 0 -77 35.5t-27 100.5q0 73 23.5 142.5t62 122.5t88.5 85.5t103 32.5q55 0 105 -50l23 112h-133l12 56h132l14 72
q-21 1 -31.5 1h-31.5h-44l3 16q4 21 11 28t29 12q13 3 29.5 6t34 5.5t32.5 4t25 1.5q20 0 28.5 -8t8.5 -28q0 -9 -1 -18t-3 -20.5t-5 -27t-8 -36.5l-2 -8h75l-12 -56h-76l-86 -368q-6 -27 -10 -55t-4 -46q0 -28 11 -28q10 0 35.5 20.5t54.5 52.5zM404 377q-20 26 -45.5 42
t-45.5 16q-33 0 -65 -23t-57 -60t-40.5 -84.5t-15.5 -96.5q0 -95 56 -95q26 0 57.5 23.5t61 60t52.5 81.5t32 88z" />
    <glyph glyph-name="Emacron" unicode="&#x112;" horiz-adv-x="613" 
d="M-23 0l13 41q11 6 36.5 15t54.5 17l116 549l-62 12q-21 4 -21 18q0 7 4 18t11 23h472q-3 -40 -15 -95q-10 -49 -22 -67.5t-35 -18.5h-15v100q-86 6 -163 6h-59l-50 -236l204 7q18 1 24 -1.5t6 -10.5t-6.5 -26t-15.5 -35h-225l-51 -241h19q31 0 62 0.5t59.5 1.5t52.5 2
t41 3l65 116h13q29 0 29 -28q0 -12 -5 -35t-12.5 -48t-16.5 -48.5t-17 -38.5h-491zM304 807q-34 0 -34 25q0 13 14 54h253q19 0 26.5 -5.5t7.5 -18.5q0 -11 -14 -55h-253z" />
    <glyph glyph-name="emacron" unicode="&#x113;" horiz-adv-x="471" 
d="M400 132q8 -12 8 -20q0 -16 -22 -38q-19 -19 -43 -34.5t-50.5 -26.5t-54 -17t-52.5 -6q-71 0 -108 44.5t-37 129.5q0 73 23.5 138t63 114t92.5 77.5t113 28.5q50 0 79 -27t29 -73q0 -77 -80 -137.5t-231 -97.5q0 -60 19.5 -87t64.5 -27q39 0 80.5 17.5t96.5 55.5z
M138 250q49 14 88.5 32.5t67.5 39.5t43 44t15 46t-13 36t-36 13q-26 0 -45.5 -9t-44.5 -33q-26 -24 -46.5 -70.5t-28.5 -98.5zM214 633q-34 0 -34 25q0 12 14 50h253q34 0 34 -25q0 -12 -14 -50h-253z" />
    <glyph glyph-name="Ebreve" unicode="&#x114;" horiz-adv-x="613" 
d="M-23 0l13 41q11 6 36.5 15t54.5 17l116 549l-62 12q-21 4 -21 18q0 7 4 18t11 23h472q-3 -40 -15 -95q-10 -49 -22 -67.5t-35 -18.5h-15v100q-86 6 -163 6h-59l-50 -236l204 7q18 1 24 -1.5t6 -10.5t-6.5 -26t-15.5 -35h-225l-51 -241h19q31 0 62 0.5t59.5 1.5t52.5 2
t41 3l65 116h13q29 0 29 -28q0 -12 -5 -35t-12.5 -48t-16.5 -48.5t-17 -38.5h-491zM579 935q1 -5 1.5 -9.5t0.5 -8.5q-1 -29 -22 -57q-63 -81 -157 -81q-27 0 -50 8.5t-40.5 22.5t-27.5 33.5t-10 41.5q0 36 39 51l22 8q17 -48 36.5 -67t54.5 -19q73 0 150 89z" />
    <glyph glyph-name="ebreve" unicode="&#x115;" horiz-adv-x="471" 
d="M400 132q8 -12 8 -20q0 -16 -22 -38q-19 -19 -43 -34.5t-50.5 -26.5t-54 -17t-52.5 -6q-71 0 -108 44.5t-37 129.5q0 73 23.5 138t63 114t92.5 77.5t113 28.5q50 0 79 -27t29 -73q0 -77 -80 -137.5t-231 -97.5q0 -60 19.5 -87t64.5 -27q39 0 80.5 17.5t96.5 55.5z
M138 250q49 14 88.5 32.5t67.5 39.5t43 44t15 46t-13 36t-36 13q-26 0 -45.5 -9t-44.5 -33q-26 -24 -46.5 -70.5t-28.5 -98.5zM488 758q2 -8 2 -15q0 -28 -21 -56q-29 -38 -68 -59t-84 -21q-56 0 -93.5 29t-37.5 77q0 34 39 49l20 8q13 -46 34.5 -65.5t59.5 -19.5
q36 0 73 22.5t72 65.5z" />
    <glyph glyph-name="Edotaccent" unicode="&#x116;" horiz-adv-x="613" 
d="M-23 0l13 41q11 6 36.5 15t54.5 17l116 549l-62 12q-21 4 -21 18q0 7 4 18t11 23h472q-3 -40 -15 -95q-10 -49 -22 -67.5t-35 -18.5h-15v100q-86 6 -163 6h-59l-50 -236l204 7q18 1 24 -1.5t6 -10.5t-6.5 -26t-15.5 -35h-225l-51 -241h19q31 0 62 0.5t59.5 1.5t52.5 2
t41 3l65 116h13q29 0 29 -28q0 -12 -5 -35t-12.5 -48t-16.5 -48.5t-17 -38.5h-491zM489 881q0 -18 -7 -33.5t-19 -27t-28 -18t-34 -6.5q-23 0 -36.5 12.5t-13.5 35.5q0 18 7 34t19 28.5t28 19.5t34 7q23 0 36.5 -14.5t13.5 -37.5z" />
    <glyph glyph-name="edotaccent" unicode="&#x117;" horiz-adv-x="471" 
d="M400 132q8 -12 8 -20q0 -16 -22 -38q-19 -19 -43 -34.5t-50.5 -26.5t-54 -17t-52.5 -6q-71 0 -108 44.5t-37 129.5q0 73 23.5 138t63 114t92.5 77.5t113 28.5q50 0 79 -27t29 -73q0 -77 -80 -137.5t-231 -97.5q0 -60 19.5 -87t64.5 -27q39 0 80.5 17.5t96.5 55.5z
M138 250q49 14 88.5 32.5t67.5 39.5t43 44t15 46t-13 36t-36 13q-26 0 -45.5 -9t-44.5 -33q-26 -24 -46.5 -70.5t-28.5 -98.5zM396 704q0 -34 -24.5 -57.5t-59.5 -23.5q-23 0 -35.5 12t-12.5 34q0 35 25 60t59 25q22 0 35 -13.5t13 -36.5z" />
    <glyph glyph-name="Eogonek" unicode="&#x118;" horiz-adv-x="613" 
d="M490 -158q-6 -24 -32.5 -38t-66.5 -14q-42 0 -69.5 24.5t-27.5 61.5q0 39 25 71t72 53h-414l13 41q11 6 36.5 15t54.5 17l116 549l-62 12q-21 4 -21 18q0 7 4 18t11 23h472q-3 -40 -15 -95q-10 -49 -22 -67.5t-35 -18.5h-15v100q-86 6 -163 6h-59l-50 -236l204 7
q18 1 24 -1.5t6 -10.5t-6.5 -26t-15.5 -35h-225l-51 -241h19q31 0 62 0.5t59.5 1.5t52.5 2t41 3l65 116h13q29 0 29 -28q0 -12 -5 -35t-12.5 -48t-16.5 -48.5t-17 -38.5q-45 -16 -69 -44t-24 -57q0 -19 18 -29.5t51 -10.5q17 0 30 0.5t21 1.5z" />
    <glyph glyph-name="eogonek" unicode="&#x119;" horiz-adv-x="471" 
d="M346 -160q-6 -23 -31.5 -36.5t-63.5 -13.5q-41 0 -65 19.5t-24 51.5q0 76 70 134q-12 -2 -23.5 -3.5t-22.5 -1.5q-71 0 -108 44.5t-37 129.5q0 73 23.5 138t63 114t92.5 77.5t113 28.5q50 0 79 -27t29 -73q0 -77 -80 -137.5t-231 -97.5q0 -60 19.5 -87t64.5 -27
q39 0 80.5 17.5t96.5 55.5l9 -14q8 -12 8 -20q0 -16 -22 -38q-5 -5 -12.5 -11.5t-15.5 -12.5q-25 -19 -47.5 -39t-39 -40t-26 -39.5t-9.5 -37.5q0 -41 66 -41q14 0 27.5 0.5t20.5 1.5zM138 250q49 14 88.5 32.5t67.5 39.5t43 44t15 46t-13 36t-36 13q-26 0 -45.5 -9
t-44.5 -33q-26 -24 -46.5 -70.5t-28.5 -98.5z" />
    <glyph glyph-name="Ecaron" unicode="&#x11a;" horiz-adv-x="613" 
d="M-23 0l13 41q11 6 36.5 15t54.5 17l116 549l-62 12q-21 4 -21 18q0 7 4 18t11 23h472q-3 -40 -15 -95q-10 -49 -22 -67.5t-35 -18.5h-15v100q-86 6 -163 6h-59l-50 -236l204 7q18 1 24 -1.5t6 -10.5t-6.5 -26t-15.5 -35h-225l-51 -241h19q31 0 62 0.5t59.5 1.5t52.5 2
t41 3l65 116h13q29 0 29 -28q0 -12 -5 -35t-12.5 -48t-16.5 -48.5t-17 -38.5h-491zM370 762q-53 55 -82 98.5t-29 66.5q0 8 5 14.5t19 11.5l30 12q33 -45 55 -74t41 -48q41 38 67 61.5t42 36t25.5 17t18.5 4.5q15 0 27 -8l24 -16q-54 -47 -100.5 -90t-88.5 -86h-54z" />
    <glyph glyph-name="ecaron" unicode="&#x11b;" horiz-adv-x="471" 
d="M400 132q8 -12 8 -20q0 -16 -22 -38q-19 -19 -43 -34.5t-50.5 -26.5t-54 -17t-52.5 -6q-71 0 -108 44.5t-37 129.5q0 73 23.5 138t63 114t92.5 77.5t113 28.5q50 0 79 -27t29 -73q0 -77 -80 -137.5t-231 -97.5q0 -60 19.5 -87t64.5 -27q39 0 80.5 17.5t96.5 55.5z
M138 250q49 14 88.5 32.5t67.5 39.5t43 44t15 46t-13 36t-36 13q-26 0 -45.5 -9t-44.5 -33q-26 -24 -46.5 -70.5t-28.5 -98.5zM273 602q-35 52 -57.5 95.5t-22.5 69.5q0 23 26 32l29 9q10 -25 18.5 -42.5t16 -32.5t15.5 -28t18 -29q59 71 92.5 102t50.5 31q7 0 11.5 -1.5
t10.5 -4.5l25 -13q-31 -33 -76.5 -82t-90.5 -106h-66z" />
    <glyph glyph-name="Gcircumflex" unicode="&#x11c;" horiz-adv-x="710" 
d="M544 254l-97 14q-13 2 -17.5 6.5t-4.5 13.5q0 5 4.5 16.5t10.5 22.5h241l-6 -33q-6 -21 -40 -41l-41 -208q-65 -29 -122.5 -42t-121.5 -13q-135 0 -209 72.5t-74 204.5q0 93 29.5 172.5t81 138.5t122 92.5t152.5 33.5q65 0 125 -12.5t97 -33.5q0 -9 -1.5 -21t-3.5 -25.5
t-4.5 -26t-5.5 -22.5q-13 -46 -27.5 -63t-45.5 -17h-11l8 109q-58 32 -148 32q-57 0 -106 -25.5t-85 -70.5t-56 -107t-20 -134q0 -49 14 -88.5t39.5 -67t62 -42.5t81.5 -15q85 0 145 21zM580 760q-31 41 -56.5 64t-43.5 40q-54 -55 -87.5 -79.5t-56.5 -24.5q-17 0 -32 11
l-15 11q24 20 44.5 38.5t40 37.5t39 39t42.5 43l60 8q49 -48 80 -87.5t31 -64.5q0 -8 -6 -16t-15 -11z" />
    <glyph glyph-name="gcircumflex" unicode="&#x11d;" horiz-adv-x="494" 
d="M301 522q35 0 72 -6.5t67 -6.5q11 0 21.5 0.5t22.5 1t27 2l35 3.5l-4 -21q-12 -58 -65 -58q-12 0 -27.5 5t-30.5 13q14 -29 14 -63q0 -67 -41.5 -119.5t-121.5 -86.5q-29 -12 -46.5 -20.5t-27.5 -14.5t-13.5 -11t-3.5 -11q0 -7 4 -13.5t16 -14.5t34 -19t58 -27
q35 -16 59 -30t39 -28.5t21.5 -29.5t6.5 -33q0 -37 -21 -68t-58 -53.5t-88 -35t-111 -12.5q-50 0 -91 10t-70 28.5t-45 44t-16 57.5q0 51 45 88t145 66q-19 19 -19 40q0 50 80 82q-46 10 -71 42t-25 82q0 43 18.5 82.5t50 69.5t73 47.5t87.5 17.5zM163 21
q-82 -23 -117.5 -47t-35.5 -56q0 -37 39 -59t104 -22q36 0 66.5 6t53.5 16.5t36 24.5t13 30q0 9 -3.5 17.5t-13.5 17.5t-27.5 19t-44.5 22zM224 240q25 0 48 12t40 32t27.5 47t10.5 56q0 72 -66 72q-26 0 -49 -11.5t-40 -31t-27.5 -45.5t-10.5 -55q0 -76 67 -76zM449 588
q-13 25 -23 43.5t-19 33.5t-17 28t-17 26q-32 -38 -54 -63t-37.5 -40t-26 -21.5t-18.5 -6.5q-6 0 -10.5 1.5t-11.5 4.5l-27 12q18 19 38 41.5t40.5 46.5t40.5 49t37 48l78 12q16 -24 30 -49.5t24.5 -49t16.5 -43.5t6 -33q0 -23 -26 -32z" />
    <glyph glyph-name="Gbreve" unicode="&#x11e;" horiz-adv-x="710" 
d="M544 254l-97 14q-13 2 -17.5 6.5t-4.5 13.5q0 5 4.5 16.5t10.5 22.5h241l-6 -33q-6 -21 -40 -41l-41 -208q-65 -29 -122.5 -42t-121.5 -13q-135 0 -209 72.5t-74 204.5q0 93 29.5 172.5t81 138.5t122 92.5t152.5 33.5q65 0 125 -12.5t97 -33.5q0 -9 -1.5 -21t-3.5 -25.5
t-4.5 -26t-5.5 -22.5q-13 -46 -27.5 -63t-45.5 -17h-11l8 109q-58 32 -148 32q-57 0 -106 -25.5t-85 -70.5t-56 -107t-20 -134q0 -49 14 -88.5t39.5 -67t62 -42.5t81.5 -15q85 0 145 21zM626 935q1 -5 1.5 -9.5t0.5 -8.5q-1 -29 -22 -57q-63 -81 -157 -81q-27 0 -50 8.5
t-40.5 22.5t-27.5 33.5t-10 41.5q0 36 39 51l22 8q17 -48 36.5 -67t54.5 -19q73 0 150 89z" />
    <glyph glyph-name="gbreve" unicode="&#x11f;" horiz-adv-x="494" 
d="M301 522q35 0 72 -6.5t67 -6.5q11 0 21.5 0.5t22.5 1t27 2l35 3.5l-4 -21q-12 -58 -65 -58q-12 0 -27.5 5t-30.5 13q14 -29 14 -63q0 -67 -41.5 -119.5t-121.5 -86.5q-29 -12 -46.5 -20.5t-27.5 -14.5t-13.5 -11t-3.5 -11q0 -7 4 -13.5t16 -14.5t34 -19t58 -27
q35 -16 59 -30t39 -28.5t21.5 -29.5t6.5 -33q0 -37 -21 -68t-58 -53.5t-88 -35t-111 -12.5q-50 0 -91 10t-70 28.5t-45 44t-16 57.5q0 51 45 88t145 66q-19 19 -19 40q0 50 80 82q-46 10 -71 42t-25 82q0 43 18.5 82.5t50 69.5t73 47.5t87.5 17.5zM163 21
q-82 -23 -117.5 -47t-35.5 -56q0 -37 39 -59t104 -22q36 0 66.5 6t53.5 16.5t36 24.5t13 30q0 9 -3.5 17.5t-13.5 17.5t-27.5 19t-44.5 22zM224 240q25 0 48 12t40 32t27.5 47t10.5 56q0 72 -66 72q-26 0 -49 -11.5t-40 -31t-27.5 -45.5t-10.5 -55q0 -76 67 -76zM522 758
q2 -8 2 -15q0 -28 -21 -56q-29 -38 -68 -59t-84 -21q-56 0 -93.5 29t-37.5 77q0 34 39 49l20 8q13 -46 34.5 -65.5t59.5 -19.5q36 0 73 22.5t72 65.5z" />
    <glyph glyph-name="Gdotaccent" unicode="&#x120;" horiz-adv-x="710" 
d="M544 254l-97 14q-13 2 -17.5 6.5t-4.5 13.5q0 5 4.5 16.5t10.5 22.5h241l-6 -33q-6 -21 -40 -41l-41 -208q-65 -29 -122.5 -42t-121.5 -13q-135 0 -209 72.5t-74 204.5q0 93 29.5 172.5t81 138.5t122 92.5t152.5 33.5q65 0 125 -12.5t97 -33.5q0 -9 -1.5 -21t-3.5 -25.5
t-4.5 -26t-5.5 -22.5q-13 -46 -27.5 -63t-45.5 -17h-11l8 109q-58 32 -148 32q-57 0 -106 -25.5t-85 -70.5t-56 -107t-20 -134q0 -49 14 -88.5t39.5 -67t62 -42.5t81.5 -15q85 0 145 21zM536 881q0 -18 -7 -33.5t-19 -27t-28 -18t-34 -6.5q-23 0 -36.5 12.5t-13.5 35.5
q0 18 7 34t19 28.5t28 19.5t34 7q23 0 36.5 -14.5t13.5 -37.5z" />
    <glyph glyph-name="gdotaccent" unicode="&#x121;" horiz-adv-x="494" 
d="M301 522q35 0 72 -6.5t67 -6.5q11 0 21.5 0.5t22.5 1t27 2l35 3.5l-4 -21q-12 -58 -65 -58q-12 0 -27.5 5t-30.5 13q14 -29 14 -63q0 -67 -41.5 -119.5t-121.5 -86.5q-29 -12 -46.5 -20.5t-27.5 -14.5t-13.5 -11t-3.5 -11q0 -7 4 -13.5t16 -14.5t34 -19t58 -27
q35 -16 59 -30t39 -28.5t21.5 -29.5t6.5 -33q0 -37 -21 -68t-58 -53.5t-88 -35t-111 -12.5q-50 0 -91 10t-70 28.5t-45 44t-16 57.5q0 51 45 88t145 66q-19 19 -19 40q0 50 80 82q-46 10 -71 42t-25 82q0 43 18.5 82.5t50 69.5t73 47.5t87.5 17.5zM163 21
q-82 -23 -117.5 -47t-35.5 -56q0 -37 39 -59t104 -22q36 0 66.5 6t53.5 16.5t36 24.5t13 30q0 9 -3.5 17.5t-13.5 17.5t-27.5 19t-44.5 22zM224 240q25 0 48 12t40 32t27.5 47t10.5 56q0 72 -66 72q-26 0 -49 -11.5t-40 -31t-27.5 -45.5t-10.5 -55q0 -76 67 -76zM430 704
q0 -34 -24.5 -57.5t-59.5 -23.5q-23 0 -35.5 12t-12.5 34q0 35 25 60t59 25q22 0 35 -13.5t13 -36.5z" />
    <glyph glyph-name="uni0122" unicode="&#x122;" horiz-adv-x="710" 
d="M544 254l-97 14q-13 2 -17.5 6.5t-4.5 13.5q0 5 4.5 16.5t10.5 22.5h241l-6 -33q-6 -21 -40 -41l-41 -208q-65 -29 -122.5 -42t-121.5 -13q-135 0 -209 72.5t-74 204.5q0 93 29.5 172.5t81 138.5t122 92.5t152.5 33.5q65 0 125 -12.5t97 -33.5q0 -9 -1.5 -21t-3.5 -25.5
t-4.5 -26t-5.5 -22.5q-13 -46 -27.5 -63t-45.5 -17h-11l8 109q-58 32 -148 32q-57 0 -106 -25.5t-85 -70.5t-56 -107t-20 -134q0 -49 14 -88.5t39.5 -67t62 -42.5t81.5 -15q85 0 145 21zM268 -80q20 17 35 23.5t30 6.5q23 0 39 -15.5t16 -40.5t-13.5 -52.5t-34.5 -50
t-46 -37t-47 -14.5q-16 0 -27 16q36 30 52 56.5t16 52.5q0 21 -8 34z" />
    <glyph glyph-name="uni0123" unicode="&#x123;" horiz-adv-x="494" 
d="M301 522q35 0 72 -6.5t67 -6.5q11 0 21.5 0.5t22.5 1t27 2l35 3.5l-4 -21q-12 -58 -65 -58q-12 0 -27.5 5t-30.5 13q14 -29 14 -63q0 -67 -41.5 -119.5t-121.5 -86.5q-29 -12 -46.5 -20.5t-27.5 -14.5t-13.5 -11t-3.5 -11q0 -7 4 -13.5t16 -14.5t34 -19t58 -27
q35 -16 59 -30t39 -28.5t21.5 -29.5t6.5 -33q0 -37 -21 -68t-58 -53.5t-88 -35t-111 -12.5q-50 0 -91 10t-70 28.5t-45 44t-16 57.5q0 51 45 88t145 66q-19 19 -19 40q0 50 80 82q-46 10 -71 42t-25 82q0 43 18.5 82.5t50 69.5t73 47.5t87.5 17.5zM163 21
q-82 -23 -117.5 -47t-35.5 -56q0 -37 39 -59t104 -22q36 0 66.5 6t53.5 16.5t36 24.5t13 30q0 9 -3.5 17.5t-13.5 17.5t-27.5 19t-44.5 22zM224 240q25 0 48 12t40 32t27.5 47t10.5 56q0 72 -66 72q-26 0 -49 -11.5t-40 -31t-27.5 -45.5t-10.5 -55q0 -76 67 -76zM405 607
q-34 -31 -68 -31q-27 0 -43 17.5t-16 47.5t14.5 65t36.5 65t48 50t48 20q8 0 16 -4.5t13 -11.5q-43 -45 -61.5 -78t-18.5 -64q0 -17 3.5 -29t11.5 -24z" />
    <glyph glyph-name="Hcircumflex" unicode="&#x124;" horiz-adv-x="801" 
d="M409 0l13 41q13 7 38.5 16t48.5 16l52 248h-331l-53 -250l59 -12q21 -4 21 -18q0 -7 -4 -18t-11 -23h-265l13 41q11 6 36.5 15t54.5 17l116 549l-62 12q-21 4 -21 18q0 7 4 18t11 23h264l-13 -41q-13 -7 -38.5 -16t-48.5 -16l-48 -228h331l49 230l-59 12q-21 4 -21 18
q0 7 4 18t11 23h265l-13 -41q-11 -6 -36.5 -15t-54.5 -17l-116 -549l62 -12q21 -4 21 -18q0 -7 -4 -18t-11 -23h-264zM617 760q-31 41 -56.5 64t-43.5 40q-54 -55 -87.5 -79.5t-56.5 -24.5q-17 0 -32 11l-15 11q24 20 44.5 38.5t40 37.5t39 39t42.5 43l60 8q49 -48 80 -87.5
t31 -64.5q0 -8 -6 -16t-15 -11z" />
    <glyph glyph-name="hcircumflex" unicode="&#x125;" horiz-adv-x="597" 
d="M551 134q10 -11 10 -22q0 -18 -16 -37q-74 -85 -148 -85q-26 0 -40 16t-14 45q0 8 2.5 23.5t9.5 45.5t19 78t31 121q8 29 11.5 51t3.5 33q0 35 -26 35q-32 0 -71.5 -32t-76 -82.5t-65.5 -112.5t-41 -123l-13 -67q-5 -21 -34 -21h-61l158 699q-9 1 -21 1h-42h-44l3 16
q4 20 10.5 27.5t29.5 12.5q11 3 27.5 6t34 5.5t33.5 4t26 1.5q20 0 28.5 -8t8.5 -28q0 -14 -4 -35t-10 -44l-87 -337q26 45 56.5 82.5t63 63.5t64.5 40.5t61 14.5q85 0 85 -84q0 -21 -5.5 -52.5t-14.5 -65.5q-31 -111 -44 -164t-13 -65q0 -13 8 -13q4 0 16 7t26.5 17.5
t29 22.5t23.5 22zM370 834q-14 22 -25 36.5t-21 26t-19.5 20.5t-20.5 20q-62 -60 -97.5 -81.5t-51.5 -21.5q-6 0 -10.5 1t-11.5 5l-23 12q35 31 73.5 67t86.5 90l74 12q44 -48 70.5 -87t26.5 -63q0 -12 -6 -18.5t-21 -11.5z" />
    <glyph glyph-name="Hbar" unicode="&#x126;" horiz-adv-x="801" 
d="M409 0l13 41q13 7 38.5 16t48.5 16l52 248h-331l-53 -250l59 -12q21 -4 21 -18q0 -7 -4 -18t-11 -23h-265l13 41q11 6 36.5 15t54.5 17l87 412h-101l13 58h100l17 79l-62 12q-21 4 -21 18q0 7 4 18t11 23h264l-13 -41q-13 -7 -38.5 -16t-48.5 -16l-17 -77h332l17 79
l-59 12q-21 4 -21 18q0 7 4 18t11 23h265l-13 -41q-11 -6 -36.5 -15t-54.5 -17l-17 -77h101l-13 -58h-100l-87 -414l62 -12q21 -4 21 -18q0 -7 -4 -18t-11 -23h-264zM596 485h-332l-19 -93h331z" />
    <glyph glyph-name="hbar" unicode="&#x127;" horiz-adv-x="597" 
d="M551 134q10 -11 10 -22q0 -18 -16 -37q-74 -85 -148 -85q-26 0 -40 16t-14 45q0 8 2.5 24t9.5 45.5t18.5 74.5t28.5 111q7 28 11 50.5t4 33.5q0 35 -26 35q-29 0 -67.5 -29.5t-75.5 -77.5t-66.5 -108.5t-41.5 -121.5l-13 -67q-5 -21 -34 -21h-61l129 571h-104l13 56h103
l17 72q-9 1 -21 1h-42h-44l3 16q4 20 10.5 27.5t29.5 12.5q11 3 27.5 6t34 5.5t33.5 4t26 1.5q20 0 28.5 -8t8.5 -28q0 -14 -4 -35t-10 -44l-8 -31h125l-13 -56h-127l-64 -250q26 43 56 77.5t62 59t63.5 38t60.5 13.5q85 0 85 -84q0 -23 -5 -50.5t-16 -71.5
q-23 -85 -38 -141.5t-15 -70.5q0 -13 8 -13q4 0 16 7t26.5 17.5t29 22.5t23.5 22z" />
    <glyph glyph-name="Itilde" unicode="&#x128;" horiz-adv-x="373" 
d="M-23 0l13 41q11 6 36.5 15t54.5 17l116 549l-62 12q-21 4 -21 18q0 7 4 18t11 23h268l-13 -41q-11 -6 -36.5 -15t-54.5 -17l-116 -549l62 -12q21 -4 21 -18q0 -7 -4 -18t-11 -23h-268zM425 930q22 -9 22 -33q0 -21 -9 -41t-24 -35t-34.5 -24t-40.5 -9q-45 0 -72 45
q-8 14 -14.5 19t-15.5 5q-33 0 -57 -69l-23 9q-22 9 -22 34q0 21 9 40.5t24 34.5t34.5 24t40.5 9q43 0 72 -45q17 -24 33 -24q30 0 54 69z" />
    <glyph glyph-name="itilde" unicode="&#x129;" horiz-adv-x="331" 
d="M269 134q10 -11 10 -22q0 -15 -18 -37q-32 -38 -73.5 -61.5t-75.5 -23.5q-54 0 -54 59q0 10 3 26t9 41.5t16 61.5t25 87l51 180q-13 1 -27.5 1h-38.5h-41l4 19q4 19 11.5 25.5t30.5 12.5q11 3 26.5 6t31 5t29.5 3.5t23 1.5q41 0 41 -38q0 -17 -7 -52t-19 -80
q-18 -65 -30.5 -111t-21 -76.5t-12.5 -47.5t-4 -24q0 -12 6 -12q4 0 15.5 6.5t25 16.5t28 22t25.5 24zM383 761q22 -9 22 -34q0 -21 -9 -40.5t-24 -34.5t-34 -24t-40 -9q-23 0 -40.5 11t-31.5 37q-7 12 -13.5 18.5t-15.5 6.5q-31 0 -58 -73l-22 9q-22 9 -22 34q0 21 9 40.5
t24 34.5t34 24t40 9q23 0 39 -10.5t32 -35.5q17 -27 32 -27q30 0 56 73z" />
    <glyph glyph-name="Imacron" unicode="&#x12a;" horiz-adv-x="373" 
d="M-23 0l13 41q11 6 36.5 15t54.5 17l116 549l-62 12q-21 4 -21 18q0 7 4 18t11 23h268l-13 -41q-11 -6 -36.5 -15t-54.5 -17l-116 -549l62 -12q21 -4 21 -18q0 -7 -4 -18t-11 -23h-268zM175 807q-34 0 -34 25q0 13 14 54h253q19 0 26.5 -5.5t7.5 -18.5q0 -11 -14 -55h-253
z" />
    <glyph glyph-name="imacron" unicode="&#x12b;" horiz-adv-x="331" 
d="M269 134q10 -11 10 -22q0 -15 -18 -37q-32 -38 -73.5 -61.5t-75.5 -23.5q-54 0 -54 59q0 10 3 26t9 41.5t16 61.5t25 87l51 180q-13 1 -27.5 1h-38.5h-41l4 19q4 19 11.5 25.5t30.5 12.5q11 3 26.5 6t31 5t29.5 3.5t23 1.5q41 0 41 -38q0 -17 -7 -52t-19 -80
q-18 -65 -30.5 -111t-21 -76.5t-12.5 -47.5t-4 -24q0 -12 6 -12q4 0 15.5 6.5t25 16.5t28 22t25.5 24zM134 633q-34 0 -34 25q0 12 14 50h253q34 0 34 -25q0 -12 -14 -50h-253z" />
    <glyph glyph-name="Ibreve" unicode="&#x12c;" horiz-adv-x="373" 
d="M-23 0l13 41q11 6 36.5 15t54.5 17l116 549l-62 12q-21 4 -21 18q0 7 4 18t11 23h268l-13 -41q-11 -6 -36.5 -15t-54.5 -17l-116 -549l62 -12q21 -4 21 -18q0 -7 -4 -18t-11 -23h-268zM450 935q1 -5 1.5 -9.5t0.5 -8.5q-1 -29 -22 -57q-63 -81 -157 -81q-27 0 -50 8.5
t-40.5 22.5t-27.5 33.5t-10 41.5q0 36 39 51l22 8q17 -48 36.5 -67t54.5 -19q73 0 150 89z" />
    <glyph glyph-name="ibreve" unicode="&#x12d;" horiz-adv-x="331" 
d="M269 134q10 -11 10 -22q0 -15 -18 -37q-32 -38 -73.5 -61.5t-75.5 -23.5q-54 0 -54 59q0 10 3 26t9 41.5t16 61.5t25 87l51 180q-13 1 -27.5 1h-38.5h-41l4 19q4 19 11.5 25.5t30.5 12.5q11 3 26.5 6t31 5t29.5 3.5t23 1.5q41 0 41 -38q0 -17 -7 -52t-19 -80
q-18 -65 -30.5 -111t-21 -76.5t-12.5 -47.5t-4 -24q0 -12 6 -12q4 0 15.5 6.5t25 16.5t28 22t25.5 24zM408 758q2 -8 2 -15q0 -28 -21 -56q-29 -38 -68 -59t-84 -21q-56 0 -93.5 29t-37.5 77q0 34 39 49l20 8q13 -46 34.5 -65.5t59.5 -19.5q36 0 73 22.5t72 65.5z" />
    <glyph glyph-name="Iogonek" unicode="&#x12e;" horiz-adv-x="373" 
d="M267 -158q-6 -24 -32.5 -38t-66.5 -14q-42 0 -69.5 24.5t-27.5 61.5q0 39 25 71t72 53h-191l13 41q11 6 36.5 15t54.5 17l116 549l-62 12q-21 4 -21 18q0 7 4 18t11 23h268l-13 -41q-11 -6 -36.5 -15t-54.5 -17l-116 -549l62 -12q21 -4 21 -18q0 -7 -4 -18t-11 -23
q-44 -12 -68.5 -39t-24.5 -62q0 -19 18 -29.5t51 -10.5q17 0 30 0.5t21 1.5z" />
    <glyph glyph-name="iogonek" unicode="&#x12f;" horiz-adv-x="325" 
d="M232 629q-48 0 -48 50q0 37 24.5 63t59.5 26q48 0 48 -50q0 -37 -24.5 -63t-59.5 -26zM230 -160q-6 -23 -31.5 -36.5t-63.5 -13.5q-41 0 -65 19.5t-24 51.5q0 73 68 129q-56 0 -56 59q0 10 3 26t9 41.5t16 61.5t25 87l51 180q-13 1 -27.5 1h-38.5h-41l4 19
q4 19 11.5 25.5t30.5 12.5q11 3 26.5 6t31 5t29.5 3.5t23 1.5q41 0 41 -38q0 -17 -7 -52t-19 -80q-18 -65 -30.5 -111t-21 -76.5t-12.5 -47.5t-4 -24q0 -12 6 -12q4 0 15.5 6.5t25 16.5t28 22t25.5 24l11 -13q10 -11 10 -22q0 -15 -18 -37q-12 -14 -28 -28.5t-45 -40.5
t-48.5 -57.5t-19.5 -54.5q0 -41 66 -41q14 0 27.5 0.5t20.5 1.5z" />
    <glyph glyph-name="Idotaccent" unicode="&#x130;" horiz-adv-x="373" 
d="M-23 0l13 41q11 6 36.5 15t54.5 17l116 549l-62 12q-21 4 -21 18q0 7 4 18t11 23h268l-13 -41q-11 -6 -36.5 -15t-54.5 -17l-116 -549l62 -12q21 -4 21 -18q0 -7 -4 -18t-11 -23h-268zM360 881q0 -18 -7 -33.5t-19 -27t-28 -18t-34 -6.5q-23 0 -36.5 12.5t-13.5 35.5
q0 18 7 34t19 28.5t28 19.5t34 7q23 0 36.5 -14.5t13.5 -37.5z" />
    <glyph glyph-name="dotlessi" unicode="&#x131;" horiz-adv-x="325" 
d="M269 134q10 -11 10 -22q0 -15 -18 -37q-32 -38 -73.5 -61.5t-75.5 -23.5q-54 0 -54 59q0 10 3 26t9 41.5t16 61.5t25 87l51 180q-13 1 -27.5 1h-38.5h-41l4 19q4 19 11.5 25.5t30.5 12.5q11 3 26.5 6t31 5t29.5 3.5t23 1.5q41 0 41 -38q0 -17 -7 -52t-19 -80
q-18 -65 -30.5 -111t-21 -76.5t-12.5 -47.5t-4 -24q0 -12 6 -12q4 0 15.5 6.5t25 16.5t28 22t25.5 24z" />
    <glyph glyph-name="IJ" unicode="&#x132;" horiz-adv-x="727" 
d="M578 622l-69 12q-21 3 -21 18q0 7 4 18t11 23h271l-13 -41q-15 -8 -38 -16t-49 -16l-106 -506q-17 -80 -40.5 -136.5t-55.5 -93.5t-74.5 -54t-96.5 -17q-42 0 -67 16.5t-25 44.5q0 19 10.5 37t29.5 31q16 -19 39.5 -31t46.5 -12q25 0 44.5 10.5t35.5 34.5t28.5 63
t24.5 97zM-23 0l13 41q11 6 36.5 15t54.5 17l116 549l-62 12q-21 4 -21 18q0 7 4 18t11 23h268l-13 -41q-11 -6 -36.5 -15t-54.5 -17l-116 -549l62 -12q21 -4 21 -18q0 -7 -4 -18t-11 -23h-268z" />
    <glyph glyph-name="ij" unicode="&#x133;" horiz-adv-x="611" 
d="M376 446l3 19q2 10 4 16t6 9.5t11.5 6.5t19.5 6q10 3 25.5 6t31 5t30.5 3.5t25 1.5q38 0 38 -44q0 -12 -6 -48t-16.5 -87.5t-25.5 -116t-32 -134.5q-41 -166 -105 -245t-158 -79q-34 0 -56.5 17.5t-22.5 43.5q0 17 12.5 35.5t33.5 33.5q18 -22 34 -31.5t34 -9.5
q22 0 38 8.5t30.5 31.5t29 63.5t32.5 104.5q14 49 27.5 102.5t25 104.5t20.5 96.5t14 79.5q-11 1 -25 1h-37h-41zM551 629q-48 0 -48 50q0 37 24.5 63t59.5 26q48 0 48 -50q0 -37 -24.5 -63t-59.5 -26zM269 134q10 -11 10 -22q0 -15 -18 -37q-32 -38 -73.5 -61.5
t-75.5 -23.5q-54 0 -54 59q0 10 3 26t9 41.5t16 61.5t25 87l51 180q-13 1 -27.5 1h-38.5h-41l4 19q4 19 11.5 25.5t30.5 12.5q11 3 26.5 6t31 5t29.5 3.5t23 1.5q41 0 41 -38q0 -17 -7 -52t-19 -80q-18 -65 -30.5 -111t-21 -76.5t-12.5 -47.5t-4 -24q0 -12 6 -12
q4 0 15.5 6.5t25 16.5t28 22t25.5 24zM232 629q-48 0 -48 50q0 37 24.5 63t59.5 26q48 0 48 -50q0 -37 -24.5 -63t-59.5 -26z" />
    <glyph glyph-name="Jcircumflex" unicode="&#x134;" horiz-adv-x="354" 
d="M205 622l-69 12q-21 3 -21 18q0 7 4 18t11 23h271l-13 -41q-15 -8 -38 -16t-49 -16l-106 -506q-17 -80 -40.5 -136.5t-55.5 -93.5t-74.5 -54t-96.5 -17q-42 0 -67 16.5t-25 44.5q0 19 10.5 37t29.5 31q16 -19 39.5 -31t46.5 -12q25 0 44.5 10.5t35.5 34.5t28.5 63
t24.5 97zM412 760q-31 41 -56.5 64t-43.5 40q-54 -55 -87.5 -79.5t-56.5 -24.5q-17 0 -32 11l-15 11q24 20 44.5 38.5t40 37.5t39 39t42.5 43l60 8q49 -48 80 -87.5t31 -64.5q0 -8 -6 -16t-15 -11z" />
    <glyph glyph-name="jcircumflex" unicode="&#x135;" horiz-adv-x="287" 
d="M51 446l3 19q2 10 4 16t6 9.5t11.5 6.5t19.5 6q10 3 25.5 6t31 5t30.5 3.5t25 1.5q38 0 38 -44q0 -12 -6 -48t-16.5 -87.5t-25.5 -116t-32 -134.5q-41 -166 -105 -245t-158 -79q-34 0 -56.5 17.5t-22.5 43.5q0 17 12.5 35.5t33.5 33.5q18 -22 34 -31.5t34 -9.5
q22 0 38 8.5t30.5 31.5t29 63.5t32.5 104.5q14 49 27.5 102.5t25 104.5t20.5 96.5t14 79.5q-11 1 -25 1h-37h-41zM329 588q-13 25 -23 43.5t-19 33.5t-17 28t-17 26q-32 -38 -54 -63t-37.5 -40t-26 -21.5t-18.5 -6.5q-6 0 -10.5 1.5t-11.5 4.5l-27 12q18 19 38 41.5
t40.5 46.5t40.5 49t37 48l78 12q16 -24 30 -49.5t24.5 -49t16.5 -43.5t6 -33q0 -23 -26 -32z" />
    <glyph glyph-name="uni0136" unicode="&#x136;" horiz-adv-x="700" 
d="M-23 0l13 41q11 6 36.5 15t54.5 17l116 549l-62 12q-21 4 -21 18q0 7 4 18t11 23h261l-13 -41q-14 -8 -37.5 -16.5t-46.5 -15.5l-52 -244l294 254q-19 5 -29.5 7.5t-18.5 5.5q-11 4 -14.5 7t-3.5 8t4.5 15t9.5 20h244q-1 -9 -4 -21t-6 -17q-9 -16 -79 -32l-308 -257
l38 -55q42 -61 79 -107.5t71 -80t66 -56.5t65 -36q-12 -41 -84 -41q-22 0 -42.5 7t-43 24t-48 45t-57.5 70q-19 24 -56 82t-82 133l-59 -280l78 -12q21 -3 21 -18q0 -7 -4 -18t-11 -23h-284zM258 -80q20 17 35 23.5t30 6.5q23 0 39 -15.5t16 -40.5t-13.5 -52.5t-34.5 -50
t-46 -37t-47 -14.5q-16 0 -27 16q36 30 52 56.5t16 52.5q0 21 -8 34z" />
    <glyph glyph-name="uni0137" unicode="&#x137;" horiz-adv-x="530" 
d="M184 264q48 1 94.5 17t80.5 43q29 23 42.5 46t13.5 51q0 35 -34 35q-25 0 -56 -17.5t-59.5 -45.5t-50.5 -62t-31 -67zM510 48q-6 -31 -25.5 -44.5t-57.5 -13.5q-56 0 -110 50.5t-97 142.5l-12 25q-6 -1 -12 -1h-17l-39 -188q-3 -11 -10 -15t-24 -4h-59l157 699
q-11 1 -25.5 1h-37.5h-44l3 16q4 21 11 28t29 12q11 3 28 6t34.5 5.5t33.5 4t25 1.5q20 0 28.5 -8t8.5 -28q0 -14 -4 -35.5t-10 -43.5l-66 -245q41 51 92 80t99 29q43 0 67.5 -23t24.5 -64q0 -46 -23 -84t-72 -74q-52 -38 -119 -56q46 -75 98 -116.5t100 -41.5h28zM185 -80
q20 17 35.5 23.5t30.5 6.5q23 0 36 -15t13 -40t-13 -52.5t-33.5 -50t-45 -37.5t-46.5 -15q-16 0 -27 16q70 58 70 109q0 21 -8 34z" />
    <glyph glyph-name="kgreenlandic" unicode="&#x138;" horiz-adv-x="542" 
d="M499 134q10 -10 10 -23q0 -14 -12 -35.5t-31 -40.5q-20 -21 -43.5 -33t-43.5 -12q-45 0 -87.5 63.5t-79.5 178.5l-17 -6q-11 -29 -20.5 -65t-17.5 -73l-13 -67q-5 -21 -34 -21h-59l73 318q9 39 15.5 72t9.5 55q-13 1 -27 1h-37h-41l3 21q2 18 9 24t31 12q26 7 57.5 11.5
t50.5 4.5q21 0 30 -9.5t9 -31.5q0 -17 -11 -66t-34 -137q81 121 150 184t119 63q60 0 60 -52q0 -19 -20 -51l-6 -10q-32 21 -55 21q-15 0 -35.5 -9.5t-43 -27t-45.5 -41.5t-45 -52q15 -48 33.5 -89t37.5 -71t38 -47t34 -17q24 0 76 71z" />
    <glyph glyph-name="Lacute" unicode="&#x139;" horiz-adv-x="579" 
d="M-23 0l13 41q11 6 36.5 15t54.5 17l116 549l-62 12q-21 4 -21 18q0 7 4 18t11 23h272l-13 -41q-11 -6 -37.5 -15t-57.5 -17l-115 -545h35q25 0 53.5 0.5t56.5 1.5t53 2t43 3l72 130h28q16 0 16 -25q0 -7 -1.5 -17.5t-3.5 -18.5q-8 -34 -25 -77t-35 -74h-493zM426 938
q12 -24 12 -46q0 -19 -11 -34.5t-38 -29.5t-72 -28t-112 -30l-4 9q-4 9 -4 18q0 22 30 40l191 118z" />
    <glyph glyph-name="lacute" unicode="&#x13a;" horiz-adv-x="307" 
d="M257 134q10 -11 10 -22q0 -18 -16 -37q-74 -85 -148 -85q-26 0 -40 16t-14 45q0 11 4.5 34.5t15.5 67.5l126 546q-11 1 -25.5 1h-37.5h-44l3 16q4 20 10.5 27.5t29.5 12.5q11 3 27.5 6t34.5 5.5t34 4t25 1.5q20 0 28.5 -8t8.5 -28q0 -16 -9 -55l-119 -517
q-7 -30 -10.5 -48t-3.5 -26q0 -13 8 -13q4 0 14.5 6.5t24 16.5t27 22.5t24.5 23.5zM368 989q11 -30 11 -51q0 -15 -9.5 -26.5t-36.5 -22t-76 -22t-128 -27.5l-4 12q-3 9 -3 17q0 11 7 18t28 18l204 104z" />
    <glyph glyph-name="uni013B" unicode="&#x13b;" horiz-adv-x="579" 
d="M-23 0l13 41q11 6 36.5 15t54.5 17l116 549l-62 12q-21 4 -21 18q0 7 4 18t11 23h272l-13 -41q-11 -6 -37.5 -15t-57.5 -17l-115 -545h35q25 0 53.5 0.5t56.5 1.5t53 2t43 3l72 130h28q16 0 16 -25q0 -7 -1.5 -17.5t-3.5 -18.5q-8 -34 -25 -77t-35 -74h-493zM186 -80
q20 17 35 23.5t30 6.5q23 0 39 -15.5t16 -40.5t-13.5 -52.5t-34.5 -50t-46 -37t-47 -14.5q-16 0 -27 16q36 30 52 56.5t16 52.5q0 21 -8 34z" />
    <glyph glyph-name="uni013C" unicode="&#x13c;" horiz-adv-x="307" 
d="M257 134q10 -11 10 -22q0 -18 -16 -37q-74 -85 -148 -85q-26 0 -40 16t-14 45q0 11 4.5 34.5t15.5 67.5l126 546q-11 1 -25.5 1h-37.5h-44l3 16q4 20 10.5 27.5t29.5 12.5q11 3 27.5 6t34.5 5.5t34 4t25 1.5q20 0 28.5 -8t8.5 -28q0 -16 -9 -55l-119 -517
q-7 -30 -10.5 -48t-3.5 -26q0 -13 8 -13q4 0 14.5 6.5t24 16.5t27 22.5t24.5 23.5zM28 -80q20 17 35.5 23.5t30.5 6.5q23 0 36 -15t13 -40t-13 -52.5t-33.5 -50t-45 -37.5t-46.5 -15q-16 0 -27 16q70 58 70 109q0 21 -8 34z" />
    <glyph glyph-name="Lcaron" unicode="&#x13d;" horiz-adv-x="579" 
d="M-23 0l13 41q11 6 36.5 15t54.5 17l116 549l-62 12q-21 4 -21 18q0 7 4 18t11 23h272l-13 -41q-11 -6 -37.5 -15t-57.5 -17l-115 -545h35q25 0 53.5 0.5t56.5 1.5t53 2t43 3l72 130h28q16 0 16 -25q0 -7 -1.5 -17.5t-3.5 -18.5q-8 -34 -25 -77t-35 -74h-493zM470 535
q-27 2 -27 27q0 7 12.5 64.5t32.5 146.5q74 0 74 -43q0 -41 -82 -196z" />
    <glyph glyph-name="lcaron" unicode="&#x13e;" horiz-adv-x="336" 
d="M257 134q10 -11 10 -22q0 -18 -16 -37q-74 -85 -148 -85q-26 0 -40 16t-14 45q0 11 4.5 34.5t15.5 67.5l126 546q-11 1 -25.5 1h-37.5h-44l3 16q4 20 10.5 27.5t29.5 12.5q11 3 27.5 6t34.5 5.5t34 4t25 1.5q20 0 28.5 -8t8.5 -28q0 -16 -9 -55l-119 -517
q-7 -30 -10.5 -48t-3.5 -26q0 -13 8 -13q4 0 14.5 6.5t24 16.5t27 22.5t24.5 23.5zM374 621q-27 2 -27 27q0 7 12.5 64.5t32.5 146.5q74 0 74 -43q0 -41 -82 -196z" />
    <glyph glyph-name="Ldot" unicode="&#x13f;" horiz-adv-x="585" 
d="M-23 0l13 41q11 6 36.5 15t54.5 17l116 549l-62 12q-21 4 -21 18q0 7 4 18t11 23h272l-13 -41q-11 -6 -37.5 -15t-57.5 -17l-115 -545h35q25 0 53.5 0.5t56.5 1.5t53 2t43 3l72 130h28q16 0 16 -25q0 -7 -1.5 -17.5t-3.5 -18.5q-8 -34 -25 -77t-35 -74h-493zM563 420
q0 -18 -7 -33.5t-19 -27t-28 -18t-34 -6.5q-23 0 -36.5 12.5t-13.5 35.5q0 18 7 34t19 28.5t28 19.5t34 7q23 0 36.5 -14.5t13.5 -37.5z" />
    <glyph glyph-name="ldot" unicode="&#x140;" horiz-adv-x="407" 
d="M257 134q10 -11 10 -22q0 -18 -16 -37q-74 -85 -148 -85q-26 0 -40 16t-14 45q0 11 4.5 34.5t15.5 67.5l126 546q-11 1 -25.5 1h-37.5h-44l3 16q4 20 10.5 27.5t29.5 12.5q11 3 27.5 6t34.5 5.5t34 4t25 1.5q20 0 28.5 -8t8.5 -28q0 -16 -9 -55l-119 -517
q-7 -30 -10.5 -48t-3.5 -26q0 -13 8 -13q4 0 14.5 6.5t24 16.5t27 22.5t24.5 23.5zM432 384q0 -34 -24.5 -57.5t-59.5 -23.5q-23 0 -35.5 12t-12.5 34q0 35 25 60t59 25q22 0 35 -13.5t13 -36.5z" />
    <glyph glyph-name="Lslash" unicode="&#x141;" horiz-adv-x="579" 
d="M-23 0l13 41q11 6 36.5 15t54.5 17l45 212l-103 -48l-25 52l143 67l56 266l-62 12q-21 4 -21 18q0 7 4 18t11 23h272l-13 -41q-11 -6 -37.5 -15t-57.5 -17l-45 -214l123 58l26 -52l-164 -77l-55 -260h35q25 0 53.5 0.5t56.5 1.5t53 2t43 3l72 130h28q16 0 16 -25
q0 -7 -1.5 -17.5t-3.5 -18.5q-8 -34 -25 -77t-35 -74h-493z" />
    <glyph glyph-name="lslash" unicode="&#x142;" horiz-adv-x="307" 
d="M257 134q10 -11 10 -22q0 -18 -16 -37q-74 -85 -148 -85q-26 0 -40 16t-14 45q0 11 4.5 34.5t15.5 67.5l36 157l-82 -50l-29 46l128 78l73 315q-11 1 -25.5 1h-37.5h-44l3 16q4 20 10.5 27.5t29.5 12.5q11 3 27.5 6t34.5 5.5t34 4t25 1.5q20 0 28.5 -8t8.5 -28
q0 -16 -9 -55l-54 -235l81 50l29 -46l-127 -78l-48 -208q-7 -30 -10.5 -48t-3.5 -26q0 -13 8 -13q4 0 14.5 6.5t24 16.5t27 22.5t24.5 23.5z" />
    <glyph glyph-name="Nacute" unicode="&#x143;" horiz-adv-x="764" 
d="M494 -13l-241 529l-92 -448l57 -12q21 -4 21 -18q0 -12 -13 -38h-246l12 38q11 6 35.5 14.5t50.5 16.5l115 551l-42 13q-17 5 -29 13t-12 14q0 5 3.5 15t8.5 18h154l245 -549l99 481l-57 12q-21 4 -21 18q0 12 13 38h241l-12 -38q-14 -7 -35 -14.5t-47 -15.5l-130 -625z
M602 938q12 -24 12 -46q0 -19 -11 -34.5t-38 -29.5t-72 -28t-112 -30l-4 9q-4 9 -4 18q0 22 30 40l191 118z" />
    <glyph glyph-name="nacute" unicode="&#x144;" horiz-adv-x="616" 
d="M570 134q10 -11 10 -22q0 -18 -16 -37q-74 -85 -148 -85q-26 0 -40 16t-14 45q0 8 2.5 23.5t9.5 45.5t19 78t31 121q8 29 11.5 51t3.5 33q0 35 -26 35q-32 0 -71.5 -32t-76 -82.5t-65.5 -113t-41 -122.5l-13 -67q-5 -21 -34 -21h-61l59 256q8 36 14.5 64t11 50.5t8 40.5
t5.5 34q-13 1 -27 1h-37h-41l3 21q2 18 9 24t31 12q26 7 57.5 11.5t50.5 4.5q41 0 41 -41q0 -18 -9 -59.5t-24 -96.5q26 45 56.5 82t62.5 63.5t64 40.5t61 14q85 0 85 -84q0 -21 -5.5 -52.5t-14.5 -65.5q-30 -112 -43.5 -164.5t-13.5 -64.5q0 -13 8 -13q4 0 16 7t26.5 17.5
t29 22.5t23.5 22zM327 604q-15 10 -15 24q0 13 18 37l115 152l27 -15q28 -15 28 -40q0 -18 -42.5 -62t-118.5 -105z" />
    <glyph glyph-name="uni0145" unicode="&#x145;" horiz-adv-x="764" 
d="M494 -13l-241 529l-92 -448l57 -12q21 -4 21 -18q0 -12 -13 -38h-246l12 38q11 6 35.5 14.5t50.5 16.5l115 551l-42 13q-17 5 -29 13t-12 14q0 5 3.5 15t8.5 18h154l245 -549l99 481l-57 12q-21 4 -21 18q0 12 13 38h241l-12 -38q-14 -7 -35 -14.5t-47 -15.5l-130 -625z
M261 -80q20 17 35 23.5t30 6.5q23 0 39 -15.5t16 -40.5t-13.5 -52.5t-34.5 -50t-46 -37t-47 -14.5q-16 0 -27 16q36 30 52 56.5t16 52.5q0 21 -8 34z" />
    <glyph glyph-name="uni0146" unicode="&#x146;" horiz-adv-x="616" 
d="M570 134q10 -11 10 -22q0 -18 -16 -37q-74 -85 -148 -85q-26 0 -40 16t-14 45q0 8 2.5 23.5t9.5 45.5t19 78t31 121q8 29 11.5 51t3.5 33q0 35 -26 35q-32 0 -71.5 -32t-76 -82.5t-65.5 -113t-41 -122.5l-13 -67q-5 -21 -34 -21h-61l59 256q8 36 14.5 64t11 50.5t8 40.5
t5.5 34q-13 1 -27 1h-37h-41l3 21q2 18 9 24t31 12q26 7 57.5 11.5t50.5 4.5q41 0 41 -41q0 -18 -9 -59.5t-24 -96.5q26 45 56.5 82t62.5 63.5t64 40.5t61 14q85 0 85 -84q0 -21 -5.5 -52.5t-14.5 -65.5q-30 -112 -43.5 -164.5t-13.5 -64.5q0 -13 8 -13q4 0 16 7t26.5 17.5
t29 22.5t23.5 22zM203 -80q20 17 35.5 23.5t30.5 6.5q23 0 36 -15t13 -40t-13 -52.5t-33.5 -50t-45 -37.5t-46.5 -15q-16 0 -27 16q70 58 70 109q0 21 -8 34z" />
    <glyph glyph-name="Ncaron" unicode="&#x147;" horiz-adv-x="764" 
d="M494 -13l-241 529l-92 -448l57 -12q21 -4 21 -18q0 -12 -13 -38h-246l12 38q11 6 35.5 14.5t50.5 16.5l115 551l-42 13q-17 5 -29 13t-12 14q0 5 3.5 15t8.5 18h154l245 -549l99 481l-57 12q-21 4 -21 18q0 12 13 38h241l-12 -38q-14 -7 -35 -14.5t-47 -15.5l-130 -625z
M417 762q-53 55 -82 98.5t-29 66.5q0 8 5 14.5t19 11.5l30 12q33 -45 55 -74t41 -48q41 38 67 61.5t42 36t25.5 17t18.5 4.5q15 0 27 -8l24 -16q-54 -47 -100.5 -90t-88.5 -86h-54z" />
    <glyph glyph-name="ncaron" unicode="&#x148;" horiz-adv-x="616" 
d="M570 134q10 -11 10 -22q0 -18 -16 -37q-74 -85 -148 -85q-26 0 -40 16t-14 45q0 8 2.5 23.5t9.5 45.5t19 78t31 121q8 29 11.5 51t3.5 33q0 35 -26 35q-32 0 -71.5 -32t-76 -82.5t-65.5 -113t-41 -122.5l-13 -67q-5 -21 -34 -21h-61l59 256q8 36 14.5 64t11 50.5t8 40.5
t5.5 34q-13 1 -27 1h-37h-41l3 21q2 18 9 24t31 12q26 7 57.5 11.5t50.5 4.5q41 0 41 -41q0 -18 -9 -59.5t-24 -96.5q26 45 56.5 82t62.5 63.5t64 40.5t61 14q85 0 85 -84q0 -21 -5.5 -52.5t-14.5 -65.5q-30 -112 -43.5 -164.5t-13.5 -64.5q0 -13 8 -13q4 0 16 7t26.5 17.5
t29 22.5t23.5 22zM312 602q-35 52 -57.5 95.5t-22.5 69.5q0 23 26 32l29 9q10 -25 18.5 -42.5t16 -32.5t15.5 -28t18 -29q59 71 92.5 102t50.5 31q7 0 11.5 -1.5t10.5 -4.5l25 -13q-31 -33 -76.5 -82t-90.5 -106h-66z" />
    <glyph glyph-name="napostrophe" unicode="&#x149;" horiz-adv-x="826" 
d="M780 134q10 -11 10 -22q0 -18 -16 -37q-74 -85 -148 -85q-26 0 -40 16t-14 45q0 8 2.5 23.5t9.5 45.5t19 78t31 121q8 29 11.5 51t3.5 33q0 35 -26 35q-32 0 -71.5 -32t-76 -82.5t-65.5 -113t-41 -122.5l-13 -67q-5 -21 -34 -21h-61l59 256q8 36 14.5 64t11 50.5t8 40.5
t5.5 34q-13 1 -27 1h-37h-41l3 21q2 18 9 24t31 12q26 7 57.5 11.5t50.5 4.5q41 0 41 -41q0 -18 -9 -59.5t-24 -96.5q26 45 56.5 82t62.5 63.5t64 40.5t61 14q85 0 85 -84q0 -21 -5.5 -52.5t-14.5 -65.5q-30 -112 -43.5 -164.5t-13.5 -64.5q0 -13 8 -13q4 0 16 7t26.5 17.5
t29 22.5t23.5 22zM126 709q20 14 41 22t39 8q53 0 53 -64q0 -29 -17.5 -69t-42.5 -77t-52.5 -62.5t-47.5 -25.5q-8 0 -17 6t-12 13q38 47 58.5 92t20.5 81q0 11 -3 25t-9 28z" />
    <glyph glyph-name="Eng" unicode="&#x14a;" horiz-adv-x="764" 
d="M253 516l-92 -448l57 -12q11 -3 16 -6.5t5 -11.5q0 -12 -13 -38h-246l12 38q11 6 35.5 14.5t50.5 16.5l115 551l-42 13q-17 5 -29 13t-12 14q0 5 3.5 15t8.5 18h154l245 -549l99 481l-57 12q-11 3 -16 6.5t-5 11.5q0 12 13 38h241l-12 -38q-14 -7 -35 -14.5t-47 -15.5
l-97 -467q-38 -179 -99.5 -262t-158.5 -83q-38 0 -61 17t-23 44q0 18 10 35t30 30q16 -20 38.5 -31.5t42.5 -11.5q69 2 109 105z" />
    <glyph glyph-name="eng" unicode="&#x14b;" horiz-adv-x="580" 
d="M51 0q12 51 27.5 119t31.5 137q14 61 24 106.5t15 82.5q-13 1 -27 1h-37h-41l3 21q2 18 9 24t31 12q26 7 57.5 11.5t50.5 4.5q41 0 41 -41q0 -18 -9 -59.5t-24 -96.5q26 45 56.5 82t62.5 63.5t64 40.5t61 14q85 0 85 -84q0 -21 -5 -51.5t-13 -63.5q-7 -29 -15 -61.5
t-15.5 -64.5t-15 -60.5l-12.5 -47.5q-44 -168 -107.5 -246t-155.5 -78q-34 0 -56.5 17.5t-22.5 43.5q0 17 12.5 35.5t33.5 33.5q18 -22 34 -31.5t34 -9.5q22 0 38.5 9t31.5 33t29.5 65.5t32.5 106.5q7 25 15.5 58.5t17 68t17 67t14.5 57.5q7 28 11 50.5t4 33.5q0 35 -26 35
q-32 0 -71.5 -32t-76 -82.5t-65.5 -113t-41 -122.5l-13 -67q-5 -21 -34 -21h-61z" />
    <glyph glyph-name="Omacron" unicode="&#x14c;" horiz-adv-x="739" 
d="M315 65q66 0 118 30.5t88 80t55 112.5t19 127q0 98 -41.5 156t-129.5 58q-66 0 -118 -30.5t-88 -80t-55 -112.5t-19 -127q0 -98 41 -156t130 -58zM295 -10q-61 0 -108.5 19.5t-80 55.5t-49.5 86.5t-17 112.5q0 81 27 160t79 141.5t127 100.5t171 38q61 0 108.5 -19.5
t80 -55.5t49.5 -86.5t17 -112.5q0 -81 -27 -160t-79 -141.5t-127 -100.5t-171 -38zM335 807q-34 0 -34 25q0 13 14 54h253q19 0 26.5 -5.5t7.5 -18.5q0 -11 -14 -55h-253z" />
    <glyph glyph-name="omacron" unicode="&#x14d;" horiz-adv-x="544" 
d="M224 62q37 0 70.5 21.5t58.5 57.5t39.5 84.5t14.5 102.5q0 122 -87 122q-37 0 -70.5 -21.5t-58.5 -57.5t-39.5 -84.5t-14.5 -102.5q0 -122 87 -122zM210 -10q-81 0 -125 47.5t-44 135.5q0 72 23 135.5t63 111t93.5 75t114.5 27.5q80 0 124 -48t44 -136q0 -71 -23 -134.5
t-63 -111t-93 -75t-114 -27.5zM255 633q-34 0 -34 25q0 12 14 50h253q34 0 34 -25q0 -12 -14 -50h-253z" />
    <glyph glyph-name="Obreve" unicode="&#x14e;" horiz-adv-x="739" 
d="M315 65q66 0 118 30.5t88 80t55 112.5t19 127q0 98 -41.5 156t-129.5 58q-66 0 -118 -30.5t-88 -80t-55 -112.5t-19 -127q0 -98 41 -156t130 -58zM295 -10q-61 0 -108.5 19.5t-80 55.5t-49.5 86.5t-17 112.5q0 81 27 160t79 141.5t127 100.5t171 38q61 0 108.5 -19.5
t80 -55.5t49.5 -86.5t17 -112.5q0 -81 -27 -160t-79 -141.5t-127 -100.5t-171 -38zM610 935q1 -5 1.5 -9.5t0.5 -8.5q-1 -29 -22 -57q-63 -81 -157 -81q-27 0 -50 8.5t-40.5 22.5t-27.5 33.5t-10 41.5q0 36 39 51l22 8q17 -48 36.5 -67t54.5 -19q73 0 150 89z" />
    <glyph glyph-name="obreve" unicode="&#x14f;" horiz-adv-x="544" 
d="M224 62q37 0 70.5 21.5t58.5 57.5t39.5 84.5t14.5 102.5q0 122 -87 122q-37 0 -70.5 -21.5t-58.5 -57.5t-39.5 -84.5t-14.5 -102.5q0 -122 87 -122zM210 -10q-81 0 -125 47.5t-44 135.5q0 72 23 135.5t63 111t93.5 75t114.5 27.5q80 0 124 -48t44 -136q0 -71 -23 -134.5
t-63 -111t-93 -75t-114 -27.5zM529 758q2 -8 2 -15q0 -28 -21 -56q-29 -38 -68 -59t-84 -21q-56 0 -93.5 29t-37.5 77q0 34 39 49l20 8q13 -46 34.5 -65.5t59.5 -19.5q36 0 73 22.5t72 65.5z" />
    <glyph glyph-name="Ohungarumlaut" unicode="&#x150;" horiz-adv-x="739" 
d="M315 65q66 0 118 30.5t88 80t55 112.5t19 127q0 98 -41.5 156t-129.5 58q-66 0 -118 -30.5t-88 -80t-55 -112.5t-19 -127q0 -98 41 -156t130 -58zM295 -10q-61 0 -108.5 19.5t-80 55.5t-49.5 86.5t-17 112.5q0 81 27 160t79 141.5t127 100.5t171 38q61 0 108.5 -19.5
t80 -55.5t49.5 -86.5t17 -112.5q0 -81 -27 -160t-79 -141.5t-127 -100.5t-171 -38zM285 770q-10 16 -10 25q0 18 24 38l180 138l12 -18q13 -20 17.5 -30.5t4.5 -21.5q0 -12 -10.5 -24.5t-36 -28.5t-68 -37.5t-107.5 -50.5zM516 770q-10 16 -10 25q0 18 24 38l180 138l12 -18
q13 -20 17.5 -30.5t4.5 -21.5q0 -12 -10.5 -24.5t-36 -28.5t-68 -37.5t-107.5 -50.5z" />
    <glyph glyph-name="ohungarumlaut" unicode="&#x151;" horiz-adv-x="544" 
d="M224 62q37 0 70.5 21.5t58.5 57.5t39.5 84.5t14.5 102.5q0 122 -87 122q-37 0 -70.5 -21.5t-58.5 -57.5t-39.5 -84.5t-14.5 -102.5q0 -122 87 -122zM210 -10q-81 0 -125 47.5t-44 135.5q0 72 23 135.5t63 111t93.5 75t114.5 27.5q80 0 124 -48t44 -136q0 -71 -23 -134.5
t-63 -111t-93 -75t-114 -27.5zM232 593q-20 12 -20 29q0 14 11 28l117 160l24 -17q20 -14 26.5 -22t6.5 -17q0 -12 -11.5 -30t-32 -40t-49 -47t-62.5 -50zM411 593q-20 12 -20 29q0 14 11 28l117 160l24 -17q20 -14 26.5 -22t6.5 -17q0 -12 -11.5 -30t-32 -40t-49 -47
t-62.5 -50z" />
    <glyph glyph-name="OE" unicode="&#x152;" horiz-adv-x="966" 
d="M483 0q-29 -3 -52 -5t-44 -3t-43 -1.5t-49 -0.5q-59 0 -106 18.5t-80 53.5t-51 85t-18 112q0 92 31.5 172t86 139t128 93t158.5 34q23 0 44.5 -1t40.5 -3h425q-3 -40 -15 -95q-10 -49 -22 -67.5t-35 -18.5h-15v100q-87 6 -163 6h-59l-50 -236l204 7q18 1 24 -1.5t6 -10.5
t-6.5 -26t-15.5 -35h-225l-51 -241h19q32 0 63.5 0.5t60 1.5t52 2t39.5 3l65 116h13q29 0 29 -28q0 -13 -5 -35.5t-12.5 -48t-16.5 -49t-17 -37.5h-338zM550 619q-41 3 -91 3q-70 0 -128 -25.5t-99.5 -71t-64.5 -109.5t-23 -141q0 -104 51 -158.5t149 -54.5q20 0 40.5 2.5
t49.5 8.5z" />
    <glyph glyph-name="oe" unicode="&#x153;" horiz-adv-x="817" 
d="M746 132q8 -12 8 -20q0 -16 -22 -38q-19 -19 -43.5 -34.5t-50.5 -26.5t-53.5 -17t-52.5 -6q-100 0 -132 86q-42 -42 -90.5 -64t-99.5 -22q-81 0 -125 47.5t-44 135.5q0 72 23 135.5t63 111t93.5 75t114.5 27.5q110 0 147 -96q42 47 92 71.5t105 24.5q50 0 79 -27t29 -73
q0 -77 -80 -137.5t-231 -97.5q0 -60 19.5 -87t64.5 -27q38 0 79.5 17t97.5 56zM224 62q37 0 70.5 21.5t58.5 57.5t39.5 84.5t14.5 102.5q0 122 -87 122q-37 0 -70.5 -21.5t-58.5 -57.5t-39.5 -84.5t-14.5 -102.5q0 -122 87 -122zM484 250q49 14 88.5 32.5t67.5 39.5t43 44
t15 46t-13 36t-36 13q-26 0 -45.5 -9t-44.5 -33q-26 -24 -46.5 -70.5t-28.5 -98.5z" />
    <glyph glyph-name="Racute" unicode="&#x154;" horiz-adv-x="648" 
d="M-23 0l13 41q11 6 35.5 15t55.5 17l116 554q-20 -2 -48 -6.5t-48 -9.5q-2 6 -3 14t-1 12q0 15 12.5 25.5t41.5 19.5q33 11 78.5 16.5t93.5 5.5q118 0 177.5 -42t59.5 -126q0 -80 -51 -139.5t-143 -86.5q44 -103 108.5 -177t140.5 -107q-6 -17 -24.5 -26.5t-44.5 -9.5
q-69 0 -138.5 79.5t-126.5 224.5q-20 -2 -33.5 -3t-26.5 -1l-46 -220l72 -11q21 -3 21 -18q0 -13 -16 -41h-275zM234 355q53 1 95.5 13.5t72.5 34.5t46 52.5t16 68.5q0 55 -34.5 84t-100.5 29h-17.5t-18.5 -1zM505 938q12 -24 12 -46q0 -19 -11 -34.5t-38 -29.5t-72 -28
t-112 -30l-4 9q-4 9 -4 18q0 22 30 40l191 118z" />
    <glyph glyph-name="racute" unicode="&#x155;" horiz-adv-x="428" 
d="M56 0l74 319q3 13 6.5 29t6.5 33t6 33.5t5 30.5q-12 1 -27 1h-40h-41l3 21q2 18 9 24t31 12q13 3 28 6t30.5 5.5t29.5 3.5t24 1q36 0 36 -44q0 -9 -3 -28.5t-9 -45.5t-13.5 -57t-16.5 -63q13 31 32.5 72.5t44.5 79t55.5 63.5t65.5 26q23 0 36 -12t13 -34q0 -9 -3.5 -23.5
t-9.5 -32.5l-5 -15q-17 5 -32.5 7.5t-26.5 2.5q-19 0 -36.5 -14t-40.5 -46q-65 -94 -97 -175q-11 -28 -18.5 -56.5t-15.5 -71.5l-6 -31q-5 -21 -34 -21h-61zM277 604q-15 10 -15 24q0 13 18 37l115 152l27 -15q28 -15 28 -40q0 -18 -42.5 -62t-118.5 -105z" />
    <glyph glyph-name="uni0156" unicode="&#x156;" horiz-adv-x="648" 
d="M-23 0l13 41q11 6 35.5 15t55.5 17l116 554q-20 -2 -48 -6.5t-48 -9.5q-2 6 -3 14t-1 12q0 15 12.5 25.5t41.5 19.5q33 11 78.5 16.5t93.5 5.5q118 0 177.5 -42t59.5 -126q0 -80 -51 -139.5t-143 -86.5q44 -103 108.5 -177t140.5 -107q-6 -17 -24.5 -26.5t-44.5 -9.5
q-69 0 -138.5 79.5t-126.5 224.5q-20 -2 -33.5 -3t-26.5 -1l-46 -220l72 -11q21 -3 21 -18q0 -13 -16 -41h-275zM234 355q53 1 95.5 13.5t72.5 34.5t46 52.5t16 68.5q0 55 -34.5 84t-100.5 29h-17.5t-18.5 -1zM225 -80q20 17 35 23.5t30 6.5q23 0 39 -15.5t16 -40.5
t-13.5 -52.5t-34.5 -50t-46 -37t-47 -14.5q-16 0 -27 16q36 30 52 56.5t16 52.5q0 21 -8 34z" />
    <glyph glyph-name="uni0157" unicode="&#x157;" horiz-adv-x="428" 
d="M56 0l74 319q3 13 6.5 29t6.5 33t6 33.5t5 30.5q-12 1 -27 1h-40h-41l3 21q2 18 9 24t31 12q13 3 28 6t30.5 5.5t29.5 3.5t24 1q36 0 36 -44q0 -9 -3 -28.5t-9 -45.5t-13.5 -57t-16.5 -63q13 31 32.5 72.5t44.5 79t55.5 63.5t65.5 26q23 0 36 -12t13 -34q0 -9 -3.5 -23.5
t-9.5 -32.5l-5 -15q-17 5 -32.5 7.5t-26.5 2.5q-19 0 -36.5 -14t-40.5 -46q-65 -94 -97 -175q-11 -28 -18.5 -56.5t-15.5 -71.5l-6 -31q-5 -21 -34 -21h-61zM25 -80q20 17 35.5 23.5t30.5 6.5q23 0 36 -15t13 -40t-13 -52.5t-33.5 -50t-45 -37.5t-46.5 -15q-16 0 -27 16
q70 58 70 109q0 21 -8 34z" />
    <glyph glyph-name="Rcaron" unicode="&#x158;" horiz-adv-x="648" 
d="M-23 0l13 41q11 6 35.5 15t55.5 17l116 554q-20 -2 -48 -6.5t-48 -9.5q-2 6 -3 14t-1 12q0 15 12.5 25.5t41.5 19.5q33 11 78.5 16.5t93.5 5.5q118 0 177.5 -42t59.5 -126q0 -80 -51 -139.5t-143 -86.5q44 -103 108.5 -177t140.5 -107q-6 -17 -24.5 -26.5t-44.5 -9.5
q-69 0 -138.5 79.5t-126.5 224.5q-20 -2 -33.5 -3t-26.5 -1l-46 -220l72 -11q21 -3 21 -18q0 -13 -16 -41h-275zM234 355q53 1 95.5 13.5t72.5 34.5t46 52.5t16 68.5q0 55 -34.5 84t-100.5 29h-17.5t-18.5 -1zM320 762q-53 55 -82 98.5t-29 66.5q0 8 5 14.5t19 11.5l30 12
q33 -45 55 -74t41 -48q41 38 67 61.5t42 36t25.5 17t18.5 4.5q15 0 27 -8l24 -16q-54 -47 -100.5 -90t-88.5 -86h-54z" />
    <glyph glyph-name="rcaron" unicode="&#x159;" horiz-adv-x="428" 
d="M56 0l74 319q3 13 6.5 29t6.5 33t6 33.5t5 30.5q-12 1 -27 1h-40h-41l3 21q2 18 9 24t31 12q13 3 28 6t30.5 5.5t29.5 3.5t24 1q36 0 36 -44q0 -9 -3 -28.5t-9 -45.5t-13.5 -57t-16.5 -63q13 31 32.5 72.5t44.5 79t55.5 63.5t65.5 26q23 0 36 -12t13 -34q0 -9 -3.5 -23.5
t-9.5 -32.5l-5 -15q-17 5 -32.5 7.5t-26.5 2.5q-19 0 -36.5 -14t-40.5 -46q-65 -94 -97 -175q-11 -28 -18.5 -56.5t-15.5 -71.5l-6 -31q-5 -21 -34 -21h-61zM262 602q-35 52 -57.5 95.5t-22.5 69.5q0 23 26 32l29 9q10 -25 18.5 -42.5t16 -32.5t15.5 -28t18 -29
q59 71 92.5 102t50.5 31q7 0 11.5 -1.5t10.5 -4.5l25 -13q-31 -33 -76.5 -82t-90.5 -106h-66z" />
    <glyph glyph-name="Sacute" unicode="&#x15a;" horiz-adv-x="533" 
d="M408 494l2 24q3 45 3 93q-23 10 -52 16.5t-51 6.5q-58 0 -90 -27.5t-32 -78.5q0 -19 6 -35t19.5 -31.5t36 -32.5t56.5 -37q44 -27 73.5 -49t47 -43.5t24.5 -45t7 -51.5q0 -46 -19 -85t-52.5 -67.5t-80 -44.5t-100.5 -16q-56 0 -106.5 17.5t-91.5 49.5q3 76 13 122
q6 27 16 39t27 12h27v-23q0 -41 6.5 -68.5t21.5 -44t39.5 -24t60.5 -7.5q64 0 102 31.5t38 84.5q0 20 -5 36t-18 31t-35.5 31t-58.5 37q-42 24 -71 46.5t-47.5 45t-26.5 46t-8 50.5q0 43 17.5 80t49 64t74 42.5t93.5 15.5q46 0 94.5 -11t85.5 -29q0 -13 -2.5 -34.5
t-5.5 -38.5q-11 -54 -26.5 -75.5t-43.5 -21.5h-17zM487 938q12 -24 12 -46q0 -19 -11 -34.5t-38 -29.5t-72 -28t-112 -30l-4 9q-4 9 -4 18q0 22 30 40l191 118z" />
    <glyph glyph-name="sacute" unicode="&#x15b;" horiz-adv-x="413" 
d="M361 401q-36 26 -63 36.5t-54 10.5q-33 0 -53 -14.5t-20 -38.5q0 -11 4 -20.5t13.5 -21t26.5 -25.5t44 -33q55 -39 75 -68t20 -63q0 -35 -16.5 -66.5t-43.5 -55.5t-63 -38t-75 -14q-31 0 -58 7.5t-47.5 20t-32 30t-11.5 37.5q0 14 6 25.5t21 24.5l23 20q35 -51 66 -70.5
t69 -19.5q72 0 72 61q0 29 -17.5 53t-66.5 59q-53 38 -74 67t-21 63q0 52 52 97q32 27 72.5 42t83.5 15q45 0 70 -15t25 -43q0 -24 -20 -53zM253 604q-15 10 -15 24q0 13 18 37l115 152l27 -15q28 -15 28 -40q0 -18 -42.5 -62t-118.5 -105z" />
    <glyph glyph-name="Scircumflex" unicode="&#x15c;" horiz-adv-x="533" 
d="M408 494l2 24q3 45 3 93q-23 10 -52 16.5t-51 6.5q-58 0 -90 -27.5t-32 -78.5q0 -19 6 -35t19.5 -31.5t36 -32.5t56.5 -37q44 -27 73.5 -49t47 -43.5t24.5 -45t7 -51.5q0 -46 -19 -85t-52.5 -67.5t-80 -44.5t-100.5 -16q-56 0 -106.5 17.5t-91.5 49.5q3 76 13 122
q6 27 16 39t27 12h27v-23q0 -41 6.5 -68.5t21.5 -44t39.5 -24t60.5 -7.5q64 0 102 31.5t38 84.5q0 20 -5 36t-18 31t-35.5 31t-58.5 37q-42 24 -71 46.5t-47.5 45t-26.5 46t-8 50.5q0 43 17.5 80t49 64t74 42.5t93.5 15.5q46 0 94.5 -11t85.5 -29q0 -13 -2.5 -34.5
t-5.5 -38.5q-11 -54 -26.5 -75.5t-43.5 -21.5h-17zM465 760q-31 41 -56.5 64t-43.5 40q-54 -55 -87.5 -79.5t-56.5 -24.5q-17 0 -32 11l-15 11q24 20 44.5 38.5t40 37.5t39 39t42.5 43l60 8q49 -48 80 -87.5t31 -64.5q0 -8 -6 -16t-15 -11z" />
    <glyph glyph-name="scircumflex" unicode="&#x15d;" horiz-adv-x="413" 
d="M361 401q-36 26 -63 36.5t-54 10.5q-33 0 -53 -14.5t-20 -38.5q0 -11 4 -20.5t13.5 -21t26.5 -25.5t44 -33q55 -39 75 -68t20 -63q0 -35 -16.5 -66.5t-43.5 -55.5t-63 -38t-75 -14q-31 0 -58 7.5t-47.5 20t-32 30t-11.5 37.5q0 14 6 25.5t21 24.5l23 20q35 -51 66 -70.5
t69 -19.5q72 0 72 61q0 29 -17.5 53t-66.5 59q-53 38 -74 67t-21 63q0 52 52 97q32 27 72.5 42t83.5 15q45 0 70 -15t25 -43q0 -24 -20 -53zM380 588q-13 25 -23 43.5t-19 33.5t-17 28t-17 26q-32 -38 -54 -63t-37.5 -40t-26 -21.5t-18.5 -6.5q-6 0 -10.5 1.5t-11.5 4.5
l-27 12q18 19 38 41.5t40.5 46.5t40.5 49t37 48l78 12q16 -24 30 -49.5t24.5 -49t16.5 -43.5t6 -33q0 -23 -26 -32z" />
    <glyph glyph-name="Scedilla" unicode="&#x15e;" horiz-adv-x="533" 
d="M408 494l2 24q3 45 3 93q-23 10 -52 16.5t-51 6.5q-58 0 -90 -27.5t-32 -78.5q0 -19 6 -35t19.5 -31.5t36 -32.5t56.5 -37q44 -27 73.5 -49t47 -43.5t24.5 -45t7 -51.5q0 -46 -19 -85t-52.5 -67.5t-80 -44.5t-100.5 -16q-56 0 -106.5 17.5t-91.5 49.5q3 76 13 122
q6 27 16 39t27 12h27v-23q0 -41 6.5 -68.5t21.5 -44t39.5 -24t60.5 -7.5q64 0 102 31.5t38 84.5q0 20 -5 36t-18 31t-35.5 31t-58.5 37q-42 24 -71 46.5t-47.5 45t-26.5 46t-8 50.5q0 43 17.5 80t49 64t74 42.5t93.5 15.5q46 0 94.5 -11t85.5 -29q0 -13 -2.5 -34.5
t-5.5 -38.5q-11 -54 -26.5 -75.5t-43.5 -21.5h-17zM96 -234q50 20 80.5 48t30.5 52q0 22 -38 22h-24v14q0 48 71 48q35 0 56 -17t21 -45q0 -27 -14.5 -53.5t-37.5 -47.5t-52 -34t-58 -13q-20 0 -29 15z" />
    <glyph glyph-name="scedilla" unicode="&#x15f;" horiz-adv-x="413" 
d="M361 401q-36 26 -63 36.5t-54 10.5q-33 0 -53 -14.5t-20 -38.5q0 -11 4 -20.5t13.5 -21t26.5 -25.5t44 -33q55 -39 75 -68t20 -63q0 -35 -16.5 -66.5t-43.5 -55.5t-63 -38t-75 -14q-31 0 -58 7.5t-47.5 20t-32 30t-11.5 37.5q0 14 6 25.5t21 24.5l23 20q35 -51 66 -70.5
t69 -19.5q72 0 72 61q0 29 -17.5 53t-66.5 59q-53 38 -74 67t-21 63q0 52 52 97q32 27 72.5 42t83.5 15q45 0 70 -15t25 -43q0 -24 -20 -53zM41 -236q24 10 45 23t36 27t24 28.5t9 26.5q0 22 -38 22h-27v11q0 48 71 48q34 0 54.5 -16.5t20.5 -44.5q0 -26 -14.5 -52.5
t-37.5 -48t-51.5 -35t-56.5 -13.5q-20 0 -29 15z" />
    <glyph glyph-name="Scaron" unicode="&#x160;" horiz-adv-x="533" 
d="M408 494l2 24q3 45 3 93q-23 10 -52 16.5t-51 6.5q-58 0 -90 -27.5t-32 -78.5q0 -19 6 -35t19.5 -31.5t36 -32.5t56.5 -37q44 -27 73.5 -49t47 -43.5t24.5 -45t7 -51.5q0 -46 -19 -85t-52.5 -67.5t-80 -44.5t-100.5 -16q-56 0 -106.5 17.5t-91.5 49.5q3 76 13 122
q6 27 16 39t27 12h27v-23q0 -41 6.5 -68.5t21.5 -44t39.5 -24t60.5 -7.5q64 0 102 31.5t38 84.5q0 20 -5 36t-18 31t-35.5 31t-58.5 37q-42 24 -71 46.5t-47.5 45t-26.5 46t-8 50.5q0 43 17.5 80t49 64t74 42.5t93.5 15.5q46 0 94.5 -11t85.5 -29q0 -13 -2.5 -34.5
t-5.5 -38.5q-11 -54 -26.5 -75.5t-43.5 -21.5h-17zM302 762q-53 55 -82 98.5t-29 66.5q0 8 5 14.5t19 11.5l30 12q33 -45 55 -74t41 -48q41 38 67 61.5t42 36t25.5 17t18.5 4.5q15 0 27 -8l24 -16q-54 -47 -100.5 -90t-88.5 -86h-54z" />
    <glyph glyph-name="scaron" unicode="&#x161;" horiz-adv-x="413" 
d="M361 401q-36 26 -63 36.5t-54 10.5q-33 0 -53 -14.5t-20 -38.5q0 -11 4 -20.5t13.5 -21t26.5 -25.5t44 -33q55 -39 75 -68t20 -63q0 -35 -16.5 -66.5t-43.5 -55.5t-63 -38t-75 -14q-31 0 -58 7.5t-47.5 20t-32 30t-11.5 37.5q0 14 6 25.5t21 24.5l23 20q35 -51 66 -70.5
t69 -19.5q72 0 72 61q0 29 -17.5 53t-66.5 59q-53 38 -74 67t-21 63q0 52 52 97q32 27 72.5 42t83.5 15q45 0 70 -15t25 -43q0 -24 -20 -53zM238 602q-35 52 -57.5 95.5t-22.5 69.5q0 23 26 32l29 9q10 -25 18.5 -42.5t16 -32.5t15.5 -28t18 -29q59 71 92.5 102t50.5 31
q7 0 11.5 -1.5t10.5 -4.5l25 -13q-31 -33 -76.5 -82t-90.5 -106h-66z" />
    <glyph glyph-name="uni0162" unicode="&#x162;" horiz-adv-x="638" 
d="M95 0l13 41q11 6 40 15t61 17l115 545h-46q-16 0 -45 -1t-59 -3l-38 -125h-21q-17 0 -24 9t-7 30q0 13 2 32.5t6 42t8.5 46t10.5 44.5h555q-3 -26 -8 -58.5t-10 -55.5q-11 -50 -24 -70t-36 -20h-22l11 125q-27 2 -52.5 3t-39.5 1h-65l-115 -547l74 -12q21 -3 21 -18
q0 -7 -4 -18t-11 -23h-290zM108 -234q50 20 80.5 48t30.5 52q0 22 -38 22h-24v14q0 48 71 48q35 0 56 -17t21 -45q0 -27 -14.5 -53.5t-37.5 -47.5t-52 -34t-58 -13q-20 0 -29 15z" />
    <glyph glyph-name="uni0163" unicode="&#x163;" horiz-adv-x="391" 
d="M347 146q10 -10 10 -23q0 -18 -18 -41t-46.5 -43.5t-64 -34.5t-69.5 -14q-44 0 -67 24t-23 69q0 13 3.5 37t13.5 69l54 254h-108l7 35q7 5 20 10.5t29 10t33.5 7.5t34.5 4l18 66q20 73 84 73h14l-29 -138h128q23 0 23 -12q0 -9 -9 -27t-20 -29h-137l-49 -231
q-5 -23 -8 -39t-5 -27t-2.5 -18.5t-0.5 -14.5q0 -37 31 -37q22 0 61 23.5t79 60.5zM25 -236q24 10 45 23t36 27t24 28.5t9 26.5q0 22 -38 22h-27v11q0 48 71 48q34 0 54.5 -16.5t20.5 -44.5q0 -26 -14.5 -52.5t-37.5 -48t-51.5 -35t-56.5 -13.5q-20 0 -29 15z" />
    <glyph glyph-name="Tcaron" unicode="&#x164;" horiz-adv-x="638" 
d="M95 0l13 41q11 6 40 15t61 17l115 545h-46q-16 0 -45 -1t-59 -3l-38 -125h-21q-17 0 -24 9t-7 30q0 13 2 32.5t6 42t8.5 46t10.5 44.5h555q-3 -26 -8 -58.5t-10 -55.5q-11 -50 -24 -70t-36 -20h-22l11 125q-27 2 -52.5 3t-39.5 1h-65l-115 -547l74 -12q21 -3 21 -18
q0 -7 -4 -18t-11 -23h-290zM378 762q-53 55 -82 98.5t-29 66.5q0 8 5 14.5t19 11.5l30 12q33 -45 55 -74t41 -48q41 38 67 61.5t42 36t25.5 17t18.5 4.5q15 0 27 -8l24 -16q-54 -47 -100.5 -90t-88.5 -86h-54z" />
    <glyph glyph-name="tcaron" unicode="&#x165;" horiz-adv-x="391" 
d="M347 146q10 -10 10 -23q0 -18 -18 -41t-46.5 -43.5t-64 -34.5t-69.5 -14q-44 0 -67 24t-23 69q0 13 3.5 37t13.5 69l54 254h-108l7 35q7 5 20 10.5t29 10t33.5 7.5t34.5 4l18 66q20 73 84 73h14l-29 -138h128q23 0 23 -12q0 -9 -9 -27t-20 -29h-137l-49 -231
q-5 -23 -8 -39t-5 -27t-2.5 -18.5t-0.5 -14.5q0 -37 31 -37q22 0 61 23.5t79 60.5zM336 574q-24 3 -24 25q0 4 2.5 15t8 33.5t15 58t23.5 88.5l16 -1q55 -3 55 -42q0 -9 -3.5 -21t-12.5 -31.5t-26 -49.5t-44 -76z" />
    <glyph glyph-name="Tbar" unicode="&#x166;" horiz-adv-x="638" 
d="M95 0l13 41q11 6 40 15t61 17l51 243h-100l12 61h101l51 241h-46q-16 0 -45 -1t-59 -3l-38 -125h-21q-17 0 -24 9t-7 30q0 13 2 32.5t6 42t8.5 46t10.5 44.5h555q-3 -26 -8 -58.5t-10 -55.5q-11 -50 -24 -70t-36 -20h-22l11 125q-27 2 -52.5 3t-39.5 1h-65l-51 -241h103
l-12 -61h-104l-51 -245l74 -12q21 -3 21 -18q0 -7 -4 -18t-11 -23h-290z" />
    <glyph glyph-name="tbar" unicode="&#x167;" horiz-adv-x="391" 
d="M347 146q10 -10 10 -23q0 -18 -18 -41t-46.5 -43.5t-64 -34.5t-69.5 -14q-44 0 -67 24t-23 69q0 13 3.5 37t13.5 69l15 70h-92l11 56h93l27 128h-108l7 35q7 5 20 10.5t29 10t33.5 7.5t34.5 4l18 66q20 73 84 73h14l-29 -138h128q23 0 23 -12q0 -9 -9 -27t-20 -29h-137
l-27 -128h153l-11 -56h-154l-10 -47q-5 -23 -8 -39t-5 -27t-2.5 -18.5t-0.5 -14.5q0 -37 31 -37q22 0 61 23.5t79 60.5z" />
    <glyph glyph-name="Utilde" unicode="&#x168;" horiz-adv-x="767" 
d="M616 622l-55 12q-21 6 -21 18q0 7 4 18t11 23h243l-11 -41q-10 -6 -35 -15t-52 -17l-76 -363q-28 -131 -107.5 -199t-204.5 -68q-103 0 -158.5 49.5t-55.5 140.5q0 19 5 56t13 72l66 314l-62 12q-21 6 -21 18q0 7 4 18t11 23h261l-13 -41q-8 -5 -31.5 -13.5t-52.5 -18.5
l-67 -315q-8 -35 -11 -60t-3 -48q0 -125 135 -125q173 0 212 193zM620 930q22 -9 22 -33q0 -21 -9 -41t-24 -35t-34.5 -24t-40.5 -9q-45 0 -72 45q-8 14 -14.5 19t-15.5 5q-33 0 -57 -69l-23 9q-22 9 -22 34q0 21 9 40.5t24 34.5t34.5 24t40.5 9q43 0 72 -45q17 -24 33 -24
q30 0 54 69z" />
    <glyph glyph-name="utilde" unicode="&#x169;" horiz-adv-x="611" 
d="M573 134q10 -11 10 -22q0 -16 -16 -37q-30 -38 -65.5 -61.5t-64.5 -23.5q-51 0 -51 75q0 15 2.5 42t6.5 54q-48 -82 -105.5 -126.5t-116.5 -44.5q-48 0 -72.5 27t-24.5 78q0 14 2 29.5t6 36t11 46t18 60.5q17 60 27.5 100t16.5 78q-13 1 -28 1h-41h-41l3 21
q2 16 9.5 22.5t31.5 13.5t56 11.5t51 4.5q51 0 51 -45q0 -24 -15.5 -89t-47.5 -170q-8 -26 -12.5 -51t-4.5 -42q0 -24 12 -37.5t32 -13.5q27 0 59 23.5t61.5 60.5t52.5 83t32 91l26 132q5 28 18 39t41 11h51q-22 -81 -35.5 -132.5t-22 -84t-13.5 -52.5t-9 -39
q-14 -67 -14 -101q0 -28 11 -28q10 0 35.5 20.5t54.5 52.5zM510 761q22 -9 22 -34q0 -21 -9 -40.5t-24 -34.5t-34 -24t-40 -9q-23 0 -40.5 11t-31.5 37q-7 12 -13.5 18.5t-15.5 6.5q-31 0 -58 -73l-22 9q-22 9 -22 34q0 21 9 40.5t24 34.5t34 24t40 9q23 0 39 -10.5
t32 -35.5q17 -27 32 -27q30 0 56 73z" />
    <glyph glyph-name="Umacron" unicode="&#x16a;" horiz-adv-x="767" 
d="M616 622l-55 12q-21 6 -21 18q0 7 4 18t11 23h243l-11 -41q-10 -6 -35 -15t-52 -17l-76 -363q-28 -131 -107.5 -199t-204.5 -68q-103 0 -158.5 49.5t-55.5 140.5q0 19 5 56t13 72l66 314l-62 12q-21 6 -21 18q0 7 4 18t11 23h261l-13 -41q-8 -5 -31.5 -13.5t-52.5 -18.5
l-67 -315q-8 -35 -11 -60t-3 -48q0 -125 135 -125q173 0 212 193zM370 807q-34 0 -34 25q0 13 14 54h253q19 0 26.5 -5.5t7.5 -18.5q0 -11 -14 -55h-253z" />
    <glyph glyph-name="umacron" unicode="&#x16b;" horiz-adv-x="611" 
d="M573 134q10 -11 10 -22q0 -16 -16 -37q-30 -38 -65.5 -61.5t-64.5 -23.5q-51 0 -51 75q0 15 2.5 42t6.5 54q-48 -82 -105.5 -126.5t-116.5 -44.5q-48 0 -72.5 27t-24.5 78q0 14 2 29.5t6 36t11 46t18 60.5q17 60 27.5 100t16.5 78q-13 1 -28 1h-41h-41l3 21
q2 16 9.5 22.5t31.5 13.5t56 11.5t51 4.5q51 0 51 -45q0 -24 -15.5 -89t-47.5 -170q-8 -26 -12.5 -51t-4.5 -42q0 -24 12 -37.5t32 -13.5q27 0 59 23.5t61.5 60.5t52.5 83t32 91l26 132q5 28 18 39t41 11h51q-22 -81 -35.5 -132.5t-22 -84t-13.5 -52.5t-9 -39
q-14 -67 -14 -101q0 -28 11 -28q10 0 35.5 20.5t54.5 52.5zM261 633q-34 0 -34 25q0 12 14 50h253q34 0 34 -25q0 -12 -14 -50h-253z" />
    <glyph glyph-name="Ubreve" unicode="&#x16c;" horiz-adv-x="767" 
d="M616 622l-55 12q-21 6 -21 18q0 7 4 18t11 23h243l-11 -41q-10 -6 -35 -15t-52 -17l-76 -363q-28 -131 -107.5 -199t-204.5 -68q-103 0 -158.5 49.5t-55.5 140.5q0 19 5 56t13 72l66 314l-62 12q-21 6 -21 18q0 7 4 18t11 23h261l-13 -41q-8 -5 -31.5 -13.5t-52.5 -18.5
l-67 -315q-8 -35 -11 -60t-3 -48q0 -125 135 -125q173 0 212 193zM645 935q1 -5 1.5 -9.5t0.5 -8.5q-1 -29 -22 -57q-63 -81 -157 -81q-27 0 -50 8.5t-40.5 22.5t-27.5 33.5t-10 41.5q0 36 39 51l22 8q17 -48 36.5 -67t54.5 -19q73 0 150 89z" />
    <glyph glyph-name="ubreve" unicode="&#x16d;" horiz-adv-x="611" 
d="M573 134q10 -11 10 -22q0 -16 -16 -37q-30 -38 -65.5 -61.5t-64.5 -23.5q-51 0 -51 75q0 15 2.5 42t6.5 54q-48 -82 -105.5 -126.5t-116.5 -44.5q-48 0 -72.5 27t-24.5 78q0 14 2 29.5t6 36t11 46t18 60.5q17 60 27.5 100t16.5 78q-13 1 -28 1h-41h-41l3 21
q2 16 9.5 22.5t31.5 13.5t56 11.5t51 4.5q51 0 51 -45q0 -24 -15.5 -89t-47.5 -170q-8 -26 -12.5 -51t-4.5 -42q0 -24 12 -37.5t32 -13.5q27 0 59 23.5t61.5 60.5t52.5 83t32 91l26 132q5 28 18 39t41 11h51q-22 -81 -35.5 -132.5t-22 -84t-13.5 -52.5t-9 -39
q-14 -67 -14 -101q0 -28 11 -28q10 0 35.5 20.5t54.5 52.5zM535 758q2 -8 2 -15q0 -28 -21 -56q-29 -38 -68 -59t-84 -21q-56 0 -93.5 29t-37.5 77q0 34 39 49l20 8q13 -46 34.5 -65.5t59.5 -19.5q36 0 73 22.5t72 65.5z" />
    <glyph glyph-name="Uring" unicode="&#x16e;" horiz-adv-x="767" 
d="M616 622l-55 12q-21 6 -21 18q0 7 4 18t11 23h243l-11 -41q-10 -6 -35 -15t-52 -17l-76 -363q-28 -131 -107.5 -199t-204.5 -68q-103 0 -158.5 49.5t-55.5 140.5q0 19 5 56t13 72l66 314l-62 12q-21 6 -21 18q0 7 4 18t11 23h261l-13 -41q-8 -5 -31.5 -13.5t-52.5 -18.5
l-67 -315q-8 -35 -11 -60t-3 -48q0 -125 135 -125q173 0 212 193zM482 801q27 0 43.5 18.5t16.5 49.5q0 25 -14.5 40.5t-37.5 15.5q-27 0 -43.5 -18.5t-16.5 -49.5q0 -25 14.5 -40.5t37.5 -15.5zM607 877q0 -29 -10 -53.5t-28 -42.5t-43 -28t-55 -10q-23 0 -42 8.5
t-33.5 22.5t-22.5 33.5t-8 41.5q0 29 10 53.5t28 42.5t43 28t55 10q21 0 40.5 -8.5t34 -23t23 -34t8.5 -40.5z" />
    <glyph glyph-name="uring" unicode="&#x16f;" horiz-adv-x="611" 
d="M573 134q10 -11 10 -22q0 -16 -16 -37q-30 -38 -65.5 -61.5t-64.5 -23.5q-51 0 -51 75q0 15 2.5 42t6.5 54q-48 -82 -105.5 -126.5t-116.5 -44.5q-48 0 -72.5 27t-24.5 78q0 14 2 29.5t6 36t11 46t18 60.5q17 60 27.5 100t16.5 78q-13 1 -28 1h-41h-41l3 21
q2 16 9.5 22.5t31.5 13.5t56 11.5t51 4.5q51 0 51 -45q0 -24 -15.5 -89t-47.5 -170q-8 -26 -12.5 -51t-4.5 -42q0 -24 12 -37.5t32 -13.5q27 0 59 23.5t61.5 60.5t52.5 83t32 91l26 132q5 28 18 39t41 11h51q-22 -81 -35.5 -132.5t-22 -84t-13.5 -52.5t-9 -39
q-14 -67 -14 -101q0 -28 11 -28q10 0 35.5 20.5t54.5 52.5zM373 631q26 0 41.5 21.5t15.5 57.5q0 55 -49 55q-26 0 -41.5 -21.5t-15.5 -57.5q0 -55 49 -55zM362 572q-48 0 -77 29t-29 77q0 31 10.5 58t28.5 46.5t43 30.5t54 11q45 0 75.5 -30.5t30.5 -75.5
q0 -32 -10.5 -58.5t-28.5 -46t-43 -30.5t-54 -11z" />
    <glyph glyph-name="Uhungarumlaut" unicode="&#x170;" horiz-adv-x="767" 
d="M616 622l-55 12q-21 6 -21 18q0 7 4 18t11 23h243l-11 -41q-10 -6 -35 -15t-52 -17l-76 -363q-28 -131 -107.5 -199t-204.5 -68q-103 0 -158.5 49.5t-55.5 140.5q0 19 5 56t13 72l66 314l-62 12q-21 6 -21 18q0 7 4 18t11 23h261l-13 -41q-8 -5 -31.5 -13.5t-52.5 -18.5
l-67 -315q-8 -35 -11 -60t-3 -48q0 -125 135 -125q173 0 212 193zM320 770q-10 16 -10 25q0 18 24 38l180 138l12 -18q13 -20 17.5 -30.5t4.5 -21.5q0 -12 -10.5 -24.5t-36 -28.5t-68 -37.5t-107.5 -50.5zM551 770q-10 16 -10 25q0 18 24 38l180 138l12 -18
q13 -20 17.5 -30.5t4.5 -21.5q0 -12 -10.5 -24.5t-36 -28.5t-68 -37.5t-107.5 -50.5z" />
    <glyph glyph-name="uhungarumlaut" unicode="&#x171;" horiz-adv-x="611" 
d="M573 134q10 -11 10 -22q0 -16 -16 -37q-30 -38 -65.5 -61.5t-64.5 -23.5q-51 0 -51 75q0 15 2.5 42t6.5 54q-48 -82 -105.5 -126.5t-116.5 -44.5q-48 0 -72.5 27t-24.5 78q0 14 2 29.5t6 36t11 46t18 60.5q17 60 27.5 100t16.5 78q-13 1 -28 1h-41h-41l3 21
q2 16 9.5 22.5t31.5 13.5t56 11.5t51 4.5q51 0 51 -45q0 -24 -15.5 -89t-47.5 -170q-8 -26 -12.5 -51t-4.5 -42q0 -24 12 -37.5t32 -13.5q27 0 59 23.5t61.5 60.5t52.5 83t32 91l26 132q5 28 18 39t41 11h51q-22 -81 -35.5 -132.5t-22 -84t-13.5 -52.5t-9 -39
q-14 -67 -14 -101q0 -28 11 -28q10 0 35.5 20.5t54.5 52.5zM238 593q-20 12 -20 29q0 14 11 28l117 160l24 -17q20 -14 26.5 -22t6.5 -17q0 -12 -11.5 -30t-32 -40t-49 -47t-62.5 -50zM417 593q-20 12 -20 29q0 14 11 28l117 160l24 -17q20 -14 26.5 -22t6.5 -17
q0 -12 -11.5 -30t-32 -40t-49 -47t-62.5 -50z" />
    <glyph glyph-name="Uogonek" unicode="&#x172;" horiz-adv-x="767" 
d="M449 -158q-6 -24 -32.5 -38t-66.5 -14q-42 0 -69.5 24.5t-27.5 61.5q0 32 18.5 61.5t51.5 52.5h-11q-103 0 -158.5 49.5t-55.5 140.5q0 19 5 56t13 72l66 314l-62 12q-21 6 -21 18q0 7 4 18t11 23h261l-13 -41q-8 -5 -31.5 -13.5t-52.5 -18.5l-67 -315q-8 -35 -11 -60
t-3 -48q0 -125 135 -125q173 0 212 193l72 357l-55 12q-21 6 -21 18q0 7 4 18t11 23h243l-11 -41q-10 -6 -35 -15t-52 -17l-76 -363q-36 -173 -178 -242q-112 -55 -112 -116q0 -19 18 -29.5t51 -10.5q17 0 30 0.5t21 1.5z" />
    <glyph glyph-name="uogonek" unicode="&#x173;" horiz-adv-x="611" 
d="M538 -160q-6 -23 -31.5 -36.5t-63.5 -13.5q-41 0 -65 19.5t-24 51.5q0 72 70 130q-38 9 -38 74q0 15 2.5 42t6.5 54q-48 -82 -105.5 -126.5t-116.5 -44.5q-48 0 -72.5 27t-24.5 78q0 14 2 29.5t6 36t11 46t18 60.5q17 60 27.5 100t16.5 78q-13 1 -28 1h-41h-41l3 21
q2 16 9.5 22.5t31.5 13.5t56 11.5t51 4.5q51 0 51 -45q0 -24 -15.5 -89t-47.5 -170q-8 -26 -12.5 -51t-4.5 -42q0 -24 12 -37.5t32 -13.5q27 0 59 23.5t61.5 60.5t52.5 83t32 91l26 132q5 28 18 39t41 11h51q-22 -81 -35.5 -132.5t-22 -84t-13.5 -52.5t-9 -39
q-14 -67 -14 -101q0 -28 11 -28q10 0 35.5 20.5t54.5 52.5l12 -13q10 -11 10 -22q0 -16 -16 -37q-8 -11 -14.5 -18.5t-13 -14t-14 -13t-17.5 -15.5q-37 -32 -58.5 -64.5t-21.5 -55.5q0 -41 66 -41q14 0 27.5 0.5t20.5 1.5z" />
    <glyph glyph-name="Wcircumflex" unicode="&#x174;" horiz-adv-x="1042" 
d="M599 -2l-48 484l-252 -484h-91l-51 620q-22 7 -35 12.5t-20.5 9.5t-10 7.5t-2.5 7.5q0 11 15 38h267l-13 -42q-13 -8 -41 -18t-55 -17l20 -508l277 574h66l49 -573l229 513l-63 13q-20 4 -20 19q0 5 4 16.5t10 22.5h254l-12 -40q-12 -8 -36.5 -18t-43.5 -15l-306 -622
h-91zM736 760q-31 41 -56.5 64t-43.5 40q-54 -55 -87.5 -79.5t-56.5 -24.5q-17 0 -32 11l-15 11q24 20 44.5 38.5t40 37.5t39 39t42.5 43l60 8q49 -48 80 -87.5t31 -64.5q0 -8 -6 -16t-15 -11z" />
    <glyph glyph-name="wcircumflex" unicode="&#x175;" horiz-adv-x="773" 
d="M444 17q0 39 -1 70t-3.5 59.5t-6 57.5t-9.5 66q-19 -46 -43.5 -89t-52.5 -79.5t-57.5 -65t-58.5 -46.5l-37 27q0 118 -16.5 219t-51.5 202q-20 2 -40.5 4t-53.5 4l3 19q3 16 12 23.5t35 15.5q52 15 78 15q20 0 33 -14t22 -39q12 -33 22 -77t17 -93.5t11 -102.5t4 -103
q27 34 51 75t42 82t28 79.5t10 67.5q0 9 -4 23.5t-10 30t-13 29.5t-14 23q11 11 28 16.5t35 5.5q15 0 25 -3.5t18 -13t14 -25.5t12 -40q8 -35 16 -80.5t14.5 -94t11 -95t5.5 -81.5q28 33 52 73.5t42 82.5t28 82.5t10 73.5q0 23 -11 52.5t-26 48.5q16 12 31 17t35 5
q67 0 67 -77q0 -55 -23 -122t-60.5 -131.5t-85.5 -119t-97 -84.5zM509 588q-13 25 -23 43.5t-19 33.5t-17 28t-17 26q-32 -38 -54 -63t-37.5 -40t-26 -21.5t-18.5 -6.5q-6 0 -10.5 1.5t-11.5 4.5l-27 12q18 19 38 41.5t40.5 46.5t40.5 49t37 48l78 12q16 -24 30 -49.5
t24.5 -49t16.5 -43.5t6 -33q0 -23 -26 -32z" />
    <glyph glyph-name="Ycircumflex" unicode="&#x176;" horiz-adv-x="646" 
d="M105 0l13 41q16 6 45 15t56 17l42 202l-137 344q-40 14 -51.5 21t-11.5 15q0 14 15 38h267l-13 -42q-14 -9 -40 -18.5t-58 -17.5l94 -269l200 276l-56 13q-20 4 -20 19q0 5 4 16.5t10 22.5h246l-12 -40q-12 -8 -36.5 -18t-43.5 -15l-260 -347l-44 -202l76 -12
q21 -3 21 -18q0 -7 -4 -18t-11 -23h-291zM543 760q-31 41 -56.5 64t-43.5 40q-54 -55 -87.5 -79.5t-56.5 -24.5q-17 0 -32 11l-15 11q24 20 44.5 38.5t40 37.5t39 39t42.5 43l60 8q49 -48 80 -87.5t31 -64.5q0 -8 -6 -16t-15 -11z" />
    <glyph glyph-name="ycircumflex" unicode="&#x177;" horiz-adv-x="535" 
d="M23 465q2 15 11.5 23t35.5 16q48 15 77 15q22 0 37 -14t27 -47q13 -34 23 -73t17.5 -79.5t11.5 -81.5t4 -78q0 -17 -2 -45t-6 -63q76 112 116 204.5t40 152.5q0 24 -11 53t-30 52q27 22 66 22q67 0 67 -77q0 -44 -17 -99.5t-47 -117.5t-72.5 -127t-93.5 -126
q-38 -45 -78.5 -83t-89.5 -74q-35 -26 -71 -39.5t-68 -13.5q-56 0 -56 51q0 35 29 67q19 -17 31 -23t29 -6q32 0 71.5 18.5t68.5 47.5q13 13 22.5 29.5t15 38.5t8 51.5t2.5 70.5q0 39 -6 83t-16 88t-24.5 84.5t-30.5 72.5q-20 2 -46 4t-48 4zM393 588q-13 25 -23 43.5
t-19 33.5t-17 28t-17 26q-32 -38 -54 -63t-37.5 -40t-26 -21.5t-18.5 -6.5q-6 0 -10.5 1.5t-11.5 4.5l-27 12q18 19 38 41.5t40.5 46.5t40.5 49t37 48l78 12q16 -24 30 -49.5t24.5 -49t16.5 -43.5t6 -33q0 -23 -26 -32z" />
    <glyph glyph-name="Ydieresis" unicode="&#x178;" horiz-adv-x="646" 
d="M105 0l13 41q16 6 45 15t56 17l42 202l-137 344q-40 14 -51.5 21t-11.5 15q0 14 15 38h267l-13 -42q-14 -9 -40 -18.5t-58 -17.5l94 -269l200 276l-56 13q-20 4 -20 19q0 5 4 16.5t10 22.5h246l-12 -40q-12 -8 -36.5 -18t-43.5 -15l-260 -347l-44 -202l76 -12
q21 -3 21 -18q0 -7 -4 -18t-11 -23h-291zM391 868q0 -34 -23 -56.5t-58 -22.5q-22 0 -35 12t-13 33q0 35 23.5 57.5t58.5 22.5q22 0 34.5 -12t12.5 -34zM598 868q0 -34 -23 -56.5t-58 -22.5q-22 0 -35 12t-13 33q0 35 23.5 57.5t58.5 22.5q22 0 34.5 -12t12.5 -34z" />
    <glyph glyph-name="Zacute" unicode="&#x179;" horiz-adv-x="584" 
d="M391 0h-367q-20 0 -28 9.5t-8 32.5q0 5 0.5 13t1.5 15l460 548h-112q-39 0 -78.5 -1.5t-76.5 -3.5l-52 -117h-27q-21 0 -21 31q0 13 3 32.5t8 42t12 46.5t15 45h411q21 0 29.5 -14t8.5 -47l-465 -555h77q30 0 62.5 0.5t63 1.5t56.5 2t43 2q15 22 31 54t34 75h24
q26 0 26 -27q0 -18 -5 -44t-13.5 -53t-19 -52t-21.5 -42zM493 938q12 -24 12 -46q0 -19 -11 -34.5t-38 -29.5t-72 -28t-112 -30l-4 9q-4 9 -4 18q0 22 30 40l191 118z" />
    <glyph glyph-name="zacute" unicode="&#x17a;" horiz-adv-x="472" 
d="M398 139q34 -11 34 -54q0 -44 -32 -69.5t-89 -25.5q-23 0 -50 4.5t-55.5 13t-57.5 20.5t-54 27l-23 -57q-8 -2 -12 -2h-8q-49 0 -49 49v16l307 331q-49 20 -84 29t-62 9q-6 0 -14.5 -0.5t-14.5 -1.5l-35 -76l-24 1q-19 0 -19 36q0 63 26.5 96.5t77.5 33.5q19 0 43 -5.5
t49.5 -15.5t52 -24t50.5 -31l37 74q4 1 13 1q54 0 54 -44v-18l-321 -349q45 -12 92.5 -18.5t89.5 -6.5q46 0 62 62zM254 604q-15 10 -15 24q0 13 18 37l115 152l27 -15q28 -15 28 -40q0 -18 -42.5 -62t-118.5 -105z" />
    <glyph glyph-name="Zdotaccent" unicode="&#x17b;" horiz-adv-x="584" 
d="M391 0h-367q-20 0 -28 9.5t-8 32.5q0 5 0.5 13t1.5 15l460 548h-112q-39 0 -78.5 -1.5t-76.5 -3.5l-52 -117h-27q-21 0 -21 31q0 13 3 32.5t8 42t12 46.5t15 45h411q21 0 29.5 -14t8.5 -47l-465 -555h77q30 0 62.5 0.5t63 1.5t56.5 2t43 2q15 22 31 54t34 75h24
q26 0 26 -27q0 -18 -5 -44t-13.5 -53t-19 -52t-21.5 -42zM427 881q0 -18 -7 -33.5t-19 -27t-28 -18t-34 -6.5q-23 0 -36.5 12.5t-13.5 35.5q0 18 7 34t19 28.5t28 19.5t34 7q23 0 36.5 -14.5t13.5 -37.5z" />
    <glyph glyph-name="zdotaccent" unicode="&#x17c;" horiz-adv-x="472" 
d="M398 139q34 -11 34 -54q0 -44 -32 -69.5t-89 -25.5q-23 0 -50 4.5t-55.5 13t-57.5 20.5t-54 27l-23 -57q-8 -2 -12 -2h-8q-49 0 -49 49v16l307 331q-49 20 -84 29t-62 9q-6 0 -14.5 -0.5t-14.5 -1.5l-35 -76l-24 1q-19 0 -19 36q0 63 26.5 96.5t77.5 33.5q19 0 43 -5.5
t49.5 -15.5t52 -24t50.5 -31l37 74q4 1 13 1q54 0 54 -44v-18l-321 -349q45 -12 92.5 -18.5t89.5 -6.5q46 0 62 62zM362 704q0 -34 -24.5 -57.5t-59.5 -23.5q-23 0 -35.5 12t-12.5 34q0 35 25 60t59 25q22 0 35 -13.5t13 -36.5z" />
    <glyph glyph-name="Zcaron" unicode="&#x17d;" horiz-adv-x="584" 
d="M391 0h-367q-20 0 -28 9.5t-8 32.5q0 5 0.5 13t1.5 15l460 548h-112q-39 0 -78.5 -1.5t-76.5 -3.5l-52 -117h-27q-21 0 -21 31q0 13 3 32.5t8 42t12 46.5t15 45h411q21 0 29.5 -14t8.5 -47l-465 -555h77q30 0 62.5 0.5t63 1.5t56.5 2t43 2q15 22 31 54t34 75h24
q26 0 26 -27q0 -18 -5 -44t-13.5 -53t-19 -52t-21.5 -42zM308 762q-53 55 -82 98.5t-29 66.5q0 8 5 14.5t19 11.5l30 12q33 -45 55 -74t41 -48q41 38 67 61.5t42 36t25.5 17t18.5 4.5q15 0 27 -8l24 -16q-54 -47 -100.5 -90t-88.5 -86h-54z" />
    <glyph glyph-name="zcaron" unicode="&#x17e;" horiz-adv-x="472" 
d="M398 139q34 -11 34 -54q0 -44 -32 -69.5t-89 -25.5q-23 0 -50 4.5t-55.5 13t-57.5 20.5t-54 27l-23 -57q-8 -2 -12 -2h-8q-49 0 -49 49v16l307 331q-49 20 -84 29t-62 9q-6 0 -14.5 -0.5t-14.5 -1.5l-35 -76l-24 1q-19 0 -19 36q0 63 26.5 96.5t77.5 33.5q19 0 43 -5.5
t49.5 -15.5t52 -24t50.5 -31l37 74q4 1 13 1q54 0 54 -44v-18l-321 -349q45 -12 92.5 -18.5t89.5 -6.5q46 0 62 62zM239 602q-35 52 -57.5 95.5t-22.5 69.5q0 23 26 32l29 9q10 -25 18.5 -42.5t16 -32.5t15.5 -28t18 -29q59 71 92.5 102t50.5 31q7 0 11.5 -1.5t10.5 -4.5
l25 -13q-31 -33 -76.5 -82t-90.5 -106h-66z" />
    <glyph glyph-name="longs" unicode="&#x17f;" horiz-adv-x="411" 
d="M195 530q26 117 81 177t139 60q45 0 73.5 -17.5t28.5 -44.5q0 -33 -50 -58q-19 26 -38.5 37.5t-45.5 11.5q-18 0 -32 -8t-25.5 -27.5t-21.5 -51t-20 -78.5l-108 -503q-19 -87 -41 -136t-53 -77q-29 -26 -62.5 -38t-78.5 -12q-48 0 -75.5 16.5t-27.5 45.5q0 18 16 37
l21 24q29 -23 58.5 -36t55.5 -13q15 0 28 10t24.5 32.5t22.5 58t22 87.5z" />
    <glyph glyph-name="uni0180" unicode="&#x180;" horiz-adv-x="554" 
d="M24 10l50 162q33 145 54.5 239.5t35.5 159.5h-107l13 56h106l14 72q-9 1 -21 1h-42h-44l3 16q4 20 10.5 27.5t29.5 12.5q11 3 27.5 6t34 5.5t33.5 4t26 1.5q21 0 29 -8.5t8 -27.5q0 -25 -21 -110h124l-13 -56h-125q-11 -45 -26.5 -101t-35.5 -126q49 78 106.5 121.5
t111.5 43.5q51 0 79.5 -41.5t28.5 -116.5q0 -69 -23 -134.5t-61.5 -115.5t-89.5 -80.5t-107 -30.5q-32 0 -62 8.5t-55 25.5q-20 -33 -49 -33q-14 0 -30 11zM140 92q25 -14 51.5 -21.5t48.5 -7.5q36 0 68 22t56 58.5t38.5 85.5t14.5 103q0 93 -49 93q-31 0 -66 -28
t-66.5 -74.5t-57 -106.5t-38.5 -124z" />
    <glyph glyph-name="uni0181" unicode="&#x181;" horiz-adv-x="673" 
d="M30 0l13 41l17.5 7.5t23 9t25.5 8.5t25 7l117 557q-55 -8 -87.5 -37t-32.5 -71q-42 0 -58.5 10.5t-16.5 36.5q0 30 23.5 55t66 42.5t101.5 27.5t130 10q124 0 182 -39.5t58 -123.5q0 -53 -29 -96.5t-81 -69.5q97 -40 97 -149q0 -51 -21.5 -93t-60.5 -72t-93 -47t-119 -17
q-38 0 -67.5 0.5t-55 1t-48.5 1t-48 0.5h-61zM282 334l-55 -263q16 -1 34 -1.5t35.5 -1t33.5 -1t28 -0.5q33 0 60 11.5t46.5 32t30.5 49t11 63.5q0 111 -161 111h-63zM342 401q18 0 38.5 -1.5t46.5 -3.5q43 16 68.5 52.5t25.5 84.5q0 50 -36 77t-102 27h-22t-16 -1l-49 -235
h46z" />
    <glyph glyph-name="uni0187" unicode="&#x187;" horiz-adv-x="644" 
d="M563 147q4 -7 4 -15q0 -14 -10.5 -31t-26.5 -32q-15 -14 -36.5 -28t-50 -25.5t-63 -18.5t-74.5 -7q-59 0 -107.5 17.5t-83 52t-53.5 87t-19 121.5q0 79 25.5 157t75 140t122.5 100.5t169 38.5q31 0 64 -5t62 -14q13 91 57.5 134.5t114.5 43.5q33 0 57 -10.5t24 -40.5
q0 -23 -35 -53q-11 14 -30.5 27.5t-41.5 13.5q-35 0 -51.5 -29t-24.5 -80q-6 -40 -10 -74.5t-9 -55.5q-7 -26 -14 -41.5t-15 -24t-18 -11.5t-22 -3h-14l9 111q-28 15 -60.5 23.5t-66.5 8.5q-62 0 -111.5 -28t-84 -74.5t-53 -105.5t-18.5 -122q0 -106 51 -161.5t145 -55.5
q56 0 108 21.5t102 68.5z" />
    <glyph glyph-name="uni0188" unicode="&#x188;" horiz-adv-x="443" 
d="M387 133q8 -13 8 -21q0 -15 -22 -37q-18 -19 -41 -34.5t-47.5 -27t-50 -17.5t-48.5 -6q-68 0 -106.5 47t-38.5 129q0 70 22.5 134.5t60.5 114t89.5 78.5t110.5 29q8 0 18.5 -0.5t18.5 -1.5q18 88 66 136.5t118 48.5q38 0 64 -18t26 -44q0 -11 -3 -20t-10 -18t-19 -18
t-30 -20q-14 35 -27.5 50t-32.5 15q-62 0 -86 -128q-8 -41 -16.5 -66t-16.5 -32q-29 16 -59.5 25.5t-53.5 9.5q-30 0 -56 -19t-45.5 -52.5t-30.5 -79t-11 -97.5q0 -62 20.5 -91t64.5 -29q32 0 67 16.5t88 57.5z" />
    <glyph glyph-name="uni0189" unicode="&#x189;" horiz-adv-x="726" 
d="M-23 0l13 41q11 6 36.5 15t54.5 17l51 243h-106l13 61h106l53 249q-24 -2 -46.5 -6t-49.5 -9q-2 6 -3 14t-1 12q0 29 54 45q16 4 39.5 8t51 7t57 5t56.5 2q158 0 244 -72t86 -205q0 -98 -32 -177.5t-91 -135.5t-142.5 -86.5t-186.5 -30.5q-15 0 -39.5 0.5t-52.5 1
t-55.5 1t-48.5 0.5h-61zM228 316l-51 -245q20 -2 44 -3t62 -1q65 0 120 25.5t94.5 71t61.5 109t22 138.5q0 114 -66 168.5t-203 54.5h-18l-54 -257h167l-13 -61h-166z" />
    <glyph glyph-name="uni018A" unicode="&#x18a;" horiz-adv-x="779" 
d="M30 0l13 41q11 6 36.5 15t54.5 17l118 557q-55 -8 -87.5 -37t-32.5 -71h-6q-37 0 -53 10.5t-16 36.5q0 30 23.5 55t66.5 42.5t102 27.5t131 10q176 0 267.5 -70.5t91.5 -206.5q0 -99 -32 -178.5t-92 -135.5t-144.5 -86t-189.5 -30q-15 0 -38.5 0.5t-50.5 1t-53.5 1
t-47.5 0.5h-61zM347 634l-117 -563q23 -2 48 -3t55 -1q66 0 121.5 25.5t95.5 71t62 108.5t22 139q0 114 -66 168.5t-203 54.5h-18z" />
    <glyph glyph-name="uni018E" unicode="&#x18e;" horiz-adv-x="594" 
d="M-24 0q2 16 8.5 50.5t17.5 82.5q9 37 21.5 51t37.5 14h15l-9 -117q46 -3 83.5 -4.5t73.5 -1.5h79l51 246h-202q-19 0 -24.5 2t-5.5 10t6.5 26t15.5 35l224 -8l49 232h-39q-59 0 -108 -1.5t-84 -5.5l-52 -96h-13q-29 0 -29 28q0 14 3.5 34.5t9.5 41.5t13 41t15 33h478
l-13 -41q-15 -8 -38 -16.5t-46 -15.5l-116 -549l74 -12q11 -3 16 -6.5t5 -11.5q0 -7 -4 -18t-11 -23h-502z" />
    <glyph glyph-name="uni018F" unicode="&#x18f;" horiz-adv-x="629" 
d="M487 361q3 21 3 41q0 227 -170 227q-62 0 -108.5 -23t-88.5 -74l-16 18q-11 13 -11 26q0 23 30 50q48 42 102.5 60t123.5 18q54 0 97.5 -20t74.5 -56.5t48 -88t17 -114.5q0 -89 -31 -168.5t-83.5 -138.5t-123.5 -93.5t-150 -34.5q-88 0 -136 46.5t-48 131.5q0 52 19 105
t51 88h400zM143 290q-16 -20 -25.5 -54.5t-9.5 -69.5q0 -104 114 -104q39 0 77 16.5t71 46.5t59 72t42 93h-328z" />
    <glyph glyph-name="uni0191" unicode="&#x191;" horiz-adv-x="562" 
d="M236 312l-40 -198q-16 -80 -39.5 -136.5t-56 -93.5t-75 -54t-96.5 -17q-42 0 -67 16.5t-25 44.5q0 19 10.5 37t29.5 31q16 -19 39.5 -31t46.5 -12q25 0 44.5 10.5t35.5 34.5t28.5 63t24.5 97l109 518l-62 12q-11 3 -16 6.5t-5 11.5q0 7 4 18t11 23h439q-1 -15 -5 -40.5
t-10 -54.5q-10 -49 -22 -67.5t-35 -18.5h-15v100q-34 2 -57 3t-40 2t-30 1h-28h-34l-51 -240l196 7q18 1 24 -1.5t6 -10.5t-6.5 -26t-15.5 -35h-217z" />
    <glyph glyph-name="uni0192" unicode="&#x192;" horiz-adv-x="411" 
d="M175 443h-107l7 35q6 5 18 10t28 9.5t34 7.5t35 5l4 20q23 116 79 176.5t141 60.5q45 0 73.5 -17.5t28.5 -44.5q0 -33 -50 -58q-19 26 -38.5 37.5t-45.5 11.5q-18 0 -32.5 -8.5t-26.5 -28t-21.5 -51t-18.5 -77.5l-4 -20h122q23 0 23 -12q0 -9 -9 -27t-20 -29h-133
l-87 -415q-18 -86 -40 -135t-54 -78q-29 -26 -62.5 -38t-78.5 -12q-48 0 -75.5 16.5t-27.5 45.5q0 18 16 37l21 24q29 -23 58.5 -36t55.5 -13q15 0 28 10t24.5 32.5t22.5 58t22 87.5z" />
    <glyph glyph-name="uni0193" unicode="&#x193;" horiz-adv-x="710" 
d="M520 254l-97 14q-13 2 -17.5 6.5t-4.5 13.5q0 5 4.5 17t10.5 22h241l-6 -33q-6 -21 -40 -41l-41 -208q-64 -29 -121.5 -42t-122.5 -13q-135 0 -209 72.5t-74 204.5q0 93 30 173t82.5 138.5t124 92t155.5 33.5q36 0 74.5 -5t72.5 -14q12 88 56 133t116 45q81 0 81 -51
q0 -22 -35 -53q-14 19 -34 30t-38 11q-31 0 -49 -25.5t-27 -83.5q-6 -40 -10 -74.5t-9 -55.5q-12 -47 -26.5 -63.5t-42.5 -16.5h-14l9 111q-64 32 -148 32q-57 0 -106 -25.5t-85 -70.5t-56 -107t-20 -134q0 -49 14 -88.5t39.5 -67t62 -42.5t81.5 -15q85 0 145 21z" />
    <glyph glyph-name="uni0197" unicode="&#x197;" horiz-adv-x="373" 
d="M-23 0l13 41q11 6 36.5 15t54.5 17l51 243h-100l13 61h100l52 245l-62 12q-21 4 -21 18q0 7 4 18t11 23h268l-13 -41q-11 -6 -36.5 -15t-54.5 -17l-51 -243h102l-13 -61h-102l-52 -245l62 -12q21 -4 21 -18q0 -7 -4 -18t-11 -23h-268z" />
    <glyph glyph-name="uni0198" unicode="&#x198;" horiz-adv-x="700" 
d="M-23 0l13 41q11 6 36.5 15t54.5 17l116 549l-62 12q-11 3 -16 6.5t-5 11.5q0 7 4 18t11 23h261l-13 -41q-14 -8 -37.5 -16.5t-46.5 -15.5l-52 -244l266 228q33 28 58.5 47.5t47 31.5t40.5 17t39 5q38 0 61 -18.5t23 -50.5q0 -23 -14 -38t-50 -31q-13 34 -23 47t-24 13
q-8 0 -17 -3.5t-21.5 -12t-31 -22.5t-43.5 -36l-222 -187l38 -55q42 -61 79 -107.5t71 -80t66 -56.5t65 -36q-12 -41 -84 -41q-22 0 -42.5 7t-43 24t-48 45t-57.5 70q-19 24 -56 82t-82 133l-59 -280l78 -12q21 -3 21 -18q0 -7 -4 -18t-11 -23h-284z" />
    <glyph glyph-name="uni0199" unicode="&#x199;" horiz-adv-x="516" 
d="M170 264q48 1 94.5 17t80.5 43q29 23 42.5 46t13.5 51q0 35 -34 35q-25 0 -56 -17.5t-59.5 -45.5t-50.5 -62t-31 -67zM496 48q-6 -31 -25.5 -44.5t-57.5 -13.5q-56 0 -110 50.5t-97 142.5l-12 25q-6 -1 -12 -1h-17l-39 -188q-3 -11 -10 -15t-24 -4h-59l105 466
q35 157 91.5 229t144.5 72q45 0 73.5 -17.5t28.5 -44.5q0 -33 -50 -58q-19 26 -38.5 37.5t-45.5 11.5q-17 0 -30 -8t-25 -26t-23.5 -48t-24.5 -75l-35 -126q41 51 92 80t99 29q43 0 67.5 -23t24.5 -64q0 -46 -23 -84t-72 -74q-52 -38 -119 -56q46 -75 98 -116.5t100 -41.5
h28z" />
    <glyph glyph-name="uni019A" unicode="&#x19a;" horiz-adv-x="307" 
d="M257 134q10 -11 10 -22q0 -18 -16 -37q-74 -85 -148 -85q-26 0 -40 16t-14 45q0 11 4.5 34.5t14.5 67.5l49 211h-90l11 56h92l65 279q-11 1 -25.5 1h-37.5h-44l3 16q4 20 10.5 27.5t29.5 12.5q11 3 27.5 6t34.5 5.5t34 4t25 1.5q20 0 28.5 -8t8.5 -28q0 -16 -9 -55
l-60 -262h93l-11 -56h-95l-46 -199q-7 -30 -10.5 -48t-3.5 -26q0 -13 8 -13q4 0 14.5 6.5t24 16.5t27 22.5t24.5 23.5z" />
    <glyph glyph-name="Ohorn" unicode="&#x1a0;" horiz-adv-x="739" 
d="M712 813q23 8 41 8q20 0 32 -11.5t12 -31.5q0 -45 -38.5 -91t-107.5 -82q48 -69 48 -175q0 -81 -27 -160t-79 -141.5t-127 -100.5t-171 -38q-61 0 -108.5 19.5t-80 55.5t-49.5 86.5t-17 112.5q0 81 27 160t79 141.5t127 100.5t171 38q52 0 93.5 -14.5t73.5 -40.5
q39 23 61 58.5t22 77.5q0 5 -0.5 10.5t-1.5 10.5zM315 65q66 0 118 30.5t88 80t55 112.5t19 127q0 98 -41.5 156t-129.5 58q-66 0 -118 -30.5t-88 -80t-55 -112.5t-19 -127q0 -98 41 -156t130 -58z" />
    <glyph glyph-name="ohorn" unicode="&#x1a1;" horiz-adv-x="544" 
d="M516 626q18 5 32 5q20 0 32 -10.5t12 -30.5q0 -38 -30 -75.5t-84 -69.5q25 -45 25 -108q0 -72 -23 -135t-63 -110t-93 -74.5t-114 -27.5q-82 0 -125.5 49t-43.5 134q0 72 23 135.5t63 111t93.5 75t114.5 27.5q32 0 59 -8.5t47 -23.5q23 18 37 43.5t14 51.5q0 15 -5 33z
M224 62q38 0 71.5 21.5t58 58.5t39 85t14.5 101q0 68 -24.5 95t-62.5 27t-71.5 -21.5t-58 -58.5t-39 -85t-14.5 -101q0 -68 24.5 -95t62.5 -27z" />
    <glyph glyph-name="uni01A4" unicode="&#x1a4;" horiz-adv-x="645" 
d="M30 0l13 41q11 6 36.5 15t54.5 17l118 557q-55 -8 -87.5 -37t-32.5 -71h-6q-37 0 -53 10.5t-16 36.5q0 30 23.5 55t66 42.5t101.5 27.5t130 10q249 0 249 -170q0 -57 -24 -105t-67.5 -82.5t-103 -54t-130.5 -19.5h-30l-42 -203l81 -11q21 -3 21 -18q0 -13 -16 -41h-286z
M310 339q51 0 91.5 12.5t69.5 36t44.5 57t15.5 74.5q0 62 -36.5 90t-116.5 28h-18t-12 -1l-62 -297h24z" />
    <glyph glyph-name="uni01A5" unicode="&#x1a5;" horiz-adv-x="573" 
d="M-55 -226l13 44q16 8 32.5 14.5t28.5 10.5q13 58 29 134.5t34 165t38 186t40 199.5q23 114 81 176.5t142 62.5q45 0 73.5 -17.5t28.5 -44.5q0 -33 -50 -58q-19 26 -38.5 37.5t-45.5 11.5q-39 0 -63.5 -38.5t-41.5 -126.5q-7 -38 -12 -65t-9.5 -49t-8.5 -40t-9 -37
q22 38 47.5 71t53 58t56.5 39t59 14q53 0 81 -41t28 -117q0 -74 -23.5 -141.5t-62.5 -119t-90 -82.5t-106 -31q-61 0 -105 37l-41 -186l97 -13q22 -3 22 -20q0 -7 -2 -12t-11 -22h-265zM160 99q25 -17 53 -26.5t52 -9.5q33 0 64 23.5t54.5 63t38 90.5t14.5 105q0 93 -49 93
q-30 0 -64.5 -29.5t-66.5 -77.5t-58 -109t-38 -123z" />
    <glyph glyph-name="uni01AB" unicode="&#x1ab;" horiz-adv-x="391" 
d="M343 149q8 -8 11 -13.5t3 -14.5q0 -4 -0.5 -8.5t-2 -12t-4 -19t-6.5 -29.5q-17 -74 -38 -127.5t-47.5 -88t-59 -50.5t-72.5 -16q-43 0 -68 15.5t-25 41.5q0 36 62 71q8 -25 22.5 -40t30.5 -15q34 0 68 46.5t56 140.5q-11 -8 -25 -15t-29.5 -12.5t-31 -9t-28.5 -3.5
q-44 0 -67 24t-23 69q0 14 4 39t13 67l54 254h-108l7 35q7 5 20 10.5t29 10t33.5 7.5t34.5 4l18 66q20 73 84 73h14l-29 -138h128q23 0 23 -12q0 -9 -9 -27t-20 -29h-137l-49 -231q-9 -43 -12.5 -64t-3.5 -35q0 -37 31 -37q24 0 54.5 19.5t80.5 65.5z" />
    <glyph glyph-name="uni01AC" unicode="&#x1ac;" horiz-adv-x="638" 
d="M95 0l13 41q11 6 40 15t61 17l115 545h-76q-21 0 -39.5 -9t-32 -25t-21 -37.5t-7.5 -46.5h-25q-25 0 -40 15t-15 39q0 68 52.5 103.5t152.5 35.5h393q-3 -26 -8 -58.5t-10 -55.5q-11 -51 -24 -70.5t-36 -19.5h-22l11 125q-27 2 -52.5 3t-39.5 1h-65l-115 -547l74 -12
q21 -3 21 -18q0 -7 -4 -18t-11 -23h-290z" />
    <glyph glyph-name="uni01AD" unicode="&#x1ad;" horiz-adv-x="391" 
d="M347 146q10 -10 10 -23q0 -28 -46 -69q-31 -28 -74 -46t-78 -18q-44 0 -67 24t-23 69q0 13 3.5 37t13.5 69l54 254h-108l7 35q7 5 20 10.5t29.5 10t34 8t34.5 4.5q35 133 89 194.5t136 61.5q45 0 73.5 -17.5t28.5 -44.5q0 -33 -50 -58q-19 26 -38.5 37.5t-45.5 11.5
q-36 0 -61 -38.5t-42 -122.5l-5 -24h129q23 0 23 -12q0 -9 -9 -27t-20 -29h-137l-49 -231q-5 -23 -8 -39t-5 -27t-2.5 -18.5t-0.5 -14.5q0 -37 31 -37q22 0 61 23.5t79 60.5z" />
    <glyph glyph-name="uni01AE" unicode="&#x1ae;" horiz-adv-x="638" 
d="M324 618h-46q-16 0 -45 -1t-59 -3l-38 -125h-21q-17 0 -24 9t-7 30q0 13 2 32.5t6 42t8.5 46t10.5 44.5h555q-3 -26 -8 -58.5t-10 -55.5q-11 -51 -24 -70.5t-36 -19.5h-22l11 125q-27 2 -52.5 3t-39.5 1h-65l-118 -558q-5 -25 -9 -43t-6 -31t-3 -22.5t-1 -17.5
q0 -58 45 -58q24 0 46 15.5t46 49.5q18 -14 25 -26.5t7 -30.5q0 -20 -9.5 -36.5t-26.5 -28.5t-39.5 -19t-49.5 -7q-132 0 -132 158q0 21 4 50.5t13 73.5z" />
    <glyph glyph-name="Uhorn" unicode="&#x1af;" horiz-adv-x="767" 
d="M616 622l-55 12q-21 6 -21 18q0 7 4 18t11 23h99q47 0 71.5 20t24.5 58q0 20 -6 35l17 6q15 5 24.5 7t18.5 2q21 0 33 -11.5t12 -31.5q0 -25 -11 -48t-30.5 -42.5t-46 -33.5t-58.5 -20l-79 -377q-27 -131 -107 -199t-205 -68q-103 0 -158.5 49.5t-55.5 140.5q0 19 5 56
t13 72l66 314l-62 12q-21 6 -21 18q0 7 4 18t11 23h261l-13 -41q-8 -5 -31.5 -13.5t-52.5 -18.5l-67 -315q-8 -35 -11 -60t-3 -48q0 -125 135 -125q173 0 212 193z" />
    <glyph glyph-name="uhorn" unicode="&#x1b0;" horiz-adv-x="611" 
d="M573 134q10 -11 10 -22q0 -16 -16 -37q-30 -38 -65.5 -61.5t-64.5 -23.5q-51 0 -51 75q0 15 2.5 42t6.5 54q-48 -82 -105.5 -126.5t-116.5 -44.5q-48 0 -72.5 27t-24.5 78q0 14 2 29.5t6 36t11 46t18 60.5q9 30 16 54.5t12 45.5t9 40t7 38q-13 1 -28 1h-41h-41l3 21
q2 16 9.5 22.5t31.5 13.5t56 11.5t51 4.5q51 0 51 -45q0 -24 -15.5 -89t-47.5 -170q-8 -26 -12.5 -51t-4.5 -42q0 -24 12 -37.5t32 -13.5q27 0 59 23.5t61.5 60.5t52.5 83t32 91l26 132q5 25 15 35t35 16q42 10 60 27t18 46q0 15 -5 33l29 8q18 5 32 5q20 0 32 -10.5
t12 -30.5q0 -40 -35 -73t-94 -50q-17 -63 -28.5 -105.5t-19.5 -71.5t-12.5 -49t-8.5 -38q-14 -67 -14 -101q0 -28 11 -28q10 0 35.5 20.5t54.5 52.5z" />
    <glyph glyph-name="uni01B2" unicode="&#x1b2;" horiz-adv-x="708" 
d="M157 622l-62 12q-11 3 -16 6.5t-5 11.5q0 7 4 18t11 23h178l-94 -449q-6 -27 -8.5 -47.5t-2.5 -37.5q0 -45 20 -65t66 -20q48 0 93 26t83 73t67 111.5t44 142.5q12 63 12 97q0 91 -67 91q-26 0 -60 -18q-14 14 -14 34q0 33 31 53.5t80 20.5q62 0 95 -40t33 -115
q0 -47 -12 -105q-21 -103 -60 -187t-92.5 -143.5t-119 -92t-137.5 -32.5q-160 0 -160 151q0 36 11 91z" />
    <glyph glyph-name="uni01B3" unicode="&#x1b3;" horiz-adv-x="646" 
d="M105 0l13 41q16 6 45 15t56 17l42 202l-137 344q-40 14 -51.5 21t-11.5 15q0 14 15 38h267l-13 -42q-14 -9 -40 -18.5t-58 -17.5l94 -269l139 193q34 47 62 79t53.5 51.5t50.5 27.5t54 8q35 0 58.5 -17.5t23.5 -43.5q0 -23 -15 -41.5t-48 -35.5q-9 29 -20.5 41.5
t-29.5 12.5q-35 0 -81 -63l-215 -285l-44 -202l76 -12q21 -3 21 -18q0 -7 -4 -18t-11 -23h-291z" />
    <glyph glyph-name="uni01B4" unicode="&#x1b4;" horiz-adv-x="608" 
d="M23 465q2 15 11.5 23t35.5 16q48 15 77 15q22 0 37 -14t27 -47q13 -34 23 -73t17.5 -79.5t11.5 -81.5t4 -78q0 -17 -2 -45t-6 -63q37 52 66.5 120.5t56 143t51 150t52.5 141.5q34 81 92 127.5t127 46.5q45 0 74.5 -17.5t29.5 -43.5q0 -17 -13.5 -33t-37.5 -28
q-36 51 -81 51q-34 0 -60.5 -29.5t-56.5 -101.5q-35 -83 -61.5 -163.5t-57.5 -158.5t-73.5 -154t-110.5 -151q-30 -33 -66 -64.5t-74 -55.5t-75.5 -38.5t-70.5 -14.5q-56 0 -56 51q0 35 29 67q19 -17 31 -23t29 -6q32 0 71.5 18.5t68.5 47.5q13 13 22.5 29.5t15 38.5t8 51.5
t2.5 70.5q0 39 -6 83t-16 88t-24.5 84.5t-30.5 72.5q-20 2 -43 4t-51 4z" />
    <glyph glyph-name="uni01B5" unicode="&#x1b5;" horiz-adv-x="584" 
d="M391 0h-367q-20 0 -28 9.5t-8 32.5q0 5 0.5 13t1.5 15l206 246h-117l13 61h155l203 241h-112q-39 0 -78.5 -1.5t-76.5 -3.5l-52 -117h-27q-21 0 -21 31q0 13 3 32.5t8 42t12 46.5t15 45h411q21 0 29.5 -14t8.5 -47l-214 -255h120l-13 -61h-158l-200 -239h77
q30 0 62.5 0.5t63 1.5t56.5 2t43 2q15 22 31 54t34 75h24q26 0 26 -27q0 -18 -5 -44t-13.5 -53t-19 -52t-21.5 -42z" />
    <glyph glyph-name="uni01B6" unicode="&#x1b6;" horiz-adv-x="472" 
d="M398 139q34 -11 34 -54q0 -44 -32 -69.5t-89 -25.5q-23 0 -50 4.5t-55.5 13t-57.5 20.5t-54 27l-23 -57q-8 -2 -12 -2h-8q-49 0 -49 49v16l158 171h-105l11 55h145l98 105q-49 20 -84 29t-62 9q-6 0 -14.5 -0.5t-14.5 -1.5l-35 -76l-24 1q-19 0 -19 36q0 63 26.5 96.5
t77.5 33.5q19 0 43 -5.5t49.5 -15.5t52 -24t50.5 -31l37 74q4 1 13 1q54 0 54 -44v-18l-156 -169h108l-11 -55h-147l-115 -125q45 -12 92.5 -18.5t89.5 -6.5q46 0 62 62z" />
    <glyph glyph-name="uni01B7" unicode="&#x1b7;" horiz-adv-x="572" 
d="M344 405q67 -9 105.5 -53.5t38.5 -113.5q0 -53 -23 -98.5t-64 -78.5t-97 -52t-121 -19q-41 0 -74.5 9t-58.5 25t-38.5 38t-13.5 48q0 30 20.5 52.5t56.5 32.5q3 -63 35 -95.5t89 -32.5q40 0 74.5 12t60 34t39.5 51t14 64q0 56 -31 86t-88 30h-25q-13 0 -13 10q0 5 2.5 18
t7.5 33l212 213h-86q-40 0 -81 -1.5t-77 -3.5l-49 -117h-27q-21 0 -21 31q0 15 3 35.5t7.5 43t11 45t13.5 42.5h407q22 0 22 -39q0 -4 -0.5 -9t-1.5 -11z" />
    <glyph glyph-name="uni01BB" unicode="&#x1bb;" horiz-adv-x="606" 
d="M373 0h-343q-20 0 -28 9.5t-8 32.5q0 5 0.5 12.5t1.5 15.5l252 279h-147l11 56h183q60 74 86 123.5t26 87.5t-22 59t-64 21q-54 0 -102 -38t-82 -107q-29 11 -40.5 22t-11.5 28q0 31 23 61.5t60.5 55t83.5 40t93 15.5q75 0 118.5 -38.5t43.5 -106.5q0 -44 -25 -97
t-82 -126h123l-11 -56h-158q-16 -20 -34 -40t-38 -42l-171 -190h53q28 0 60 0.5t62.5 1.5t57.5 2t45 2q19 29 34 57.5t29 61.5h24q26 0 26 -27q0 -18 -4.5 -42t-12.5 -49t-18.5 -48.5t-21.5 -41.5z" />
    <glyph glyph-name="uni01C0" unicode="&#x1c0;" horiz-adv-x="316" 
d="M17 0l190 764q22 4 45 6.5t47 2.5l-193 -773h-89z" />
    <glyph glyph-name="uni01C1" unicode="&#x1c1;" horiz-adv-x="524" 
d="M17 0l190 764q22 4 45 6.5t47 2.5l-193 -773h-89zM225 0l190 764q22 4 45 6.5t47 2.5l-193 -773h-89z" />
    <glyph glyph-name="uni01C2" unicode="&#x1c2;" horiz-adv-x="349" 
d="M33 0l65 261h-110l14 61h111l28 115h-110l15 61h111l66 266q22 4 45 6.5t47 2.5l-69 -275h115l-15 -61h-115l-29 -115h115l-15 -61h-115l-65 -261h-89z" />
    <glyph glyph-name="uni01C3" unicode="&#x1c3;" horiz-adv-x="303" 
d="M103 182q2 38 8.5 93.5t15.5 115.5t19.5 118t20.5 103q8 37 17.5 62t23 40t31 21t42.5 6q6 0 16.5 -1t15.5 -2q-24 -59 -48 -129t-44 -142.5t-35.5 -141.5t-23.5 -126zM105 -15q-45 0 -45 45q0 35 23 59t56 24q45 0 45 -45q0 -35 -23 -59t-56 -24z" />
    <glyph glyph-name="uni01C4" unicode="&#x1c4;" horiz-adv-x="1355" 
d="M-23 0l13 41q11 6 36.5 15t54.5 17l117 553q-24 -2 -46.5 -6t-49.5 -9q-2 6 -3 14t-1 12q0 29 54 45q16 4 39.5 8t51 7t57 5t56.5 2q158 0 244 -72t86 -205q0 -98 -32 -177.5t-91 -135.5t-142.5 -86.5t-186.5 -30.5q-15 0 -39.5 0.5t-52.5 1t-55.5 1t-48.5 0.5h-61z
M294 634l-117 -563q20 -2 44 -3t62 -1q65 0 120 25.5t94.5 71t61.5 109t22 138.5q0 114 -66 168.5t-203 54.5h-18zM1156 0h-367q-20 0 -28 9.5t-8 32.5q0 5 0.5 13t1.5 15l460 548h-112q-39 0 -78.5 -1.5t-76.5 -3.5l-52 -117h-27q-21 0 -21 31q0 13 3 32.5t8 42t12 46.5
t15 45h411q21 0 29.5 -14t8.5 -47l-465 -555h77q30 0 62.5 0.5t63 1.5t56.5 2t43 2q15 22 31 54t34 75h24q26 0 26 -27q0 -18 -5 -44t-13.5 -53t-19 -52t-21.5 -42zM1073 762q-53 55 -82 98.5t-29 66.5q0 8 5 14.5t19 11.5l30 12q33 -45 55 -74t41 -48q41 38 67 61.5t42 36
t25.5 17t18.5 4.5q15 0 27 -8l24 -16q-54 -47 -100.5 -90t-88.5 -86h-54z" />
    <glyph glyph-name="uni01C5" unicode="&#x1c5;" horiz-adv-x="1234" 
d="M-23 0l13 41q11 6 36.5 15t54.5 17l117 553q-24 -2 -46.5 -6t-49.5 -9q-2 6 -3 14t-1 12q0 29 54 45q16 4 39.5 8t51 7t57 5t56.5 2q158 0 244 -72t86 -205q0 -98 -32 -177.5t-91 -135.5t-142.5 -86.5t-186.5 -30.5q-15 0 -39.5 0.5t-52.5 1t-55.5 1t-48.5 0.5h-61z
M294 634l-117 -563q20 -2 44 -3t62 -1q65 0 120 25.5t94.5 71t61.5 109t22 138.5q0 114 -66 168.5t-203 54.5h-18zM1147 139q34 -11 34 -54q0 -44 -32 -69.5t-89 -25.5q-23 0 -50 4.5t-55.5 13t-57.5 20.5t-54 27l-23 -57q-8 -2 -12 -2h-8q-49 0 -49 49v16l307 331
q-49 20 -84 29t-62 9q-6 0 -14.5 -0.5t-14.5 -1.5l-35 -76l-24 1q-19 0 -19 36q0 63 26.5 96.5t77.5 33.5q19 0 43 -5.5t49.5 -15.5t52 -24t50.5 -31l37 74q4 1 13 1q54 0 54 -44v-18l-321 -349q45 -12 92.5 -18.5t89.5 -6.5q46 0 62 62zM988 602q-35 52 -57.5 95.5
t-22.5 69.5q0 23 26 32l29 9q10 -25 18.5 -42.5t16 -32.5t15.5 -28t18 -29q59 71 92.5 102t50.5 31q7 0 11.5 -1.5t10.5 -4.5l25 -13q-31 -33 -76.5 -82t-90.5 -106h-66z" />
    <glyph glyph-name="uni01C6" unicode="&#x1c6;" horiz-adv-x="1108" 
d="M546 134q10 -11 10 -22q0 -18 -16 -37q-34 -42 -67.5 -63.5t-63.5 -21.5q-50 0 -50 75q0 16 2.5 42.5t6.5 53.5q-49 -84 -106 -127.5t-117 -43.5q-50 0 -77 35.5t-27 100.5q0 75 24 146.5t64 127t90.5 89t104.5 33.5q27 0 51.5 -12.5t49.5 -37.5l46 227q-21 1 -31.5 1
h-31.5h-44l3 16q4 21 11 28t29 12q13 3 29.5 6t34 5.5t32.5 4t25 1.5q20 0 28.5 -8t8.5 -28q0 -9 -1 -18t-3 -20.5t-5 -27t-8 -36.5l-101 -432q-6 -27 -10 -55t-4 -46q0 -28 11 -28q10 0 35.5 20.5t54.5 52.5zM406 390q-21 26 -44.5 42t-42.5 16q-34 0 -67 -24t-59 -63
t-42 -89t-16 -101q0 -95 56 -95q26 0 57.5 23.5t61 60t52.5 81.5t32 88zM1021 139q34 -11 34 -54q0 -44 -32 -69.5t-89 -25.5q-23 0 -50 4.5t-55.5 13t-57.5 20.5t-54 27l-23 -57q-8 -2 -12 -2h-8q-49 0 -49 49v16l307 331q-49 20 -84 29t-62 9q-6 0 -14.5 -0.5t-14.5 -1.5
l-35 -76l-24 1q-19 0 -19 36q0 63 26.5 96.5t77.5 33.5q19 0 43 -5.5t49.5 -15.5t52 -24t50.5 -31l37 74q4 1 13 1q54 0 54 -44v-18l-321 -349q45 -12 92.5 -18.5t89.5 -6.5q46 0 62 62zM862 602q-35 52 -57.5 95.5t-22.5 69.5q0 23 26 32l29 9q10 -25 18.5 -42.5t16 -32.5
t15.5 -28t18 -29q59 71 92.5 102t50.5 31q7 0 11.5 -1.5t10.5 -4.5l25 -13q-31 -33 -76.5 -82t-90.5 -106h-66z" />
    <glyph glyph-name="uni01C7" unicode="&#x1c7;" horiz-adv-x="936" 
d="M787 622l-69 12q-21 3 -21 18q0 7 4 18t11 23h271l-13 -41q-15 -8 -38 -16t-49 -16l-106 -506q-17 -80 -40.5 -136.5t-55.5 -93.5t-74.5 -54t-96.5 -17q-42 0 -67 16.5t-25 44.5q0 19 10.5 37t29.5 31q16 -19 39.5 -31t46.5 -12q25 0 44.5 10.5t35.5 34.5t28.5 63
t24.5 97zM-23 0l13 41q11 6 36.5 15t54.5 17l116 549l-62 12q-21 4 -21 18q0 7 4 18t11 23h272l-13 -41q-11 -6 -37.5 -15t-57.5 -17l-115 -545h35q25 0 53.5 0.5t56.5 1.5t53 2t43 3l72 130h28q16 0 16 -25q0 -7 -1.5 -17.5t-3.5 -18.5q-8 -34 -25 -77t-35 -74h-493z" />
    <glyph glyph-name="uni01C8" unicode="&#x1c8;" horiz-adv-x="853" 
d="M618 446l3 19q2 10 4 16t6 9.5t11.5 6.5t19.5 6q10 3 25.5 6t31 5t30.5 3.5t25 1.5q38 0 38 -44q0 -12 -6 -48t-16.5 -87.5t-25.5 -116t-32 -134.5q-41 -166 -105 -245t-158 -79q-34 0 -56.5 17.5t-22.5 43.5q0 17 12.5 35.5t33.5 33.5q18 -22 34 -31.5t34 -9.5
q22 0 38 8.5t30.5 31.5t29 63.5t32.5 104.5q14 49 27.5 102.5t25 104.5t20.5 96.5t14 79.5q-11 1 -25 1h-37h-41zM793 629q-48 0 -48 50q0 37 24.5 63t59.5 26q48 0 48 -50q0 -37 -24.5 -63t-59.5 -26zM-23 0l13 41q11 6 36.5 15t54.5 17l116 549l-62 12q-21 4 -21 18
q0 7 4 18t11 23h272l-13 -41q-11 -6 -37.5 -15t-57.5 -17l-115 -545h35q25 0 53.5 0.5t56.5 1.5t53 2t43 3l72 130h28q16 0 16 -25q0 -7 -1.5 -17.5t-3.5 -18.5q-8 -34 -25 -77t-35 -74h-493z" />
    <glyph glyph-name="uni01C9" unicode="&#x1c9;" horiz-adv-x="593" 
d="M358 446l3 19q2 10 4 16t6 9.5t11.5 6.5t19.5 6q10 3 25.5 6t31 5t30.5 3.5t25 1.5q38 0 38 -44q0 -12 -6 -48t-16.5 -87.5t-25.5 -116t-32 -134.5q-41 -166 -105 -245t-158 -79q-34 0 -56.5 17.5t-22.5 43.5q0 17 12.5 35.5t33.5 33.5q18 -22 34 -31.5t34 -9.5
q22 0 38 8.5t30.5 31.5t29 63.5t32.5 104.5q14 49 27.5 102.5t25 104.5t20.5 96.5t14 79.5q-11 1 -25 1h-37h-41zM533 629q-48 0 -48 50q0 37 24.5 63t59.5 26q48 0 48 -50q0 -37 -24.5 -63t-59.5 -26zM257 134q10 -11 10 -22q0 -18 -16 -37q-74 -85 -148 -85q-26 0 -40 16
t-14 45q0 11 4.5 34.5t15.5 67.5l126 546q-11 1 -25.5 1h-37.5h-44l3 16q4 20 10.5 27.5t29.5 12.5q11 3 27.5 6t34.5 5.5t34 4t25 1.5q20 0 28.5 -8t8.5 -28q0 -16 -9 -55l-119 -517q-7 -30 -10.5 -48t-3.5 -26q0 -13 8 -13q4 0 14.5 6.5t24 16.5t27 22.5t24.5 23.5z" />
    <glyph glyph-name="uni01CA" unicode="&#x1ca;" horiz-adv-x="1122" 
d="M973 622l-69 12q-21 3 -21 18q0 7 4 18t11 23h271l-13 -41q-15 -8 -38 -16t-49 -16l-106 -506q-17 -80 -40.5 -136.5t-55.5 -93.5t-74.5 -54t-96.5 -17q-42 0 -67 16.5t-25 44.5q0 19 10.5 37t29.5 31q16 -19 39.5 -31t46.5 -12q25 0 44.5 10.5t35.5 34.5t28.5 63
t24.5 97zM498 -13l-241 529l-92 -448l57 -12q21 -4 21 -18q0 -12 -13 -38h-246l12 38q11 6 35.5 14.5t50.5 16.5l115 551l-42 13q-17 5 -29 13t-12 14q0 5 3.5 15t8.5 18h154l245 -549l99 481l-57 12q-21 4 -21 18q0 12 13 38h241l-12 -38q-14 -7 -35 -14.5t-47 -15.5
l-130 -625z" />
    <glyph glyph-name="uni01CB" unicode="&#x1cb;" horiz-adv-x="1054" 
d="M819 446l3 19q2 10 4 16t6 9.5t11.5 6.5t19.5 6q10 3 25.5 6t31 5t30.5 3.5t25 1.5q38 0 38 -44q0 -12 -6 -48t-16.5 -87.5t-25.5 -116t-32 -134.5q-41 -166 -105 -245t-158 -79q-34 0 -56.5 17.5t-22.5 43.5q0 17 12.5 35.5t33.5 33.5q18 -22 34 -31.5t34 -9.5
q22 0 38 8.5t30.5 31.5t29 63.5t32.5 104.5q14 49 27.5 102.5t25 104.5t20.5 96.5t14 79.5q-11 1 -25 1h-37h-41zM994 629q-48 0 -48 50q0 37 24.5 63t59.5 26q48 0 48 -50q0 -37 -24.5 -63t-59.5 -26zM498 -13l-241 529l-92 -448l57 -12q21 -4 21 -18q0 -12 -13 -38h-246
l12 38q11 6 35.5 14.5t50.5 16.5l115 551l-42 13q-17 5 -29 13t-12 14q0 5 3.5 15t8.5 18h154l245 -549l99 481l-57 12q-21 4 -21 18q0 12 13 38h241l-12 -38q-14 -7 -35 -14.5t-47 -15.5l-130 -625z" />
    <glyph glyph-name="uni01CC" unicode="&#x1cc;" horiz-adv-x="902" 
d="M667 446l3 19q2 10 4 16t6 9.5t11.5 6.5t19.5 6q10 3 25.5 6t31 5t30.5 3.5t25 1.5q38 0 38 -44q0 -12 -6 -48t-16.5 -87.5t-25.5 -116t-32 -134.5q-41 -166 -105 -245t-158 -79q-34 0 -56.5 17.5t-22.5 43.5q0 17 12.5 35.5t33.5 33.5q18 -22 34 -31.5t34 -9.5
q22 0 38 8.5t30.5 31.5t29 63.5t32.5 104.5q14 49 27.5 102.5t25 104.5t20.5 96.5t14 79.5q-11 1 -25 1h-37h-41zM842 629q-48 0 -48 50q0 37 24.5 63t59.5 26q48 0 48 -50q0 -37 -24.5 -63t-59.5 -26zM570 134q10 -11 10 -22q0 -18 -16 -37q-74 -85 -148 -85q-26 0 -40 16
t-14 45q0 8 2.5 23.5t9.5 45.5t19 78t31 121q8 29 11.5 51t3.5 33q0 35 -26 35q-32 0 -71.5 -32t-76 -82.5t-65.5 -113t-41 -122.5l-13 -67q-5 -21 -34 -21h-61l59 256q8 36 14.5 64t11 50.5t8 40.5t5.5 34q-13 1 -27 1h-37h-41l3 21q2 18 9 24t31 12q26 7 57.5 11.5
t50.5 4.5q41 0 41 -41q0 -18 -9 -59.5t-24 -96.5q26 45 56.5 82t62.5 63.5t64 40.5t61 14q85 0 85 -84q0 -21 -5.5 -52.5t-14.5 -65.5q-30 -112 -43.5 -164.5t-13.5 -64.5q0 -13 8 -13q4 0 16 7t26.5 17.5t29 22.5t23.5 22z" />
    <glyph glyph-name="uni01CD" unicode="&#x1cd;" horiz-adv-x="732" 
d="M395 0l10 40q29 13 89 26l-25 157h-261l-85 -158l59 -11q24 -4 24 -21q0 -14 -11 -33h-248l10 39q7 4 25 10t53 17l343 600q4 8 15.5 16t25.5 14.5t29 10.5t28 4l123 -641l53 -11q14 -3 19 -7.5t5 -13.5q0 -14 -11 -38h-270zM409 594l-164 -303h213zM396 762
q-53 55 -82 98.5t-29 66.5q0 8 5 14.5t19 11.5l30 12q33 -45 55 -74t41 -48q41 38 67 61.5t42 36t25.5 17t18.5 4.5q15 0 27 -8l24 -16q-54 -47 -100.5 -90t-88.5 -86h-54z" />
    <glyph glyph-name="uni01CE" unicode="&#x1ce;" horiz-adv-x="584" 
d="M546 134q10 -11 10 -22q0 -18 -16 -37q-34 -42 -67.5 -63.5t-63.5 -21.5q-50 0 -50 75q0 16 2.5 42.5t6.5 53.5q-49 -84 -106 -127.5t-117 -43.5q-50 0 -77 35.5t-27 100.5q0 78 23 150t62 126.5t90.5 87t107.5 32.5q57 0 109 -58l7 16q8 17 21.5 24t37.5 7h41
q-16 -35 -27.5 -65.5t-22.5 -72.5q-12 -41 -38 -149q-9 -38 -14 -71t-5 -51q0 -28 11 -28q10 0 34.5 20t55.5 53zM406 390q-21 26 -44.5 42t-42.5 16q-34 0 -67 -24t-59 -63t-42 -89t-16 -101q0 -95 56 -95q26 0 57.5 23.5t61 60t52.5 81.5t32 88zM313 602
q-35 52 -57.5 95.5t-22.5 69.5q0 23 26 32l29 9q10 -25 18.5 -42.5t16 -32.5t15.5 -28t18 -29q59 71 92.5 102t50.5 31q7 0 11.5 -1.5t10.5 -4.5l25 -13q-31 -33 -76.5 -82t-90.5 -106h-66z" />
    <glyph glyph-name="uni01CF" unicode="&#x1cf;" horiz-adv-x="373" 
d="M-23 0l13 41q11 6 36.5 15t54.5 17l116 549l-62 12q-21 4 -21 18q0 7 4 18t11 23h268l-13 -41q-11 -6 -36.5 -15t-54.5 -17l-116 -549l62 -12q21 -4 21 -18q0 -7 -4 -18t-11 -23h-268zM241 762q-53 55 -82 98.5t-29 66.5q0 8 5 14.5t19 11.5l30 12q33 -45 55 -74t41 -48
q41 38 67 61.5t42 36t25.5 17t18.5 4.5q15 0 27 -8l24 -16q-54 -47 -100.5 -90t-88.5 -86h-54z" />
    <glyph glyph-name="uni01D0" unicode="&#x1d0;" horiz-adv-x="331" 
d="M269 134q10 -11 10 -22q0 -15 -18 -37q-32 -38 -73.5 -61.5t-75.5 -23.5q-54 0 -54 59q0 10 3 26t9 41.5t16 61.5t25 87l51 180q-13 1 -27.5 1h-38.5h-41l4 19q4 19 11.5 25.5t30.5 12.5q11 3 26.5 6t31 5t29.5 3.5t23 1.5q41 0 41 -38q0 -17 -7 -52t-19 -80
q-18 -65 -30.5 -111t-21 -76.5t-12.5 -47.5t-4 -24q0 -12 6 -12q4 0 15.5 6.5t25 16.5t28 22t25.5 24zM193 602q-35 52 -57.5 95.5t-22.5 69.5q0 23 26 32l29 9q10 -25 18.5 -42.5t16 -32.5t15.5 -28t18 -29q59 71 92.5 102t50.5 31q7 0 11.5 -1.5t10.5 -4.5l25 -13
q-31 -33 -76.5 -82t-90.5 -106h-66z" />
    <glyph glyph-name="uni01D1" unicode="&#x1d1;" horiz-adv-x="739" 
d="M315 65q66 0 118 30.5t88 80t55 112.5t19 127q0 98 -41.5 156t-129.5 58q-66 0 -118 -30.5t-88 -80t-55 -112.5t-19 -127q0 -98 41 -156t130 -58zM295 -10q-61 0 -108.5 19.5t-80 55.5t-49.5 86.5t-17 112.5q0 81 27 160t79 141.5t127 100.5t171 38q61 0 108.5 -19.5
t80 -55.5t49.5 -86.5t17 -112.5q0 -81 -27 -160t-79 -141.5t-127 -100.5t-171 -38zM401 762q-53 55 -82 98.5t-29 66.5q0 8 5 14.5t19 11.5l30 12q33 -45 55 -74t41 -48q41 38 67 61.5t42 36t25.5 17t18.5 4.5q15 0 27 -8l24 -16q-54 -47 -100.5 -90t-88.5 -86h-54z" />
    <glyph glyph-name="uni01D2" unicode="&#x1d2;" horiz-adv-x="544" 
d="M224 62q37 0 70.5 21.5t58.5 57.5t39.5 84.5t14.5 102.5q0 122 -87 122q-37 0 -70.5 -21.5t-58.5 -57.5t-39.5 -84.5t-14.5 -102.5q0 -122 87 -122zM210 -10q-81 0 -125 47.5t-44 135.5q0 72 23 135.5t63 111t93.5 75t114.5 27.5q80 0 124 -48t44 -136q0 -71 -23 -134.5
t-63 -111t-93 -75t-114 -27.5zM314 602q-35 52 -57.5 95.5t-22.5 69.5q0 23 26 32l29 9q10 -25 18.5 -42.5t16 -32.5t15.5 -28t18 -29q59 71 92.5 102t50.5 31q7 0 11.5 -1.5t10.5 -4.5l25 -13q-31 -33 -76.5 -82t-90.5 -106h-66z" />
    <glyph glyph-name="uni01D3" unicode="&#x1d3;" horiz-adv-x="767" 
d="M616 622l-55 12q-21 6 -21 18q0 7 4 18t11 23h243l-11 -41q-10 -6 -35 -15t-52 -17l-76 -363q-28 -131 -107.5 -199t-204.5 -68q-103 0 -158.5 49.5t-55.5 140.5q0 19 5 56t13 72l66 314l-62 12q-21 6 -21 18q0 7 4 18t11 23h261l-13 -41q-8 -5 -31.5 -13.5t-52.5 -18.5
l-67 -315q-8 -35 -11 -60t-3 -48q0 -125 135 -125q173 0 212 193zM436 762q-53 55 -82 98.5t-29 66.5q0 8 5 14.5t19 11.5l30 12q33 -45 55 -74t41 -48q41 38 67 61.5t42 36t25.5 17t18.5 4.5q15 0 27 -8l24 -16q-54 -47 -100.5 -90t-88.5 -86h-54z" />
    <glyph glyph-name="uni01D4" unicode="&#x1d4;" horiz-adv-x="611" 
d="M573 134q10 -11 10 -22q0 -16 -16 -37q-30 -38 -65.5 -61.5t-64.5 -23.5q-51 0 -51 75q0 15 2.5 42t6.5 54q-48 -82 -105.5 -126.5t-116.5 -44.5q-48 0 -72.5 27t-24.5 78q0 14 2 29.5t6 36t11 46t18 60.5q17 60 27.5 100t16.5 78q-13 1 -28 1h-41h-41l3 21
q2 16 9.5 22.5t31.5 13.5t56 11.5t51 4.5q51 0 51 -45q0 -24 -15.5 -89t-47.5 -170q-8 -26 -12.5 -51t-4.5 -42q0 -24 12 -37.5t32 -13.5q27 0 59 23.5t61.5 60.5t52.5 83t32 91l26 132q5 28 18 39t41 11h51q-22 -81 -35.5 -132.5t-22 -84t-13.5 -52.5t-9 -39
q-14 -67 -14 -101q0 -28 11 -28q10 0 35.5 20.5t54.5 52.5zM320 602q-35 52 -57.5 95.5t-22.5 69.5q0 23 26 32l29 9q10 -25 18.5 -42.5t16 -32.5t15.5 -28t18 -29q59 71 92.5 102t50.5 31q7 0 11.5 -1.5t10.5 -4.5l25 -13q-31 -33 -76.5 -82t-90.5 -106h-66z" />
    <glyph glyph-name="uni01D5" unicode="&#x1d5;" horiz-adv-x="767" 
d="M616 622l-55 12q-21 6 -21 18q0 7 4 18t11 23h243l-11 -41q-10 -6 -35 -15t-52 -17l-76 -363q-28 -131 -107.5 -199t-204.5 -68q-103 0 -158.5 49.5t-55.5 140.5q0 19 5 56t13 72l66 314l-62 12q-21 6 -21 18q0 7 4 18t11 23h261l-13 -41q-8 -5 -31.5 -13.5t-52.5 -18.5
l-67 -315q-8 -35 -11 -60t-3 -48q0 -125 135 -125q173 0 212 193zM433 856q0 -32 -22.5 -54t-54.5 -22q-21 0 -33.5 11.5t-12.5 31.5q0 32 22.5 54t55.5 22q21 0 33 -11.5t12 -31.5zM633 856q0 -32 -22.5 -54t-54.5 -22q-21 0 -33.5 11.5t-12.5 31.5q0 32 22.5 54t55.5 22
q21 0 33 -11.5t12 -31.5zM388 960q-19 0 -26.5 6t-7.5 19q0 14 14 52h253q19 0 26.5 -6t7.5 -19q0 -14 -14 -52h-253z" />
    <glyph glyph-name="uni01D6" unicode="&#x1d6;" horiz-adv-x="611" 
d="M573 134q10 -11 10 -22q0 -16 -16 -37q-30 -38 -65.5 -61.5t-64.5 -23.5q-51 0 -51 75q0 15 2.5 42t6.5 54q-48 -82 -105.5 -126.5t-116.5 -44.5q-48 0 -72.5 27t-24.5 78q0 14 2 29.5t6 36t11 46t18 60.5q17 60 27.5 100t16.5 78q-13 1 -28 1h-41h-41l3 21
q2 16 9.5 22.5t31.5 13.5t56 11.5t51 4.5q51 0 51 -45q0 -24 -15.5 -89t-47.5 -170q-8 -26 -12.5 -51t-4.5 -42q0 -24 12 -37.5t32 -13.5q27 0 59 23.5t61.5 60.5t52.5 83t32 91l26 132q5 28 18 39t41 11h51q-22 -81 -35.5 -132.5t-22 -84t-13.5 -52.5t-9 -39
q-14 -67 -14 -101q0 -28 11 -28q10 0 35.5 20.5t54.5 52.5zM322 700q0 -32 -22.5 -54t-54.5 -22q-21 0 -33.5 11.5t-12.5 31.5q0 32 22.5 54t55.5 22q21 0 33 -11.5t12 -31.5zM522 700q0 -32 -22.5 -54t-54.5 -22q-21 0 -33.5 11.5t-12.5 31.5q0 32 22.5 54t55.5 22
q21 0 33 -11.5t12 -31.5zM279 819q-19 0 -26.5 6t-7.5 19q0 14 14 52h253q19 0 26.5 -6t7.5 -19q0 -14 -14 -52h-253z" />
    <glyph glyph-name="uni01D7" unicode="&#x1d7;" horiz-adv-x="767" 
d="M616 622l-55 12q-21 6 -21 18q0 7 4 18t11 23h243l-11 -41q-10 -6 -35 -15t-52 -17l-76 -363q-28 -131 -107.5 -199t-204.5 -68q-103 0 -158.5 49.5t-55.5 140.5q0 19 5 56t13 72l66 314l-62 12q-21 6 -21 18q0 7 4 18t11 23h261l-13 -41q-8 -5 -31.5 -13.5t-52.5 -18.5
l-67 -315q-8 -35 -11 -60t-3 -48q0 -125 135 -125q173 0 212 193zM653 1027q9 -23 9 -42q0 -20 -14 -35t-51 -28q-19 -7 -54 -18t-73 -21l-3 8q-4 12 -4 19q0 17 25 32l160 97zM430 827q0 -32 -22.5 -54t-54.5 -22q-21 0 -33.5 11.5t-12.5 31.5q0 32 22.5 54t55.5 22
q21 0 33 -11.5t12 -31.5zM630 827q0 -32 -22.5 -54t-54.5 -22q-21 0 -33.5 11.5t-12.5 31.5q0 32 22.5 54t55.5 22q21 0 33 -11.5t12 -31.5z" />
    <glyph glyph-name="uni01D8" unicode="&#x1d8;" horiz-adv-x="611" 
d="M573 134q10 -11 10 -22q0 -16 -16 -37q-30 -38 -65.5 -61.5t-64.5 -23.5q-51 0 -51 75q0 15 2.5 42t6.5 54q-48 -82 -105.5 -126.5t-116.5 -44.5q-48 0 -72.5 27t-24.5 78q0 14 2 29.5t6 36t11 46t18 60.5q17 60 27.5 100t16.5 78q-13 1 -28 1h-41h-41l3 21
q2 16 9.5 22.5t31.5 13.5t56 11.5t51 4.5q51 0 51 -45q0 -24 -15.5 -89t-47.5 -170q-8 -26 -12.5 -51t-4.5 -42q0 -24 12 -37.5t32 -13.5q27 0 59 23.5t61.5 60.5t52.5 83t32 91l26 132q5 28 18 39t41 11h51q-22 -81 -35.5 -132.5t-22 -84t-13.5 -52.5t-9 -39
q-14 -67 -14 -101q0 -28 11 -28q10 0 35.5 20.5t54.5 52.5zM315 700q0 -32 -22.5 -54t-54.5 -22q-21 0 -33.5 11.5t-12.5 31.5q0 32 22.5 54t55.5 22q21 0 33 -11.5t12 -31.5zM515 700q0 -32 -22.5 -54t-54.5 -22q-21 0 -33.5 11.5t-12.5 31.5q0 32 22.5 54t55.5 22
q21 0 33 -11.5t12 -31.5zM348 758q-9 12 -9 21q0 10 6 18.5t15 17.5l144 141l12 -11q13 -11 20.5 -23t7.5 -27q0 -23 -17 -40t-46 -34q-21 -12 -51.5 -28.5t-75.5 -42.5z" />
    </font>
</defs>
</svg>
